<?xml version="1.0" encoding="UTF-8" standalone="no"?>
<svg
   xmlns:dc="http://purl.org/dc/elements/1.1/"
   xmlns:cc="http://creativecommons.org/ns#"
   xmlns:rdf="http://www.w3.org/1999/02/22-rdf-syntax-ns#"
   xmlns:svg="http://www.w3.org/2000/svg"
   xmlns="http://www.w3.org/2000/svg"
   xmlns:sodipodi="http://sodipodi.sourceforge.net/DTD/sodipodi-0.dtd"
   xmlns:inkscape="http://www.inkscape.org/namespaces/inkscape"
   viewBox="0 0 117.495 103.74251"
   version="1.1"
   xml:space="preserve"
   id="svg2"
   inkscape:version="0.48.5 r10040"
   width="100%"
   height="100%"
   sodipodi:docname="pelican-Model.svg"
   style="fill-rule:evenodd;stroke-linecap:round;stroke-linejoin:round"><metadata
     id="metadata79"><rdf:RDF><cc:Work
         rdf:about=""><dc:format>image/svg+xml</dc:format><dc:type
           rdf:resource="http://purl.org/dc/dcmitype/StillImage" /></cc:Work></rdf:RDF></metadata><sodipodi:namedview
     pagecolor="#ffffff"
     bordercolor="#666666"
     borderopacity="1"
     objecttolerance="10"
     gridtolerance="10"
     guidetolerance="10"
     inkscape:pageopacity="0"
     inkscape:pageshadow="2"
     inkscape:window-width="640"
     inkscape:window-height="480"
     id="namedview77"
     showgrid="false"
     fit-margin-top="0"
     fit-margin-left="0"
     fit-margin-right="0"
     fit-margin-bottom="0"
     inkscape:zoom="0.295"
     inkscape:cx="28.237"
     inkscape:cy="30.832509"
     inkscape:window-x="0"
     inkscape:window-y="27"
     inkscape:window-maximized="0"
     inkscape:current-layer="svg2" /><defs
     id="defs4"><clipPath
       id="clipId0"><path
         d="M 0,800 800,800 800,0 0,0 z"
         id="path7"
         inkscape:connector-curvature="0" /></clipPath></defs><g
     clip-path="url(#clipId0)"
     id="g9"
     style="fill:none;stroke:#000000;stroke-width:0.1"
     transform="translate(-371.763,-327.09)" /><g
     clip-path="url(#clipId0)"
     id="g11"
     style="fill:none;stroke:#000000;stroke-width:0.25"
     transform="translate(-371.763,-327.09)"><path
       d="m 430.511,430.666 a 98.0177,98.0177 0 0 0 35.391,-5.517"
       id="path13"
       inkscape:connector-curvature="0" /><path
       d="m 465.902,425.149 a 8.55273,8.55273 0 0 0 5.517,-7.286"
       id="path15"
       inkscape:connector-curvature="0" /><polyline
       points="462.315,422.426 456.719,371.354 "
       id="polyline17" /><path
       d="m 459.167,427.25 a 4.45936,4.45936 0 0 0 3.148,-4.824"
       id="path19"
       inkscape:connector-curvature="0" /><polyline
       points="471.419,417.863 466.775,375.478 "
       id="polyline21" /><path
       d="m 454.018,368.727 a 58.1931,58.1931 0 0 0 -23.507,-4.27"
       id="path23"
       inkscape:connector-curvature="0" /><path
       d="m 456.719,371.354 a 3.98553,3.98553 0 0 0 -2.701,-2.627"
       id="path25"
       inkscape:connector-curvature="0" /><path
       d="m 471.419,371.354 a 4.24283,4.24283 0 0 0 -4.522,5.24"
       id="path27"
       inkscape:connector-curvature="0" /><path
       d="m 471.862,374.718 a 9.21291,9.21291 0 0 0 -3.095,-7.877"
       id="path29"
       inkscape:connector-curvature="0" /><path
       d="m 470.736,390.612 a 69.6734,69.6734 0 0 0 1.126,-15.894"
       id="path31"
       inkscape:connector-curvature="0" /><path
       d="m 470.736,390.612 a 42.2467,42.2467 0 0 0 0.683,9.987"
       id="path33"
       inkscape:connector-curvature="0" /><path
       d="m 471.419,400.599 a 5.62691,5.62691 0 0 0 10.634,1.067"
       id="path35"
       inkscape:connector-curvature="0" /><path
       d="m 482.053,401.666 a 72.7789,72.7789 0 0 0 7.08,-22.586"
       id="path37"
       inkscape:connector-curvature="0" /><path
       d="M 489.133,379.08 A 51.8657,31.0355 90 0 0 458.098,327.215"
       id="path39"
       inkscape:connector-curvature="0" /><path
       d="m 458.098,327.215 a 71.225,71.225 0 0 0 -13.794,1.37"
       id="path41"
       inkscape:connector-curvature="0" /><path
       d="m 430.511,329.955 a 71.225,71.225 0 0 0 13.793,-1.37"
       id="path43"
       inkscape:connector-curvature="0" /><path
       d="m 416.717,328.585 a 71.225,71.225 0 0 0 13.794,1.37"
       id="path45"
       inkscape:connector-curvature="0" /><path
       d="m 416.717,328.585 a 71.225,71.225 0 0 0 -13.793,-1.37"
       id="path47"
       inkscape:connector-curvature="0" /><path
       d="m 378.969,401.666 a 5.62691,5.62691 0 0 0 10.633,-1.067"
       id="path49"
       inkscape:connector-curvature="0" /><path
       d="m 371.888,379.08 a 72.7789,72.7789 0 0 0 7.081,22.586"
       id="path51"
       inkscape:connector-curvature="0" /><path
       d="m 371.888,379.08 a 51.8657,31.0355 90 0 1 31.036,-51.865"
       id="path53"
       inkscape:connector-curvature="0" /><path
       d="m 389.602,400.599 a 42.2467,42.2467 0 0 0 0.684,-9.987"
       id="path55"
       inkscape:connector-curvature="0" /><path
       d="m 389.16,374.718 a 69.6734,69.6734 0 0 0 1.126,15.894"
       id="path57"
       inkscape:connector-curvature="0" /><path
       d="m 392.255,366.841 a 9.21291,9.21291 0 0 0 -3.095,7.877"
       id="path59"
       inkscape:connector-curvature="0" /><polyline
       points="389.602,417.863 394.247,375.478 "
       id="polyline61" /><path
       d="m 394.125,376.594 a 4.24283,4.24283 0 0 0 -4.523,-5.24"
       id="path63"
       inkscape:connector-curvature="0" /><path
       d="m 407.004,368.727 a 3.98553,3.98553 0 0 0 -2.701,2.627"
       id="path65"
       inkscape:connector-curvature="0" /><path
       d="m 430.511,364.457 a 58.1931,58.1931 0 0 0 -23.507,4.27"
       id="path67"
       inkscape:connector-curvature="0" /><path
       d="m 395.12,425.149 a 98.0177,98.0177 0 0 0 35.391,5.517"
       id="path69"
       inkscape:connector-curvature="0" /><path
       d="m 398.707,422.426 a 4.45936,4.45936 0 0 0 3.148,4.824"
       id="path71"
       inkscape:connector-curvature="0" /><polyline
       points="398.707,422.426 404.303,371.354 "
       id="polyline73" /><path
       d="m 389.602,417.863 a 8.55273,8.55273 0 0 0 5.518,7.286"
       id="path75"
       inkscape:connector-curvature="0" /></g></svg>