<?xml version="1.0" encoding="UTF-8" standalone="no"?>
<svg
   xmlns:dc="http://purl.org/dc/elements/1.1/"
   xmlns:cc="http://creativecommons.org/ns#"
   xmlns:rdf="http://www.w3.org/1999/02/22-rdf-syntax-ns#"
   xmlns:svg="http://www.w3.org/2000/svg"
   xmlns="http://www.w3.org/2000/svg"
   xmlns:sodipodi="http://sodipodi.sourceforge.net/DTD/sodipodi-0.dtd"
   xmlns:inkscape="http://www.inkscape.org/namespaces/inkscape"
   viewBox="0 0 209.55 172.379"
   version="1.1"
   xml:space="preserve"
   id="svg2"
   inkscape:version="0.48.5 r10040"
   width="100%"
   height="100%"
   sodipodi:docname="pp503-Model.svg"
   style="fill-rule:evenodd;stroke-linecap:round;stroke-linejoin:round"><metadata
     id="metadata37"><rdf:RDF><cc:Work
         rdf:about=""><dc:format>image/svg+xml</dc:format><dc:type
           rdf:resource="http://purl.org/dc/dcmitype/StillImage" /></cc:Work></rdf:RDF></metadata><sodipodi:namedview
     pagecolor="#ffffff"
     bordercolor="#666666"
     borderopacity="1"
     objecttolerance="10"
     gridtolerance="10"
     guidetolerance="10"
     inkscape:pageopacity="0"
     inkscape:pageshadow="2"
     inkscape:window-width="640"
     inkscape:window-height="480"
     id="namedview35"
     showgrid="false"
     fit-margin-top="0"
     fit-margin-left="0"
     fit-margin-right="0"
     fit-margin-bottom="0"
     inkscape:zoom="0.295"
     inkscape:cx="134.06"
     inkscape:cy="83.42"
     inkscape:window-x="0"
     inkscape:window-y="27"
     inkscape:window-maximized="0"
     inkscape:current-layer="svg2" /><defs
     id="defs4"><clipPath
       id="clipId0"><path
         d="M 0,800 800,800 800,0 0,0 z"
         id="path7"
         inkscape:connector-curvature="0" /></clipPath></defs><g
     clip-path="url(#clipId0)"
     id="g9"
     style="fill:none;stroke:#000000;stroke-width:0.1"
     transform="translate(-265.94,-311.041)" /><g
     clip-path="url(#clipId0)"
     id="g11"
     style="fill:none;stroke:#000000;stroke-width:0.25"
     transform="translate(-265.94,-311.041)"><polyline
       points="370.715,314.833 404.744,316.514 438.484,321.296 446.835,322.969 450.994,323.876 451.934,324.188 451.988,325.251 452.315,327.346 453.362,344.03 452.195,377.666 450.907,394.456 448.557,411.132 444.576,427.488 441.236,435.238 436.534,442.255 433.724,445.424 432.217,446.901 430.115,447.24 421.691,448.48 404.759,450.395 370.715,451.955 336.67,450.395 319.739,448.48 311.314,447.24 309.212,446.901 307.705,445.424 304.895,442.255 300.194,435.238 296.853,427.488 292.873,411.132 290.522,394.456 289.234,377.666 288.067,344.03 289.114,327.346 289.441,325.251 289.495,324.188 290.435,323.876 294.595,322.969 302.946,321.296 336.685,316.514 370.715,314.833 "
       id="polyline13" /><polyline
       points="370.715,483.295 384.208,482.447 397.468,479.776 410.307,475.592 422.361,469.507 433.195,461.465 442.695,451.961 451.212,441.584 458.682,430.457 465.611,418.969 471.39,406.91 474.586,393.914 475.365,380.568 472.48,354.004 468.601,327.556 467.605,324.383 465.423,321.813 462.479,320.17 459.129,320.039 456.088,321.468 454.045,324.115 453.03,330.67 452.99,357.379 451.807,384.07 448.65,410.614 445.768,423.667 440.776,436.073 432.529,446.63 421.995,455.029 410.207,461.717 397.538,466.393 384.224,468.77 370.715,469.545 "
       id="polyline15" /><polyline
       points="464.525,321.147 462.014,320.044 459.278,320.006 456.723,321.018 454.758,322.904 453.111,328.029 452.975,329.106 452.457,327.851 451.981,325.162 453.137,319.929 456.526,315.7 459.199,315.227 461.524,316.606 464.525,321.147 "
       id="polyline17" /><polyline
       points="451.933,324.088 431.075,319.976 410.004,317.053 388.801,315.34 367.542,314.859 346.292,315.724 325.12,317.8 304.104,321.08 293.68,323.164 291.084,323.731 289.788,324.022 289.436,323.072 288.621,320.583 288.029,319.423 289.331,319.163 310.284,315.557 331.403,313.014 352.624,311.55 373.888,311.166 395.146,311.874 416.342,313.661 437.418,316.522 447.891,318.351 453.107,319.364 451.933,324.088 "
       id="polyline19" /><polyline
       points="316.706,453.142 328.985,460.621 342.297,465.949 356.379,468.678 370.715,469.545 "
       id="polyline21" /><polyline
       points="370.715,483.295 360.932,482.879 351.233,481.451 332.425,476.1 323.515,472.066 315.177,466.936 307.54,460.848 300.611,454.011 "
       id="polyline23" /><polyline
       points="370.715,483.295 357.222,482.447 343.961,479.776 331.123,475.592 319.068,469.507 308.235,461.465 298.734,451.961 290.217,441.584 282.748,430.457 275.818,418.969 270.04,406.91 266.843,393.914 266.065,380.568 268.95,354.004 272.828,327.556 273.824,324.383 276.007,321.813 278.95,320.17 282.3,320.039 285.342,321.468 287.384,324.115 288.399,330.67 288.44,357.379 289.622,384.07 292.78,410.614 295.661,423.667 300.653,436.073 308.901,446.63 319.434,455.029 331.222,461.717 343.891,466.393 357.205,468.77 370.715,469.545 "
       id="polyline25" /><polyline
       points="276.904,321.147 279.415,320.044 282.152,320.006 284.706,321.018 286.671,322.904 288.318,328.029 288.455,329.106 288.972,327.851 289.448,325.162 288.293,319.929 284.903,315.7 282.23,315.227 279.905,316.606 276.904,321.147 "
       id="polyline27" /><polyline
       points="300.611,454.011 293.864,446.263 290.695,442.22 290.125,442.086 289.929,443.36 289.755,445.912 290.919,450.881 293.129,455.489 294.921,457.355 297.46,457.678 299.616,456.352 300.611,454.011 "
       id="polyline29" /><polyline
       points="424.724,453.142 393.381,456.026 362.14,456.555 330.779,454.73 322.951,453.906 319.044,453.439 315.436,452.207 309.445,447.156 316.571,448.036 347.894,451.244 379.375,451.845 410.804,449.799 426.419,447.808 430.307,447.209 432.249,446.895 430.836,448.224 424.724,453.142 "
       id="polyline31" /><polyline
       points="440.818,454.011 447.565,446.263 450.735,442.22 451.305,442.086 451.5,443.36 451.674,445.912 450.51,450.881 448.3,455.489 446.508,457.355 443.97,457.678 441.813,456.352 440.818,454.011 "
       id="polyline33" /></g></svg>