<?xml version="1.0" encoding="UTF-8" standalone="no"?>
<svg
   xmlns:dc="http://purl.org/dc/elements/1.1/"
   xmlns:cc="http://creativecommons.org/ns#"
   xmlns:rdf="http://www.w3.org/1999/02/22-rdf-syntax-ns#"
   xmlns:svg="http://www.w3.org/2000/svg"
   xmlns="http://www.w3.org/2000/svg"
   xmlns:sodipodi="http://sodipodi.sourceforge.net/DTD/sodipodi-0.dtd"
   xmlns:inkscape="http://www.inkscape.org/namespaces/inkscape"
   viewBox="0 0 245.53321 187.96973"
   version="1.1"
   xml:space="preserve"
   id="svg2"
   inkscape:version="0.48.5 r10040"
   width="100%"
   height="100%"
   sodipodi:docname="ch88-Model.svg"
   style="fill-rule:evenodd;stroke-linecap:round;stroke-linejoin:round"><metadata
     id="metadata41"><rdf:RDF><cc:Work
         rdf:about=""><dc:format>image/svg+xml</dc:format><dc:type
           rdf:resource="http://purl.org/dc/dcmitype/StillImage" /></cc:Work></rdf:RDF></metadata><sodipodi:namedview
     pagecolor="#ffffff"
     bordercolor="#666666"
     borderopacity="1"
     objecttolerance="10"
     gridtolerance="10"
     guidetolerance="10"
     inkscape:pageopacity="0"
     inkscape:pageshadow="2"
     inkscape:window-width="640"
     inkscape:window-height="480"
     id="namedview39"
     showgrid="false"
     fit-margin-top="0"
     fit-margin-left="0"
     fit-margin-right="0"
     fit-margin-bottom="0"
     inkscape:zoom="0.295"
     inkscape:cx="112.40723"
     inkscape:cy="96.875"
     inkscape:window-x="0"
     inkscape:window-y="27"
     inkscape:window-maximized="0"
     inkscape:current-layer="svg2" /><defs
     id="defs4"><clipPath
       id="clipId0"><path
         d="M 0,800 800,800 800,0 0,0 z"
         id="path7"
         inkscape:connector-curvature="0" /></clipPath></defs><g
     clip-path="url(#clipId0)"
     id="g9"
     style="fill:none;stroke:#000000;stroke-width:0.1"
     transform="translate(-287.59277,-308.90527)" /><g
     clip-path="url(#clipId0)"
     id="g11"
     style="fill:none;stroke:#000000;stroke-width:0.25"
     transform="translate(-287.59277,-308.90527)"><polyline
       points="296.971,368.728 305.213,357.795 313.984,348.283 323.138,340.094 332.528,333.128 342.008,327.288 351.432,322.473 369.524,315.528 385.634,311.502 392.58,310.336 398.591,309.605 403.522,309.207 407.224,309.046 409.553,309.021 410.362,309.035 411.171,309.021 413.5,309.046 417.203,309.207 422.133,309.605 428.144,310.336 435.09,311.502 451.2,315.528 469.293,322.473 478.717,327.288 488.197,333.128 497.587,340.094 506.74,348.283 515.512,357.795 523.754,368.728 "
       id="polyline13" /><polyline
       points="498.945,465.83 499.73,466.596 501.798,468.617 508.072,474.749 514.347,480.88 516.415,482.901 517.199,483.667 518.546,485.556 518.969,487.382 518.105,489.319 516.432,490.686 514.506,490.857 512,489.319 507.709,485.137 501.859,479.494 496.699,474.534 495.081,472.981 494.479,472.403 "
       id="polyline15" /><polyline
       points="410.362,496.756 424.58,496.584 436.851,495.868 447.295,494.729 456.031,493.29 463.179,491.675 468.86,490.005 473.192,488.404 476.296,486.994 478.291,485.898 479.298,485.239 479.469,485.111 479.479,485.103 480.378,484.584 482.961,482.964 491.708,475.604 498.158,467.152 502.63,458.026 505.443,448.643 506.915,439.418 507.367,430.77 507.116,423.116 506.483,416.872 505.785,412.456 505.342,410.284 505.309,410.141 505.307,410.131 505.045,409.276 504.232,406.755 500.592,397.278 496.385,388.741 491.688,381.093 481.131,368.274 469.529,358.427 457.494,351.164 445.636,346.091 434.565,342.818 424.892,340.954 417.227,340.106 412.18,339.885 410.362,339.898 408.544,339.885 403.498,340.106 395.832,340.954 386.159,342.818 375.088,346.091 363.23,351.164 351.195,358.427 339.594,368.274 329.037,381.093 324.34,388.741 320.134,397.278 316.494,406.755 315.681,409.276 315.419,410.131 315.417,410.141 315.384,410.284 314.941,412.456 314.243,416.872 313.61,423.116 313.359,430.77 313.81,439.418 315.283,448.643 318.095,458.026 322.567,467.152 329.016,475.604 337.762,482.964 340.345,484.584 341.244,485.103 341.255,485.111 341.425,485.239 342.432,485.898 344.428,486.994 347.532,488.404 351.865,490.005 357.545,491.675 364.694,493.29 373.43,494.729 383.874,495.868 396.144,496.584 410.362,496.756 "
       id="polyline17" /><polyline
       points="496.121,338.921 496.535,338.232 497.626,336.415 500.937,330.903 504.248,325.391 505.34,323.575 505.753,322.886 507.302,321.081 508.915,320.158 510.801,320.407 513.091,323.364 512.009,327.352 509.725,331.156 506.43,336.649 503.468,341.59 502.531,343.152 502.182,343.735 "
       id="polyline19" /><polyline
       points="480.457,367.072 492.543,353.432 "
       id="polyline21" /><polyline
       points="473.743,362.103 486.418,347.776 "
       id="polyline23" /><polyline
       points="523.754,368.728 524.108,369.375 525.041,371.082 527.873,376.26 530.705,381.437 531.638,383.144 531.992,383.791 532.441,384.939 532.997,387.685 532.478,390.986 529.697,393.797 528.754,394.281 526.393,394.842 523.312,394.147 520.211,390.863 514.67,380.972 512.751,377.47 512.009,376.106 "
       id="polyline25" /><polyline
       points="512.009,376.106 503.795,365.412 495.319,356.121 486.691,348.137 478.02,341.36 469.415,335.693 460.986,331.035 445.091,324.356 431.207,320.535 420.209,318.782 416.065,318.435 412.97,318.309 411.032,318.305 410.362,318.326 409.692,318.305 407.755,318.309 404.66,318.435 400.516,318.782 389.518,320.535 375.635,324.356 359.74,331.035 351.312,335.693 342.708,341.36 334.038,348.137 325.411,356.121 316.936,365.412 308.723,376.106 "
       id="polyline27" /><polyline
       points="321.779,465.83 320.995,466.596 318.927,468.617 312.652,474.749 306.378,480.88 304.31,482.901 303.526,483.667 302.179,485.556 301.756,487.382 302.62,489.319 304.292,490.686 306.218,490.857 308.723,489.319 313.015,485.137 318.865,479.494 324.025,474.534 325.643,472.981 326.245,472.403 "
       id="polyline29" /><polyline
       points="324.607,338.921 324.192,338.232 323.101,336.415 319.789,330.903 316.477,325.391 315.385,323.575 314.971,322.886 313.426,321.081 311.813,320.158 309.923,320.407 307.635,323.364 308.723,327.352 311.003,331.156 314.296,336.649 317.257,341.59 318.194,343.152 318.543,343.735 "
       id="polyline31" /><polyline
       points="340.267,367.072 328.18,353.432 "
       id="polyline33" /><polyline
       points="346.982,362.103 334.305,347.776 "
       id="polyline35" /><polyline
       points="296.971,368.728 296.617,369.375 295.684,371.082 292.851,376.26 290.018,381.437 289.085,383.144 288.731,383.791 288.283,384.939 287.727,387.685 288.247,390.986 291.028,393.797 291.97,394.281 294.331,394.842 297.411,394.147 300.514,390.863 306.056,380.972 307.979,377.47 308.723,376.106 "
       id="polyline37" /></g></svg>