<?xml version="1.0" encoding="UTF-8" standalone="no"?>
<svg
   xmlns:dc="http://purl.org/dc/elements/1.1/"
   xmlns:cc="http://creativecommons.org/ns#"
   xmlns:rdf="http://www.w3.org/1999/02/22-rdf-syntax-ns#"
   xmlns:svg="http://www.w3.org/2000/svg"
   xmlns="http://www.w3.org/2000/svg"
   xmlns:sodipodi="http://sodipodi.sourceforge.net/DTD/sodipodi-0.dtd"
   xmlns:inkscape="http://www.inkscape.org/namespaces/inkscape"
   viewBox="0 0 492.169 201.318"
   version="1.1"
   xml:space="preserve"
   id="svg2"
   inkscape:version="0.48.5 r10040"
   width="100%"
   height="100%"
   sodipodi:docname="ch163-Model.svg"
   style="fill-rule:evenodd;stroke-linecap:round;stroke-linejoin:round"><metadata
     id="metadata163"><rdf:RDF><cc:Work
         rdf:about=""><dc:format>image/svg+xml</dc:format><dc:type
           rdf:resource="http://purl.org/dc/dcmitype/StillImage" /></cc:Work></rdf:RDF></metadata><sodipodi:namedview
     pagecolor="#ffffff"
     bordercolor="#666666"
     borderopacity="1"
     objecttolerance="10"
     gridtolerance="10"
     guidetolerance="10"
     inkscape:pageopacity="0"
     inkscape:pageshadow="2"
     inkscape:window-width="640"
     inkscape:window-height="480"
     id="namedview161"
     showgrid="false"
     fit-margin-top="0"
     fit-margin-left="0"
     fit-margin-right="0"
     fit-margin-bottom="0"
     inkscape:zoom="0.295"
     inkscape:cx="236.602"
     inkscape:cy="90.594"
     inkscape:window-x="0"
     inkscape:window-y="27"
     inkscape:window-maximized="0"
     inkscape:current-layer="svg2" /><defs
     id="defs4"><clipPath
       id="clipId0"><path
         d="M 0,800 800,800 800,0 0,0 z"
         id="path7"
         inkscape:connector-curvature="0" /></clipPath></defs><g
     clip-path="url(#clipId0)"
     id="g9"
     style="fill:none;stroke:#000000;stroke-width:0.1"
     transform="translate(-163.398,-289.276)" /><g
     clip-path="url(#clipId0)"
     id="g11"
     style="fill:none;stroke:#ffffff;stroke-width:0.25"
     transform="translate(-163.398,-289.276)"><polyline
       points="163.523,480.279 163.523,479.095 163.523,475.696 163.523,470.311 163.523,463.17 163.523,454.5 163.523,444.532 163.523,421.618 163.523,370.289 163.523,345.541 163.523,323.848 163.523,314.72 163.523,307.044 163.523,301.048 163.523,296.961 163.523,295.014 163.523,294.875 163.535,294.808 163.853,294.045 164.954,293.283 165.406,293.216 165.575,293.348 165.575,295.33 165.575,299.49 165.575,305.594 165.575,313.409 165.575,322.701 165.575,333.237 165.575,344.784 165.575,369.977 165.575,422.23 165.575,445.557 165.575,455.704 165.575,464.53 165.575,471.8 165.575,477.282 165.575,480.742 165.575,481.947 "
       id="polyline13" /><polyline
       points="188.75,490.469 188.75,489.221 188.75,485.638 188.75,479.961 188.75,472.431 188.75,463.292 188.75,452.783 188.75,428.625 188.75,374.512 188.75,348.421 188.75,336.463 188.75,325.552 188.75,315.929 188.75,307.836 188.75,301.515 188.75,297.207 188.75,295.153 188.749,295.007 188.735,294.934 188.364,294.111 187.107,293.288 186.595,293.216 186.403,293.348 186.403,295.33 186.403,299.49 186.403,305.594 186.403,313.409 186.403,322.701 186.403,333.237 186.403,344.784 186.403,369.977 186.403,422.23 186.403,445.557 186.403,455.704 186.403,464.53 186.403,471.8 186.403,477.282 186.403,480.742 186.403,481.947 "
       id="polyline15" /><polyline
       points="206.014,323.896 206.014,325.117 206.014,328.337 206.014,338.109 206.014,347.881 206.014,351.101 206.014,352.323 204.56,352.856 200.698,354.028 195.177,355.201 188.75,355.734 "
       id="polyline17" /><polyline
       points="318.408,323.685 318.408,352.323 "
       id="polyline19" /><polyline
       points="318.408,471.08 318.408,471.08 "
       id="polyline21" /><polyline
       points="318.408,359.39 318.408,359.39 "
       id="polyline23" /><polyline
       points="165.575,293.211 186.403,293.211 "
       id="polyline25" /><polyline
       points="163.523,295.144 188.456,295.144 "
       id="polyline27" /><polyline
       points="168.713,293.211 168.713,291.061 168.691,289.962 169.035,289.432 170.53,289.404 176.021,289.404 181.512,289.404 182.716,289.404 182.788,289.401 183.417,289.646 183.54,291.061 183.54,293.211 "
       id="polyline29" /><polyline
       points="163.523,480.279 163.853,481.113 165.575,481.947 "
       id="polyline31" /><polyline
       points="188.75,480.147 188.364,481.047 186.403,481.947 "
       id="polyline33" /><polyline
       points="165.575,481.947 186.403,481.947 "
       id="polyline35" /><polyline
       points="163.523,480.015 188.456,480.015 "
       id="polyline37" /><polyline
       points="168.713,481.947 168.713,484.098 168.715,485.196 169.178,485.726 170.666,485.754 176.096,485.754 181.525,485.754 182.716,485.754 182.788,485.757 183.417,485.513 183.54,484.098 183.54,481.947 "
       id="polyline39" /><polyline
       points="337.405,292.733 188.161,292.733 188.161,291.375 335.872,291.375 "
       id="polyline41" /><polyline
       points="188.75,297.406 337.915,297.406 "
       id="polyline43" /><polyline
       points="336.966,299.298 188.75,299.298 "
       id="polyline45" /><polyline
       points="318.185,323.779 316.928,323.781 313.376,323.789 307.855,323.8 300.696,323.815 282.768,323.852 262.218,323.894 241.667,323.936 223.74,323.973 216.58,323.988 211.06,323.999 207.507,324.006 206.25,324.009 199.523,320.436 193.951,316.99 190.153,314.393 188.75,313.367 190.401,313.367 195.067,313.367 202.318,313.367 211.723,313.367 222.851,313.367 235.27,313.367 262.264,313.367 289.258,313.367 301.677,313.367 312.805,313.367 322.21,313.367 329.461,313.367 334.127,313.367 335.778,313.367 334.54,314.362 331.011,316.888 325.467,320.256 318.185,323.779 "
       id="polyline47" /><polyline
       points="188.75,355.734 334.675,355.734 "
       id="polyline49" /><polyline
       points="206.014,471.08 318.408,471.08 "
       id="polyline51" /><polyline
       points="202.83,355.734 206.014,359.39 206.014,471.08 188.75,488.849 "
       id="polyline53" /><polyline
       points="206.014,359.39 318.185,359.39 321.898,355.734 "
       id="polyline55" /><polyline
       points="206.014,352.323 207.274,352.323 210.834,352.323 216.366,352.323 223.541,352.323 241.506,352.323 262.1,352.323 282.694,352.323 300.659,352.323 307.834,352.323 313.366,352.323 316.926,352.323 318.185,352.323 319.742,352.856 323.804,354.028 335.778,355.734 "
       id="polyline57" /><polyline
       points="318.185,359.39 318.185,471.08 335.868,489.033 "
       id="polyline59" /><polyline
       points="188.456,490.469 335.868,490.469 "
       id="polyline61" /><polyline
       points="188.75,488.849 335.868,488.849 "
       id="polyline63" /><polyline
       points="318.185,471.08 318.185,471.08 "
       id="polyline65" /><polyline
       points="655.442,480.279 655.442,479.095 655.442,475.696 655.442,470.311 655.442,463.17 655.442,454.5 655.442,444.532 655.442,421.618 655.442,370.289 655.442,345.541 655.442,323.848 655.442,314.72 655.442,307.044 655.442,301.048 655.442,296.961 655.442,295.014 655.441,294.875 655.43,294.808 655.112,294.045 654.01,293.283 653.558,293.216 653.389,293.348 653.389,295.33 653.389,299.49 653.389,305.594 653.389,313.409 653.389,322.701 653.389,333.237 653.389,344.784 653.389,369.977 653.389,422.23 653.389,445.557 653.389,455.704 653.389,464.53 653.389,471.8 653.389,477.282 653.389,480.742 653.389,481.947 "
       id="polyline67" /><polyline
       points="630.215,490.469 630.215,489.221 630.215,485.638 630.215,479.961 630.215,472.431 630.215,463.292 630.215,452.783 630.215,428.625 630.215,374.512 630.215,348.421 630.215,336.463 630.215,325.552 630.215,315.929 630.215,307.836 630.215,301.515 630.215,297.207 630.215,295.153 630.216,295.007 630.23,294.934 630.6,294.111 631.857,293.288 632.37,293.216 632.561,293.348 632.561,295.33 632.561,299.49 632.561,305.594 632.561,313.409 632.561,322.701 632.561,333.237 632.561,344.784 632.561,369.977 632.561,422.23 632.561,445.557 632.561,455.704 632.561,464.53 632.561,471.8 632.561,477.282 632.561,480.742 632.561,481.947 "
       id="polyline69" /><polyline
       points="612.95,323.896 612.95,325.117 612.95,328.337 612.95,338.109 612.95,347.881 612.95,351.101 612.95,352.323 614.404,352.856 618.266,354.028 623.787,355.201 630.215,355.734 "
       id="polyline71" /><polyline
       points="500.556,323.685 500.556,352.323 "
       id="polyline73" /><polyline
       points="500.556,471.08 500.556,471.08 "
       id="polyline75" /><polyline
       points="500.556,359.39 500.556,359.39 "
       id="polyline77" /><polyline
       points="653.389,293.211 632.561,293.211 "
       id="polyline79" /><polyline
       points="655.442,295.144 630.509,295.144 "
       id="polyline81" /><polyline
       points="650.251,293.211 650.251,291.061 650.273,289.962 649.93,289.432 648.434,289.404 642.944,289.404 637.453,289.404 636.249,289.404 636.176,289.401 635.547,289.646 635.425,291.061 635.425,293.211 "
       id="polyline83" /><polyline
       points="655.442,480.279 655.112,481.113 653.389,481.947 "
       id="polyline85" /><polyline
       points="630.215,480.147 630.6,481.047 632.561,481.947 "
       id="polyline87" /><polyline
       points="653.389,481.947 632.561,481.947 "
       id="polyline89" /><polyline
       points="655.442,480.015 630.509,480.015 "
       id="polyline91" /><polyline
       points="650.251,481.947 650.251,484.098 650.25,485.196 649.786,485.726 648.298,485.754 642.868,485.754 637.439,485.754 636.248,485.754 636.176,485.757 635.547,485.513 635.425,484.098 635.425,481.947 "
       id="polyline93" /><polyline
       points="336.217,292.733 630.804,292.733 630.804,291.375 483.093,291.375 "
       id="polyline95" /><polyline
       points="630.215,297.406 481.049,297.406 "
       id="polyline97" /><polyline
       points="482.657,299.298 630.215,299.298 "
       id="polyline99" /><polyline
       points="500.779,323.779 502.036,323.781 505.589,323.789 511.109,323.8 518.269,323.815 536.196,323.852 556.746,323.894 577.297,323.936 595.224,323.973 602.384,323.988 607.904,323.999 611.457,324.006 612.714,324.009 619.441,320.436 625.014,316.99 628.811,314.393 630.215,313.367 628.564,313.367 623.897,313.367 616.646,313.367 607.242,313.367 596.114,313.367 583.694,313.367 556.7,313.367 529.707,313.367 517.287,313.367 506.159,313.367 496.755,313.367 489.504,313.367 484.837,313.367 483.186,313.367 484.424,314.362 487.953,316.888 493.497,320.256 500.779,323.779 "
       id="polyline101" /><polyline
       points="630.215,355.734 484.289,355.734 "
       id="polyline103" /><polyline
       points="612.95,471.08 500.556,471.08 "
       id="polyline105" /><polyline
       points="616.134,355.734 612.95,359.39 612.95,471.08 630.215,488.849 "
       id="polyline107" /><polyline
       points="612.95,359.39 500.779,359.39 497.067,355.734 "
       id="polyline109" /><polyline
       points="612.95,352.323 611.69,352.323 608.13,352.323 602.598,352.323 595.423,352.323 577.458,352.323 556.864,352.323 536.27,352.323 518.306,352.323 511.131,352.323 505.599,352.323 502.039,352.323 500.779,352.323 499.139,352.856 494.896,354.028 482.657,355.734 "
       id="polyline111" /><polyline
       points="500.779,359.39 500.779,471.08 483.097,489.033 "
       id="polyline113" /><polyline
       points="630.509,490.469 483.097,490.469 "
       id="polyline115" /><polyline
       points="630.215,488.849 483.097,488.849 "
       id="polyline117" /><polyline
       points="500.779,471.08 500.779,471.08 "
       id="polyline119" /><polyline
       points="465.391,323.896 465.391,325.117 465.391,328.337 465.391,338.109 465.391,347.881 465.391,351.101 465.391,352.323 466.845,352.856 470.708,354.028 476.228,355.201 482.657,355.734 "
       id="polyline121" /><polyline
       points="352.998,323.685 352.998,352.323 "
       id="polyline123" /><polyline
       points="352.998,471.08 352.998,471.08 "
       id="polyline125" /><polyline
       points="352.998,359.39 352.998,359.39 "
       id="polyline127" /><polyline
       points="483.245,291.375 335.535,291.375 "
       id="polyline129" /><polyline
       points="336.217,292.733 336.217,292.733 "
       id="polyline131" /><polyline
       points="481.049,297.406 333.491,297.406 "
       id="polyline133" /><polyline
       points="336.655,299.298 482.657,299.298 "
       id="polyline135" /><polyline
       points="353.22,323.779 354.477,323.781 358.03,323.789 363.55,323.8 370.71,323.815 388.637,323.852 409.188,323.894 429.739,323.936 447.666,323.973 454.826,323.988 460.346,323.999 463.898,324.006 465.156,324.009 471.883,320.436 477.455,316.99 481.253,314.393 482.657,313.367 481.005,313.367 476.339,313.367 469.088,313.367 459.683,313.367 448.556,313.367 436.136,313.367 409.142,313.367 382.148,313.367 369.728,313.367 358.601,313.367 349.196,313.367 341.945,313.367 337.279,313.367 335.627,313.367 336.865,314.362 340.395,316.888 345.938,320.256 353.22,323.779 "
       id="polyline137" /><polyline
       points="482.657,355.734 336.731,355.734 "
       id="polyline139" /><polyline
       points="465.391,471.08 352.998,471.08 "
       id="polyline141" /><polyline
       points="468.576,355.734 465.391,359.39 465.391,471.08 482.657,488.849 "
       id="polyline143" /><polyline
       points="465.391,359.39 353.22,359.39 349.509,355.734 "
       id="polyline145" /><polyline
       points="465.391,352.323 464.131,352.323 460.571,352.323 455.039,352.323 447.864,352.323 429.9,352.323 409.306,352.323 388.712,352.323 370.747,352.323 363.572,352.323 358.04,352.323 354.48,352.323 353.22,352.323 351.663,352.856 347.602,354.028 335.627,355.734 "
       id="polyline147" /><polyline
       points="353.22,359.39 353.22,471.08 335.538,489.033 "
       id="polyline149" /><polyline
       points="484.645,490.469 335.538,490.469 "
       id="polyline151" /><polyline
       points="483.537,488.849 335.538,488.849 "
       id="polyline153" /><polyline
       points="353.22,471.08 353.22,471.08 "
       id="polyline155" /><polyline
       points="335.778,299.298 335.778,489.033 "
       id="polyline157" /><polyline
       points="482.657,299.298 482.657,489.033 "
       id="polyline159" /></g></svg>