<?xml version="1.0" encoding="UTF-8" standalone="no"?>
<svg
   xmlns:dc="http://purl.org/dc/elements/1.1/"
   xmlns:cc="http://creativecommons.org/ns#"
   xmlns:rdf="http://www.w3.org/1999/02/22-rdf-syntax-ns#"
   xmlns:svg="http://www.w3.org/2000/svg"
   xmlns="http://www.w3.org/2000/svg"
   xmlns:sodipodi="http://sodipodi.sourceforge.net/DTD/sodipodi-0.dtd"
   xmlns:inkscape="http://www.inkscape.org/namespaces/inkscape"
   viewBox="0 0 333.435 339.885"
   version="1.1"
   xml:space="preserve"
   id="svg2"
   inkscape:version="0.48.5 r10040"
   width="100%"
   height="100%"
   sodipodi:docname="e005-Model.svg"
   style="fill-rule:evenodd;stroke-linecap:round;stroke-linejoin:round"><metadata
     id="metadata73"><rdf:RDF><cc:Work
         rdf:about=""><dc:format>image/svg+xml</dc:format><dc:type
           rdf:resource="http://purl.org/dc/dcmitype/StillImage" /></cc:Work></rdf:RDF></metadata><sodipodi:namedview
     pagecolor="#ffffff"
     bordercolor="#666666"
     borderopacity="1"
     objecttolerance="10"
     gridtolerance="10"
     guidetolerance="10"
     inkscape:pageopacity="0"
     inkscape:pageshadow="2"
     inkscape:window-width="640"
     inkscape:window-height="480"
     id="namedview71"
     showgrid="false"
     fit-margin-top="0"
     fit-margin-left="0"
     fit-margin-right="0"
     fit-margin-bottom="0"
     inkscape:zoom="0.295"
     inkscape:cx="195.241"
     inkscape:cy="109.349"
     inkscape:window-x="0"
     inkscape:window-y="27"
     inkscape:window-maximized="0"
     inkscape:current-layer="svg2" /><defs
     id="defs4"><clipPath
       id="clipId0"><path
         d="M 0,800 800,800 800,0 0,0 z"
         id="path7"
         inkscape:connector-curvature="0" /></clipPath></defs><g
     clip-path="url(#clipId0)"
     id="g9"
     style="fill:none;stroke:#000000;stroke-width:0.1"
     transform="translate(-204.759,-169.464)" /><g
     clip-path="url(#clipId0)"
     id="g11"
     style="fill:none;stroke:#191816;stroke-width:0.25"
     transform="translate(-204.759,-169.464)"><polyline
       points="329.4,350.4 328.278,353.107 325.571,354.228 322.865,353.107 321.743,350.4 322.865,347.693 325.571,346.573 328.278,347.693 329.4,350.4 "
       id="polyline13" /><polyline
       points="329.409,425.112 328.288,427.819 325.581,428.94 322.875,427.819 321.754,425.112 322.875,422.405 325.581,421.285 328.288,422.405 329.409,425.112 "
       id="polyline15" /><polyline
       points="212.539,425.087 211.418,427.793 208.711,428.914 206.005,427.793 204.884,425.087 206.005,422.379 208.711,421.258 211.418,422.379 212.539,425.087 "
       id="polyline17" /><polyline
       points="212.539,350.389 211.418,353.096 208.711,354.217 206.005,353.096 204.884,350.389 206.005,347.682 208.711,346.56 211.418,347.682 212.539,350.389 "
       id="polyline19" /><polyline
       points="455.156,169.589 411.105,169.589 "
       id="polyline21" /></g><g
     clip-path="url(#clipId0)"
     id="g23"
     style="fill:none;stroke:#ffffff;stroke-width:0.25"
     transform="translate(-204.759,-169.464)"><polyline
       points="306.991,307.395 306.999,308.289 307.022,310.647 307.091,317.801 307.16,324.955 307.183,327.313 307.191,328.207 307.22,329.674 307.568,332.933 308.631,336.272 310.805,337.977 "
       id="polyline25" /><polyline
       points="306.991,307.395 306.846,299.59 316.425,298.05 318.835,337.129 "
       id="polyline27" /><polyline
       points="316.826,306.329 316.826,306.329 "
       id="polyline29" /><polyline
       points="340.365,338.784 338.808,338.547 334.742,338.013 322.72,337.121 316.583,337.293 311.917,337.995 309.024,338.84 307.364,339.978 306.03,343.842 305.69,346.052 305.437,349.525 304.988,355.904 304.469,363.732 304.004,371.553 303.717,377.912 303.548,382.364 303.223,390.044 302.779,400.153 302.254,411.888 301.114,437.039 300.574,448.852 300.104,459.09 299.742,466.952 299.526,471.637 299.484,472.605 299.513,472.671 299.845,473.426 300.178,474.181 300.491,474.27 304.136,474.5 317.389,475.338 323.022,475.694 324.72,475.801 325.341,475.84 326.385,474.771 328.703,472.161 331.162,468.253 332.441,463.504 333.713,456.799 335.817,440.171 336.788,422.649 336.961,406.202 336.956,399.931 336.999,395.837 337.248,392.23 337.719,387.398 338.809,376.583 339.249,367.678 338.817,356.554 338.52,351.199 338.314,347.169 338.398,343.677 338.995,340.73 340.365,338.784 "
       id="polyline31" /><polyline
       points="340.365,338.784 341.028,338.658 342.893,338.315 349.495,337.176 358.7,335.765 369.038,334.481 379.035,333.723 381.309,333.662 382.249,333.656 385.195,333.656 391.047,333.656 399.079,333.656 418.774,333.656 438.468,333.656 446.5,333.656 452.352,333.656 455.298,333.656 456.238,333.662 458.512,333.723 468.51,334.481 478.848,335.765 488.054,337.176 494.657,338.315 496.522,338.658 497.185,338.784 "
       id="polyline33" /><polyline
       points="338.944,293.592 316.425,298.05 "
       id="polyline35" /><polyline
       points="330.357,470.004 330.308,470.62 330.181,472.244 329.793,477.171 329.406,482.098 329.278,483.721 329.23,484.337 328.623,484.779 327.181,485.151 324.375,485.463 318.509,485.472 310.337,485.18 303.076,484.828 300.792,484.705 299.942,484.658 299.983,483.032 300.075,479.455 300.167,475.878 300.209,474.252 "
       id="polyline37" /><polyline
       points="304.255,484.945 304.234,486.519 304.795,489.679 306.874,492.077 308.775,492.257 311.407,491.367 "
       id="polyline39" /><polyline
       points="310.797,485.179 310.803,486.767 311.391,490.26 313.415,493.754 317.726,495.342 322.073,493.814 324.173,490.453 324.838,487.092 324.879,485.565 "
       id="polyline41" /><polyline
       points="518.716,337.129 521.126,298.05 "
       id="polyline43" /><polyline
       points="497.185,338.784 498.742,338.547 502.808,338.013 514.831,337.121 520.969,337.293 525.634,337.995 528.527,338.84 530.187,339.978 531.521,343.842 531.861,346.052 532.114,349.525 532.563,355.904 533.082,363.732 533.547,371.553 533.834,377.912 534.003,382.364 534.329,390.044 534.773,400.153 535.297,411.888 536.438,437.039 536.978,448.852 537.448,459.09 537.81,466.952 538.026,471.637 538.069,472.605 538.04,472.671 537.708,473.426 537.376,474.181 537.063,474.27 533.418,474.5 520.163,475.338 514.529,475.694 512.831,475.801 512.21,475.84 511.167,474.771 508.848,472.161 506.389,468.253 505.11,463.504 503.838,456.799 501.733,440.171 500.763,422.649 500.59,406.202 500.594,399.931 500.552,395.837 500.303,392.23 499.831,387.398 498.741,376.583 498.301,367.678 498.734,356.554 499.03,351.199 499.236,347.169 499.152,343.677 498.555,340.73 497.185,338.784 "
       id="polyline45" /><polyline
       points="498.607,293.592 521.126,298.05 "
       id="polyline47" /><polyline
       points="510.445,295.84 510.548,294.346 510.022,291.239 507.618,288.581 503.536,288.571 500.42,291.017 498.766,293.311 498.364,293.548 495.711,293.104 490.349,292.285 482.544,291.221 472.561,290.043 460.663,288.883 447.117,287.872 432.188,287.14 416.139,286.818 381.744,287.928 346.052,292.25 341.604,293.068 339.387,293.503 338.943,293.59 338.921,293.55 338.785,293.311 337.131,291.017 334.015,288.571 329.933,288.581 327.528,291.239 327.003,294.346 327.105,295.84 "
       id="polyline49" /><polyline
       points="507.195,470.004 507.243,470.62 507.37,472.244 507.757,477.171 508.144,482.098 508.272,483.721 508.32,484.337 508.927,484.779 510.369,485.151 513.177,485.463 519.043,485.472 527.214,485.18 534.475,484.828 536.759,484.705 537.61,484.658 537.568,483.032 537.477,479.455 537.386,475.878 537.345,474.252 "
       id="polyline51" /><polyline
       points="533.297,484.945 533.318,486.519 532.757,489.679 530.678,492.077 528.776,492.257 526.144,491.367 "
       id="polyline53" /><polyline
       points="526.754,485.179 526.748,486.767 526.16,490.26 524.137,493.754 519.825,495.342 515.477,493.814 513.377,490.453 512.712,487.092 512.671,485.565 "
       id="polyline55" /><polyline
       points="508.32,484.337 507.919,486.311 506.993,488.492 505.206,491.217 502.276,494.295 497.919,497.536 491.854,500.749 483.796,503.745 473.463,506.333 460.573,508.323 453.08,509.035 451.091,509.179 450.407,509.224 450.237,509.224 447.699,509.224 442.658,509.224 435.739,509.224 418.774,509.224 401.808,509.224 394.889,509.224 389.848,509.224 387.31,509.224 387.14,509.224 386.456,509.179 384.467,509.035 376.975,508.323 364.085,506.333 353.753,503.745 345.695,500.749 339.63,497.536 335.274,494.295 332.344,491.217 330.557,488.492 329.631,486.311 329.23,484.337 "
       id="polyline57" /><polyline
       points="521.083,298.05 521.083,298.05 "
       id="polyline59" /><polyline
       points="306.991,307.395 307.191,328.207 "
       id="polyline61" /><polyline
       points="306.991,307.395 306.846,299.59 316.425,298.05 "
       id="polyline63" /><polyline
       points="530.513,307.395 530.504,308.289 530.481,310.647 530.412,317.801 530.343,324.955 530.32,327.313 530.311,328.207 530.283,329.674 529.935,332.933 528.872,336.272 526.697,337.977 "
       id="polyline65" /><polyline
       points="530.513,307.395 530.311,328.207 "
       id="polyline67" /><polyline
       points="530.513,307.395 530.658,299.59 521.076,298.05 "
       id="polyline69" /></g></svg>