<?xml version="1.0" encoding="UTF-8" standalone="no"?>
<svg
   xmlns:dc="http://purl.org/dc/elements/1.1/"
   xmlns:cc="http://creativecommons.org/ns#"
   xmlns:rdf="http://www.w3.org/1999/02/22-rdf-syntax-ns#"
   xmlns:svg="http://www.w3.org/2000/svg"
   xmlns="http://www.w3.org/2000/svg"
   xmlns:sodipodi="http://sodipodi.sourceforge.net/DTD/sodipodi-0.dtd"
   xmlns:inkscape="http://www.inkscape.org/namespaces/inkscape"
   viewBox="0 0 312.686 264.429"
   version="1.1"
   xml:space="preserve"
   id="svg2"
   inkscape:version="0.48.5 r10040"
   width="100%"
   height="100%"
   sodipodi:docname="CH20.svg"
   style="fill-rule:evenodd;stroke-linecap:round;stroke-linejoin:round"><metadata
     id="metadata45"><rdf:RDF><cc:Work
         rdf:about=""><dc:format>image/svg+xml</dc:format><dc:type
           rdf:resource="http://purl.org/dc/dcmitype/StillImage" /></cc:Work></rdf:RDF></metadata><sodipodi:namedview
     pagecolor="#ffffff"
     bordercolor="#666666"
     borderopacity="1"
     objecttolerance="10"
     gridtolerance="10"
     guidetolerance="10"
     inkscape:pageopacity="0"
     inkscape:pageshadow="2"
     inkscape:window-width="640"
     inkscape:window-height="480"
     id="namedview43"
     showgrid="false"
     fit-margin-top="0"
     fit-margin-left="0"
     fit-margin-right="0"
     fit-margin-bottom="0"
     inkscape:zoom="0.39333333"
     inkscape:cx="176.604"
     inkscape:cy="129.588"
     inkscape:window-x="0"
     inkscape:window-y="27"
     inkscape:window-maximized="0"
     inkscape:current-layer="svg2" /><defs
     id="defs4"><clipPath
       id="clipId0"><path
         d="M 0,600 800,600 800,0 0,0 z"
         id="path7"
         inkscape:connector-curvature="0" /></clipPath></defs><g
     clip-path="url(#clipId0)"
     id="g9"
     style="fill:none;stroke:#000000;stroke-width:0.1"
     transform="translate(-223.396,-165.159)" /><g
     clip-path="url(#clipId0)"
     id="g11"
     style="fill:none;stroke:#000000;stroke-width:0.25"
     transform="translate(-223.396,-165.159)"><polyline
       points="389.196,165.538 387.811,165.435 383.828,165.284 377.504,165.33 369.094,165.813 358.857,166.976 347.049,169.061 333.927,172.31 319.748,176.964 304.768,183.267 289.244,191.46 273.434,201.784 257.594,214.483 241.98,229.798 226.851,247.971 223.58,252.422 223.579,252.426 223.569,252.449 223.532,252.565 223.521,253.932 224.713,256.763 228.414,261.074 230.118,262.622 236.635,266.575 238.177,266.574 238.717,266.244 240.214,264.164 243.446,259.918 248.34,253.889 254.824,246.459 262.827,238.011 272.275,228.925 283.098,219.586 295.223,210.374 308.578,201.672 323.091,193.862 338.691,187.326 355.304,182.448 372.859,179.607 381.967,179.071 386.6,179.045 388.936,179.095 389.21,179.103 390.504,179.108 393.777,179.263 398.837,179.756 405.494,180.775 413.559,182.512 422.839,185.154 433.146,188.892 444.288,193.914 456.076,200.41 468.318,208.568 480.825,218.579 493.406,230.631 505.87,244.914 518.028,261.617 519.352,263.63 519.352,263.631 519.354,263.635 519.364,263.654 520.66,264.888 522.182,265.148 524.018,264.373 528.662,261.418 533.687,256.952 535.27,254.457 535.702,252.496 535.957,252.024 535.631,249.207 534.964,248.269 533.867,246.634 531.265,243.004 527.176,237.714 521.618,231.097 514.609,223.488 506.167,215.221 496.31,206.631 485.055,198.053 472.422,189.819 458.427,182.266 443.089,175.727 426.426,170.536 408.456,167.029 389.196,165.538 "
       id="polyline13" /><polyline
       points="382.922,200.616 381.479,200.59 377.394,200.653 371.036,201.011 362.77,201.875 352.966,203.453 341.989,205.952 330.208,209.582 317.99,214.552 305.702,221.069 293.712,229.343 282.387,239.582 272.094,251.995 263.201,266.789 256.075,284.175 251.084,304.36 249.503,315.567 248.594,327.552 248.417,328.64 248.073,331.713 247.843,336.487 248.006,342.675 248.845,349.992 250.64,358.154 253.671,366.875 258.22,375.869 264.567,384.851 272.993,393.537 283.778,401.639 297.203,408.875 313.549,414.957 333.098,419.601 344.16,421.294 356.128,422.521 369.037,423.245 382.922,423.432 "
       id="polyline15" /><polyline
       points="379.724,200.616 381.125,200.59 385.09,200.653 391.263,201.011 399.288,201.875 408.806,203.453 419.462,205.952 430.9,209.582 442.761,214.552 454.691,221.069 466.331,229.343 477.326,239.582 487.318,251.995 495.952,266.789 502.87,284.175 507.715,304.36 509.25,315.567 510.132,327.552 510.304,328.64 510.638,331.713 510.862,336.487 510.703,342.675 509.888,349.992 508.146,358.154 505.203,366.875 500.787,375.869 494.625,384.851 486.446,393.537 475.975,401.639 462.941,408.875 447.072,414.957 428.094,419.601 405.736,422.521 393.203,423.245 379.724,423.432 "
       id="polyline17" /><polyline
       points="268.474,204.995 267.799,204.078 265.928,201.71 259.538,194.915 251.181,189.199 246.851,188.18 242.734,189.152 241.423,190.19 240.498,191.786 240.025,194.369 240.481,198.137 242.34,203.291 246.076,210.031 252.166,218.558 "
       id="polyline19" /><polyline
       points="268.637,232.93 269.85,234.474 272.615,237.988 275.619,241.795 277.549,244.217 "
       id="polyline21" /><polyline
       points="280.586,222.273 281.744,223.734 284.377,227.054 287.226,230.64 289.031,232.899 "
       id="polyline23" /><polyline
       points="262.824,382.132 261.708,383.678 259.16,387.169 256.386,390.887 254.588,393.113 "
       id="polyline25" /><polyline
       points="274.934,395.21 273.893,396.486 271.513,399.42 268.906,402.672 267.184,404.902 "
       id="polyline27" /><polyline
       points="248.533,396.906 249.144,396.204 250.87,394.716 253.548,393.365 257.014,393.075 261.107,394.771 262.209,395.613 262.605,395.953 262.916,396.193 264.281,397.489 265.942,399.784 267.068,402.973 266.824,406.951 265.928,409.202 265.326,410.151 263.202,412.268 255.175,420.22 251.416,423.883 249.26,425.89 247.838,426.827 244.15,427.662 241.729,427.116 240.578,426.505 237.936,423.712 236.861,421.166 236.861,417.922 237.477,416.055 237.898,415.196 239.257,412.588 244.462,403.006 246.973,398.823 248.533,396.906 "
       id="polyline29" /><polyline
       points="491.711,204.011 492.387,203.094 494.258,200.726 500.648,193.93 509.005,188.215 513.334,187.196 517.452,188.168 518.762,189.205 519.688,190.802 520.16,193.385 519.705,197.153 517.846,202.307 514.109,209.047 508.02,217.573 "
       id="polyline31" /><polyline
       points="493.57,230.931 493.128,231.44 491.947,232.8 488.249,237.054 484.231,241.662 481.65,244.593 "
       id="polyline33" /><polyline
       points="481.268,219.613 480.872,220.103 479.818,221.411 476.527,225.487 472.982,229.865 470.771,232.57 "
       id="polyline35" /><polyline
       points="493.264,385.652 494.221,386.913 496.405,389.763 498.784,392.797 500.325,394.615 "
       id="polyline37" /><polyline
       points="483.09,397.012 484.131,398.287 486.511,401.222 489.119,404.474 490.84,406.703 "
       id="polyline39" /><polyline
       points="509.491,398.707 508.88,398.005 507.154,396.517 504.476,395.166 501.01,394.876 496.917,396.572 495.815,397.414 495.42,397.757 495.122,398.034 493.809,399.485 492.204,401.948 491.1,405.203 491.294,409.03 492.125,411.088 493.13,412.383 494.801,414.057 500.003,419.295 503.334,422.662 505.46,424.773 508.765,427.691 510.187,428.628 513.874,429.463 516.295,428.917 517.446,428.306 520.088,425.513 521.163,422.968 521.163,419.723 520.547,417.856 520.126,416.997 518.767,414.389 513.562,404.807 511.051,400.624 509.491,398.707 "
       id="polyline41" /></g></svg>