<?xml version="1.0" standalone="no"?>
<svg viewBox="0 0 800 800" version="1.1" xmlns="http://www.w3.org/2000/svg" xmlns:xlink="http://www.w3.org/1999/xlink" stroke-linecap="round" stroke-linejoin="round" fill-rule="evenodd" xml:space="preserve" >
<defs >
<clipPath id="clipId0" >
<path d="M0,800 800,800 800,0 0,0 z" />
</clipPath>
</defs>
<g stroke-width="0.1" clip-path="url(#clipId0)" fill="none" stroke="rgb(0,0,0)" />
<g stroke-width="0.25" clip-path="url(#clipId0)" fill="none" stroke="rgb(0,0,0)" >
<polyline points="428.594,238.031 434.855,237.846 443.237,237.755 451.524,237.663 459.906,237.57 468.287,237.48 476.757,237.386 485.139,237.386 493.613,237.294 501.991,237.294 510.464,237.294 518.844,237.386 527.225,237.386 535.697,237.48 544.079,237.57 552.458,237.663 560.748,237.755 569.127,237.846 575.39,238.031 " />
<polyline points="587.639,312.534 587.729,311.244 587.823,299.915 588.005,288.59 588.005,285.273 " />
<polyline points="416.069,285.273 416.069,288.59 416.162,299.915 416.346,311.244 416.346,312.534 " />
<polyline points="548.408,246.412 548.408,245.858 548.498,245.398 548.498,244.938 548.591,244.663 548.683,244.571 " />
<polyline points="566.141,257.953 561.484,248.897 560.011,246.228 559.273,244.938 " />
<polyline points="548.408,246.412 548.038,252.121 " />
<polyline points="609.556,223.665 609.648,223.665 610.661,223.39 611.675,223.296 " />
<polyline points="611.675,223.296 612.596,223.39 613.61,223.756 614.529,224.216 615.265,224.769 616.001,225.599 616.463,226.428 616.831,227.348 617.015,228.36 617.015,229.373 616.831,230.387 616.463,231.308 616.001,232.136 615.265,232.874 615.173,232.966 " />
<polyline points="616.74,447.265 617.108,447.634 617.844,448.37 618.304,449.2 618.674,450.119 618.858,451.133 618.858,452.146 618.674,453.162 618.304,454.081 617.844,454.909 617.108,455.647 616.371,456.291 615.451,456.751 614.529,457.026 613.516,457.12 612.502,457.12 611.767,456.844 " />
<polyline points="358.697,321.744 358.697,321.56 358.88,321.1 359.157,320.454 359.524,319.717 359.985,318.887 360.629,317.967 361.459,316.678 362.472,315.297 363.484,313.917 365.603,311.244 367.812,308.574 370.207,305.903 372.969,302.866 375.916,299.827 378.865,296.785 381.994,293.84 385.216,290.985 389.73,287.023 394.704,282.971 399.493,279.38 404.465,275.973 409.438,272.657 414.595,269.528 419.938,266.579 427.489,262.713 435.317,259.306 443.328,256.174 451.433,253.411 459.629,251.11 465.523,249.727 471.416,248.531 477.31,247.517 483.297,246.778 486.428,246.412 489.559,246.228 492.599,246.042 495.728,245.858 498.861,245.766 501.991,245.766 " />
<polyline points="645.288,321.744 645.288,321.56 645.104,321.1 644.829,320.454 644.459,319.717 643.999,318.887 643.355,317.967 642.526,316.678 641.512,315.297 640.5,313.917 638.105,310.876 635.619,307.93 632.948,304.981 630.277,302.036 627.514,299.181 624.751,296.419 621.806,293.656 618.764,290.985 614.805,287.484 610.661,284.078 606.427,280.855 602.189,277.724 597.767,274.776 593.256,271.918 588.743,269.158 584.046,266.579 577.785,263.357 571.338,260.408 564.705,257.647 557.984,255.16 551.169,253.041 544.355,251.11 538.462,249.727 532.566,248.531 526.673,247.517 520.687,246.778 516.911,246.412 513.227,246.134 509.452,245.952 505.768,245.766 501.991,245.766 " />
<polyline points="457.326,260.686 457.234,260.502 456.958,260.408 456.497,260.318 455.854,260.318 455.117,260.318 454.288,260.408 453.368,260.594 452.446,260.868 451.524,261.146 450.603,261.514 449.774,261.881 449.129,262.159 448.576,262.527 448.116,262.897 447.841,263.171 447.749,263.449 447.934,263.633 448.209,263.817 448.671,263.91 449.222,263.817 449.959,263.817 450.788,263.633 451.709,263.449 452.63,263.171 453.55,262.897 454.473,262.621 455.302,262.251 455.945,261.975 456.59,261.607 456.958,261.33 457.234,260.962 457.326,260.778 " />
<polyline points="556.142,263.541 556.234,263.449 556.05,263.171 555.774,262.805 555.315,262.527 554.761,262.159 554.025,261.791 553.197,261.422 552.274,261.054 551.353,260.778 550.433,260.594 549.511,260.408 548.774,260.318 548.038,260.318 547.394,260.318 547.024,260.408 546.748,260.594 546.656,260.778 546.748,261.054 547.118,261.33 547.578,261.698 548.13,261.975 548.867,262.343 549.697,262.713 550.617,262.989 551.538,263.265 552.458,263.541 553.378,263.725 554.207,263.817 554.853,263.91 555.497,263.817 555.866,263.817 556.142,263.633 " />
<polyline points="501.991,250.832 496.098,250.924 490.204,251.2 484.311,251.754 478.415,252.489 472.521,253.501 466.719,254.699 460.826,256.082 454.196,257.923 447.565,260.042 441.12,262.435 434.672,265.106 428.411,267.961 422.24,271.093 417.082,273.946 412.11,276.987 407.229,280.209 402.44,283.616 397.836,287.117 392.954,291.077 388.533,294.851 385.863,297.246 383.377,299.549 380.982,301.942 378.495,304.431 376.193,306.916 373.891,309.403 372.142,311.428 370.574,313.27 369.01,315.297 367.443,317.232 366.431,318.611 365.509,319.901 364.591,321.19 364.036,322.112 363.576,322.849 363.207,323.585 362.932,324.229 362.839,324.691 362.839,325.058 363.024,325.058 363.207,325.058 363.391,324.874 363.851,324.599 364.496,324.045 365.141,323.493 365.878,322.849 367.628,321.1 369.378,319.257 371.404,317.232 373.339,315.387 375.273,313.639 377.298,311.704 379.877,309.495 382.364,307.376 384.849,305.349 387.428,303.232 392.032,299.827 396.728,296.602 401.61,293.38 406.676,290.339 411.833,287.484 416.899,284.814 421.871,282.419 428.134,279.656 434.487,277.079 440.935,274.776 447.382,272.749 454.013,270.908 460.826,269.25 468.746,267.685 477.035,266.489 485.323,265.566 493.613,265.014 501.991,264.83 " />
<polyline points="501.991,264.83 508.992,264.922 515.898,265.29 522.713,265.936 529.712,266.855 536.527,267.961 543.158,269.25 550.063,270.908 556.696,272.749 563.049,274.776 569.498,277.079 575.85,279.656 582.111,282.419 587.915,285.183 593.899,288.406 599.981,291.905 605.687,295.497 611.215,299.273 616.555,303.232 620.423,306.364 624.198,309.585 627.974,312.903 631.474,316.124 633.224,317.875 634.883,319.533 636.54,321.284 638.105,322.849 638.841,323.493 639.487,324.045 640.132,324.599 640.591,324.874 640.96,325.058 641.144,325.058 641.144,324.691 641.052,324.229 640.776,323.585 640.407,322.849 639.947,322.112 639.395,321.19 638.475,319.901 637.552,318.611 636.54,317.232 634.237,314.283 631.842,311.428 629.267,308.482 626.592,305.627 623.922,302.866 621.253,300.193 618.4,297.524 615.451,294.851 611.581,291.445 607.532,288.222 603.478,284.998 599.334,281.959 595.006,279.104 590.676,276.247 586.256,273.58 581.744,271.093 574.377,267.315 566.826,264 558.995,260.962 551.078,258.293 543.158,256.082 537.448,254.699 531.739,253.501 525.937,252.581 520.135,251.845 516.449,251.476 512.951,251.2 509.268,250.924 505.674,250.832 501.991,250.832 " />
<polyline points="560.101,271.459 560.195,271.277 560.101,271 559.735,270.724 559.365,270.356 558.721,269.988 557.984,269.618 557.156,269.25 556.326,268.881 555.407,268.605 554.485,268.329 553.563,268.146 552.737,268.053 551.998,267.961 551.446,268.053 551.078,268.146 550.799,268.237 550.709,268.514 550.799,268.698 551.078,269.064 551.538,269.342 552.182,269.71 552.918,270.08 553.747,270.448 554.577,270.724 555.59,271.093 556.418,271.277 557.34,271.553 558.168,271.643 558.813,271.737 559.461,271.737 559.827,271.643 560.101,271.553 " />
<polyline points="453.275,268.329 453.183,268.237 452.905,268.053 452.446,267.961 451.801,267.961 451.063,268.053 450.235,268.237 449.406,268.421 448.486,268.698 447.565,268.974 446.644,269.342 445.814,269.71 445.17,270.08 444.525,270.448 444.158,270.817 443.882,271.093 443.79,271.367 443.972,271.553 444.25,271.643 444.71,271.737 445.263,271.737 445.999,271.643 446.827,271.459 447.657,271.277 448.576,271 449.589,270.724 450.418,270.356 451.248,269.988 451.986,269.618 452.538,269.342 452.998,268.974 453.183,268.698 453.275,268.421 " />
<polyline points="455.577,246.412 455.577,245.858 455.485,245.398 455.485,244.938 455.392,244.663 455.302,244.571 " />
<polyline points="437.942,257.925 442.501,248.897 443.972,246.228 444.71,244.938 444.895,244.663 444.985,244.663 " />
<polyline points="455.577,246.412 455.945,252.121 " />
<polyline points="394.427,223.665 394.334,223.665 393.322,223.39 392.309,223.296 " />
<polyline points="392.309,223.296 391.388,223.39 390.375,223.756 389.545,224.216 388.716,224.769 388.073,225.599 387.52,226.428 387.153,227.348 386.968,228.36 386.968,229.373 387.153,230.387 387.52,231.308 388.073,232.136 388.716,232.874 388.81,232.966 " />
<polyline points="387.243,447.265 386.875,447.634 386.139,448.37 385.679,449.2 385.311,450.119 385.126,451.133 385.126,452.146 385.311,453.162 385.679,454.081 386.139,454.909 386.875,455.647 387.613,456.291 388.533,456.751 389.455,457.026 390.468,457.12 391.48,457.12 392.217,456.844 " />
<polyline points="587.729,256.909 587.639,257.003 " />
<polyline points="528.33,247.791 533.304,247.885 541.315,247.977 548.314,247.977 " />
<polyline points="455.669,247.977 461.471,247.977 469.482,247.885 475.653,247.791 " />
<polyline points="559.461,245.214 559.181,244.846 558.631,244.109 557.892,243.463 556.97,242.819 555.866,242.36 554.667,242.084 553.563,242.084 552.368,242.174 550.893,242.727 550.063,243.187 549.235,243.925 548.774,244.571 " />
<polyline points="609.556,223.665 579.258,235.82 577.785,236.556 572.074,239.965 569.864,241.624 561.946,249.818 " />
<polyline points="573.549,261.422 580.546,259.396 583.033,258.383 588.743,254.974 590.034,253.961 615.173,232.966 " />
<polyline points="616.74,447.265 607.346,440.358 " />
<polyline points="595.837,451.595 611.767,456.844 " />
<polyline points="358.697,321.744 359.247,323.125 360.262,324.139 361.459,324.874 362.932,325.058 " />
<polyline points="641.052,325.058 642.526,324.874 643.723,324.139 644.735,323.125 645.288,321.744 " />
<polyline points="455.302,244.571 455.117,244.293 453.92,243.187 452.813,242.544 451.618,242.174 450.418,241.99 449.222,242.084 448.116,242.36 447.105,242.727 446.275,243.279 445.539,243.833 444.985,244.571 444.525,245.214 444.525,245.306 " />
<polyline points="388.81,232.966 413.952,253.961 415.241,254.974 420.95,258.383 423.437,259.396 430.436,261.422 " />
<polyline points="442.038,249.818 434.119,241.624 432,239.965 426.2,236.556 424.724,235.82 394.427,223.665 " />
<polyline points="392.217,456.844 408.148,451.685 " />
<polyline points="396.638,440.358 387.243,447.265 " />
<polyline points="587.729,256.909 587.729,255.528 " />
<polyline points="588.005,268.698 588.005,267.869 587.915,263.817 587.823,259.58 587.729,256.909 " />
<polyline points="587.729,312.626 587.823,307.01 587.915,299.733 588.005,293.01 588.005,287.392 588.005,285.273 " />
<polyline points="574.009,278.92 574.009,279.932 574.102,286.749 574.102,293.01 574.193,299.733 574.193,301.389 " />
<polyline points="573.733,261.33 573.733,261.514 " />
<polyline points="416.254,255.528 416.254,256.909 " />
<polyline points="415.977,285.273 415.977,288.222 415.977,293.93 416.069,300.101 416.162,307.376 416.254,312.626 " />
<polyline points="416.254,256.909 416.162,260.408 416.069,264.46 415.977,268.605 415.977,268.698 " />
<polyline points="430.251,261.514 430.251,261.33 " />
<polyline points="429.791,301.389 429.791,300.929 429.791,295.497 429.883,289.326 429.976,282.788 429.976,278.92 " />
<polyline points="501.991,280.116 497.847,280.209 493.795,280.301 489.835,280.579 486.152,280.855 482.561,281.223 479.153,281.683 475.93,282.235 472.891,282.788 468.562,283.708 464.602,284.814 461.103,285.827 457.972,286.839 455.025,287.946 452.538,288.958 450.603,289.787 449.129,290.431 447.934,290.985 446.827,291.445 445.724,291.997 444.435,292.642 442.868,293.47 440.381,294.759 437.344,296.509 433.842,298.72 430.343,301.023 426.659,303.692 423.252,306.364 420.12,309.035 417.358,311.616 414.78,314.007 411.373,317.6 408.608,320.73 406.216,323.585 403.914,326.624 401.427,330.122 398.848,333.991 396.268,338.319 393.782,342.925 391.48,347.989 389.27,353.33 387.336,358.766 385.771,364.106 384.481,369.539 383.469,374.881 382.454,382.34 381.994,389.707 382.086,396.984 382.732,404.257 383.929,411.81 385.034,416.506 386.414,421.11 388.166,425.808 390.283,430.412 392.77,434.834 395.624,439.068 398.663,442.846 401.795,446.161 405.11,449.293 408.333,451.87 411.28,453.988 413.859,455.647 415.149,456.383 416.529,457.212 418.279,458.226 420.305,459.237 422.79,460.435 425.554,461.631 429.238,463.106 433.383,464.487 437.987,465.869 443.145,467.158 448.762,468.447 454.932,469.553 462.393,470.657 470.497,471.58 479.153,472.222 482.744,472.316 486.428,472.5 490.204,472.592 494.073,472.682 498.031,472.776 501.991,472.776 " />
<polyline points="501.991,472.776 506.596,472.776 511.201,472.682 515.622,472.592 519.858,472.406 524.002,472.222 527.962,471.946 533.856,471.486 539.288,470.933 544.445,470.289 550.709,469.277 556.234,468.171 561.114,467.158 565.259,466.052 568.207,465.223 570.786,464.487 573.089,463.659 575.482,462.83 578.059,461.816 580.638,460.711 584.968,458.592 589.48,456.015 594.176,452.976 598.137,449.843 601.911,446.437 605.319,442.846 608.542,438.886 611.307,434.742 613.795,430.322 615.819,425.808 617.57,421.11 619.41,414.756 620.699,408.219 621.62,401.68 621.988,395.142 621.988,388.511 621.528,381.97 620.699,375.433 619.41,368.988 617.938,362.908 616.185,357.291 614.254,352.133 612.319,347.437 610.755,344.122 609.278,341.174 607.714,338.319 605.873,335.19 603.756,331.874 601.269,328.189 598.322,324.229 594.912,320.086 591.413,316.308 587.455,312.35 583.311,308.574 579.258,305.167 575.204,302.128 572.626,300.377 570.14,298.72 567.655,297.154 565.259,295.681 562.957,294.392 560.93,293.38 559.919,292.826 558.995,292.366 558.352,292.09 557.984,291.814 557.524,291.63 556.418,291.077 554.761,290.339 552.458,289.326 549.511,288.13 546.381,287.023 542.696,285.733 538.462,284.538 533.672,283.34 528.33,282.235 525.475,281.775 522.529,281.407 519.398,281.039 516.175,280.669 512.767,280.485 509.268,280.301 505.584,280.116 501.991,280.116 " />
</g>
</svg>
