<?xml version="1.0" encoding="UTF-8" standalone="no"?>
<svg
   xmlns:dc="http://purl.org/dc/elements/1.1/"
   xmlns:cc="http://creativecommons.org/ns#"
   xmlns:rdf="http://www.w3.org/1999/02/22-rdf-syntax-ns#"
   xmlns:svg="http://www.w3.org/2000/svg"
   xmlns="http://www.w3.org/2000/svg"
   xmlns:sodipodi="http://sodipodi.sourceforge.net/DTD/sodipodi-0.dtd"
   xmlns:inkscape="http://www.inkscape.org/namespaces/inkscape"
   viewBox="0 0 270.31446 248.75196"
   version="1.1"
   xml:space="preserve"
   id="svg2"
   inkscape:version="0.48.5 r10040"
   width="100%"
   height="100%"
   sodipodi:docname="ch36-Model.svg"
   style="fill-rule:evenodd;stroke-linecap:round;stroke-linejoin:round"><metadata
     id="metadata261"><rdf:RDF><cc:Work
         rdf:about=""><dc:format>image/svg+xml</dc:format><dc:type
           rdf:resource="http://purl.org/dc/dcmitype/StillImage" /></cc:Work></rdf:RDF></metadata><sodipodi:namedview
     pagecolor="#ffffff"
     bordercolor="#666666"
     borderopacity="1"
     objecttolerance="10"
     gridtolerance="10"
     guidetolerance="10"
     inkscape:pageopacity="0"
     inkscape:pageshadow="2"
     inkscape:window-width="640"
     inkscape:window-height="480"
     id="namedview259"
     showgrid="false"
     fit-margin-top="0"
     fit-margin-left="0"
     fit-margin-right="0"
     fit-margin-bottom="0"
     inkscape:zoom="0.295"
     inkscape:cx="137.03223"
     inkscape:cy="122.81348"
     inkscape:window-x="0"
     inkscape:window-y="27"
     inkscape:window-maximized="0"
     inkscape:current-layer="svg2" /><defs
     id="defs4"><clipPath
       id="clipId0"><path
         d="M 0,800 800,800 800,0 0,0 z"
         id="path7"
         inkscape:connector-curvature="0" /></clipPath></defs><g
     clip-path="url(#clipId0)"
     id="g9"
     style="fill:none;stroke:#000000;stroke-width:0.1"
     transform="translate(-262.96777,-274.06152)" /><g
     clip-path="url(#clipId0)"
     id="g11"
     style="fill:none;stroke:#000000;stroke-width:0.25"
     transform="translate(-262.96777,-274.06152)"><polyline
       points="304.925,317.544 304.925,332.503 "
       id="polyline13" /><polyline
       points="311.315,316.018 311.315,339.22 "
       id="polyline15" /><polyline
       points="317.703,314.492 317.703,345.325 "
       id="polyline17" /><polyline
       points="324.093,312.661 324.093,351.736 "
       id="polyline19" /><polyline
       points="330.481,311.133 330.481,358.147 "
       id="polyline21" /><polyline
       points="394.373,412.488 394.373,308.691 "
       id="polyline23" /><polyline
       points="387.983,309.607 387.983,411.572 "
       id="polyline25" /><polyline
       points="381.595,308.997 381.595,406.381 "
       id="polyline27" /><polyline
       points="375.205,309.301 375.205,401.498 "
       id="polyline29" /><polyline
       points="368.817,309.607 368.817,396.307 "
       id="polyline31" /><polyline
       points="362.427,309.607 362.427,389.592 "
       id="polyline33" /><polyline
       points="336.871,310.915 336.871,364.558 "
       id="polyline35" /><polyline
       points="343.26,310.804 343.26,370.359 "
       id="polyline37" /><polyline
       points="349.649,310.609 349.649,376.244 "
       id="polyline39" /><polyline
       points="356.039,309.999 356.039,382.961 "
       id="polyline41" /><polyline
       points="304.925,517.457 304.925,500.104 "
       id="polyline43" /><polyline
       points="298.514,517.457 298.514,501.63 "
       id="polyline45" /><polyline
       points="291.798,517.457 291.798,502.242 "
       id="polyline47" /><polyline
       points="311.315,518.287 311.315,495.085 "
       id="polyline49" /><polyline
       points="317.703,519.117 317.703,488.284 "
       id="polyline51" /><polyline
       points="324.093,519.947 324.093,480.871 "
       id="polyline53" /><polyline
       points="330.481,519.947 330.481,472.933 "
       id="polyline55" /><polyline
       points="394.373,416.15 394.373,519.947 "
       id="polyline57" /><polyline
       points="387.983,519.947 387.983,416.762 "
       id="polyline59" /><polyline
       points="381.595,519.947 381.595,422.563 "
       id="polyline61" /><polyline
       points="375.205,519.947 375.205,427.75 "
       id="polyline63" /><polyline
       points="368.817,519.947 368.817,433.247 "
       id="polyline65" /><polyline
       points="362.427,519.947 362.427,439.962 "
       id="polyline67" /><polyline
       points="336.871,519.947 336.871,466.303 "
       id="polyline69" /><polyline
       points="343.26,519.947 343.26,460.392 "
       id="polyline71" /><polyline
       points="349.649,519.947 349.649,454.312 "
       id="polyline73" /><polyline
       points="356.039,519.947 356.039,446.985 "
       id="polyline75" /><polyline
       points="272.26,495.831 304.925,495.831 "
       id="polyline77" /><polyline
       points="272.26,489.395 312.557,489.395 "
       id="polyline79" /><polyline
       points="271.955,482.96 318.968,482.96 "
       id="polyline81" /><polyline
       points="272.565,476.524 325.99,476.524 "
       id="polyline83" /><polyline
       points="271.955,470.088 331.485,470.088 "
       id="polyline85" /><polyline
       points="272.565,463.654 338.201,463.654 "
       id="polyline87" /><polyline
       points="272.871,457.218 344.612,457.218 "
       id="polyline89" /><polyline
       points="273.176,450.782 351.023,450.782 "
       id="polyline91" /><polyline
       points="273.48,444.348 357.129,444.348 "
       id="polyline93" /><polyline
       points="273.48,437.912 362.929,437.912 "
       id="polyline95" /><polyline
       points="273.48,431.476 368.729,431.476 "
       id="polyline97" /><polyline
       points="273.786,425.042 376.667,425.042 "
       id="polyline99" /><polyline
       points="274.091,418.606 382.162,418.606 "
       id="polyline101" /><polyline
       points="274.702,412.17 381.246,412.17 "
       id="polyline103" /><polyline
       points="275.618,405.734 375.446,405.734 "
       id="polyline105" /><polyline
       points="275.923,399.3 367.508,399.3 "
       id="polyline107" /><polyline
       points="276.839,392.864 361.708,392.864 "
       id="polyline109" /><polyline
       points="277.45,386.428 355.297,386.428 "
       id="polyline111" /><polyline
       points="278.976,379.993 349.496,379.993 "
       id="polyline113" /><polyline
       points="279.891,373.558 342.169,373.558 "
       id="polyline115" /><polyline
       points="280.807,367.122 335.148,367.122 "
       id="polyline117" /><polyline
       points="281.723,360.687 329.347,360.687 "
       id="polyline119" /><polyline
       points="283.25,354.251 322.326,354.251 "
       id="polyline121" /><polyline
       points="283.25,347.815 316.525,347.815 "
       id="polyline123" /><polyline
       points="284.777,341.381 309.81,341.381 "
       id="polyline125" /><polyline
       points="284.471,334.945 303.399,334.945 "
       id="polyline127" /><polyline
       points="301.262,318.766 300.422,322.925 298.132,326.321 294.736,328.61 290.577,329.45 286.418,328.61 283.021,326.321 280.731,322.925 279.891,318.766 280.731,314.607 283.021,311.211 286.418,308.921 290.577,308.081 294.736,308.921 298.132,311.211 300.422,314.607 301.262,318.766 "
       id="polyline129" /><polyline
       points="284.471,512.01 283.631,516.169 281.341,519.565 277.945,521.855 273.785,522.694 269.626,521.855 266.23,519.565 263.94,516.169 263.1,512.01 263.94,507.851 266.23,504.455 269.626,502.165 273.785,501.326 277.945,502.165 281.341,504.455 283.631,507.851 284.471,512.01 "
       id="polyline131" /><polyline
       points="491.323,317.544 491.323,332.503 "
       id="polyline133" /><polyline
       points="484.934,316.018 484.934,339.22 "
       id="polyline135" /><polyline
       points="478.545,314.492 478.545,345.325 "
       id="polyline137" /><polyline
       points="472.156,312.661 472.156,351.736 "
       id="polyline139" /><polyline
       points="465.767,311.133 465.767,358.147 "
       id="polyline141" /><polyline
       points="401.876,412.488 401.876,308.691 "
       id="polyline143" /><polyline
       points="408.265,309.607 408.265,411.572 "
       id="polyline145" /><polyline
       points="414.654,308.997 414.654,406.381 "
       id="polyline147" /><polyline
       points="421.043,309.301 421.043,401.498 "
       id="polyline149" /><polyline
       points="427.432,309.607 427.432,396.307 "
       id="polyline151" /><polyline
       points="433.821,309.607 433.821,389.592 "
       id="polyline153" /><polyline
       points="459.378,310.915 459.378,364.558 "
       id="polyline155" /><polyline
       points="452.989,310.804 452.989,370.359 "
       id="polyline157" /><polyline
       points="446.599,310.609 446.599,376.244 "
       id="polyline159" /><polyline
       points="440.21,309.999 440.21,382.961 "
       id="polyline161" /><polyline
       points="491.323,517.457 491.323,500.104 "
       id="polyline163" /><polyline
       points="497.734,517.457 497.734,501.63 "
       id="polyline165" /><polyline
       points="504.451,517.457 504.451,502.242 "
       id="polyline167" /><polyline
       points="484.934,518.287 484.934,495.085 "
       id="polyline169" /><polyline
       points="478.545,519.117 478.545,488.284 "
       id="polyline171" /><polyline
       points="472.156,519.947 472.156,480.871 "
       id="polyline173" /><polyline
       points="465.767,519.947 465.767,472.933 "
       id="polyline175" /><polyline
       points="401.876,416.15 401.876,519.947 "
       id="polyline177" /><polyline
       points="408.265,519.947 408.265,416.762 "
       id="polyline179" /><polyline
       points="414.654,519.947 414.654,422.563 "
       id="polyline181" /><polyline
       points="421.043,519.947 421.043,427.75 "
       id="polyline183" /><polyline
       points="427.432,519.947 427.432,433.247 "
       id="polyline185" /><polyline
       points="433.821,519.947 433.821,439.962 "
       id="polyline187" /><polyline
       points="459.378,519.947 459.378,466.303 "
       id="polyline189" /><polyline
       points="452.989,519.947 452.989,460.392 "
       id="polyline191" /><polyline
       points="446.599,519.947 446.599,454.312 "
       id="polyline193" /><polyline
       points="440.21,519.947 440.21,446.985 "
       id="polyline195" /><polyline
       points="523.989,495.831 491.323,495.831 "
       id="polyline197" /><polyline
       points="523.989,489.395 483.691,489.395 "
       id="polyline199" /><polyline
       points="524.294,482.96 477.28,482.96 "
       id="polyline201" /><polyline
       points="523.684,476.524 470.259,476.524 "
       id="polyline203" /><polyline
       points="524.294,470.088 464.764,470.088 "
       id="polyline205" /><polyline
       points="523.684,463.654 458.048,463.654 "
       id="polyline207" /><polyline
       points="523.378,457.218 451.637,457.218 "
       id="polyline209" /><polyline
       points="523.073,450.782 445.226,450.782 "
       id="polyline211" /><polyline
       points="522.768,444.348 439.12,444.348 "
       id="polyline213" /><polyline
       points="522.768,437.912 433.32,437.912 "
       id="polyline215" /><polyline
       points="522.768,431.476 427.52,431.476 "
       id="polyline217" /><polyline
       points="522.462,425.042 419.582,425.042 "
       id="polyline219" /><polyline
       points="522.157,418.606 414.087,418.606 "
       id="polyline221" /><polyline
       points="521.546,412.17 415.003,412.17 "
       id="polyline223" /><polyline
       points="520.63,405.734 420.803,405.734 "
       id="polyline225" /><polyline
       points="520.325,399.3 428.74,399.3 "
       id="polyline227" /><polyline
       points="519.41,392.864 434.54,392.864 "
       id="polyline229" /><polyline
       points="518.799,386.428 440.951,386.428 "
       id="polyline231" /><polyline
       points="517.273,379.993 446.752,379.993 "
       id="polyline233" /><polyline
       points="516.357,373.558 454.079,373.558 "
       id="polyline235" /><polyline
       points="515.441,367.122 461.1,367.122 "
       id="polyline237" /><polyline
       points="514.525,360.687 466.901,360.687 "
       id="polyline239" /><polyline
       points="512.999,354.251 473.922,354.251 "
       id="polyline241" /><polyline
       points="512.999,347.815 479.723,347.815 "
       id="polyline243" /><polyline
       points="511.472,341.381 486.439,341.381 "
       id="polyline245" /><polyline
       points="511.778,334.945 492.85,334.945 "
       id="polyline247" /><polyline
       points="494.987,318.766 495.826,322.925 498.116,326.321 501.513,328.61 505.672,329.45 509.831,328.61 513.227,326.321 515.517,322.925 516.357,318.766 515.517,314.607 513.227,311.211 509.831,308.921 505.672,308.081 501.513,308.921 498.116,311.211 495.826,314.607 494.987,318.766 "
       id="polyline249" /><polyline
       points="511.778,512.01 512.618,516.169 514.907,519.565 518.304,521.855 522.463,522.694 526.622,521.855 530.019,519.565 532.309,516.169 533.148,512.01 532.309,507.851 530.019,504.455 526.622,502.165 522.463,501.326 518.304,502.165 514.907,504.455 512.618,507.851 511.778,512.01 "
       id="polyline251" /><polyline
       points="494.987,318.766 493.821,318.343 490.459,317.188 485.102,315.47 477.954,313.357 469.216,311.018 459.09,308.624 447.779,306.342 435.485,304.342 408.757,301.862 401.777,301.683 400.02,301.671 399.433,301.67 399.426,301.67 399.321,301.67 398.124,301.67 396.928,301.67 396.823,301.67 396.816,301.67 396.229,301.671 394.472,301.683 387.491,301.862 360.763,304.342 348.469,306.342 337.158,308.624 327.033,311.018 318.294,313.357 311.146,315.47 305.79,317.188 302.428,318.343 301.262,318.766 "
       id="polyline253" /><polyline
       points="301.262,317.544 302.355,316.638 305.528,314.163 310.625,310.481 317.49,305.953 325.964,300.942 335.891,295.81 347.113,290.92 359.475,286.634 372.819,283.314 386.988,281.321 394.333,280.936 396.193,280.912 396.816,280.91 396.823,280.91 396.928,280.91 398.124,280.91 399.321,280.91 399.426,280.91 399.433,280.91 400.055,280.912 401.915,280.936 409.26,281.321 423.429,283.314 436.773,286.634 449.135,290.92 460.358,295.81 470.285,300.942 478.759,305.953 485.623,310.481 490.72,314.163 493.894,316.638 494.987,317.544 "
       id="polyline255" /><polyline
       points="299.124,311.439 300.27,310.518 303.586,308.002 308.893,304.258 316.012,299.655 324.764,294.56 334.967,289.343 346.444,284.372 359.013,280.014 372.496,276.639 386.713,274.613 394.041,274.222 395.892,274.197 396.511,274.195 396.52,274.195 396.649,274.195 398.124,274.195 399.599,274.195 399.729,274.195 399.738,274.195 400.357,274.197 402.208,274.222 409.535,274.613 423.752,276.639 437.235,280.014 449.805,284.372 461.281,289.343 471.485,294.56 480.236,299.655 487.355,304.258 492.663,308.002 495.979,310.518 497.124,311.439 "
       id="polyline257" /></g></svg>