<?xml version="1.0" standalone="no"?>
<svg viewBox="0 0 800 800" version="1.1" xmlns="http://www.w3.org/2000/svg" xmlns:xlink="http://www.w3.org/1999/xlink" stroke-linecap="round" stroke-linejoin="round" fill-rule="evenodd" xml:space="preserve" >
<defs >
<clipPath id="clipId0" >
<path d="M0,800 800,800 800,0 0,0 z" />
</clipPath>
</defs>
<g stroke-width="0.1" clip-path="url(#clipId0)" fill="none" stroke="rgb(0,0,0)" />
<g stroke-width="0.25" clip-path="url(#clipId0)" fill="none" stroke="rgb(0,0,0)" >
<polyline points="304.925,317.544 304.925,332.503 " />
<polyline points="311.315,316.018 311.315,339.22 " />
<polyline points="317.703,314.492 317.703,345.325 " />
<polyline points="324.093,312.661 324.093,351.736 " />
<polyline points="330.481,311.133 330.481,358.147 " />
<polyline points="394.373,412.488 394.373,308.691 " />
<polyline points="387.983,309.607 387.983,411.572 " />
<polyline points="381.595,308.997 381.595,406.381 " />
<polyline points="375.205,309.301 375.205,401.498 " />
<polyline points="368.817,309.607 368.817,396.307 " />
<polyline points="362.427,309.607 362.427,389.592 " />
<polyline points="336.871,310.915 336.871,364.558 " />
<polyline points="343.26,310.804 343.26,370.359 " />
<polyline points="349.649,310.609 349.649,376.244 " />
<polyline points="356.039,309.999 356.039,382.961 " />
<polyline points="304.925,517.457 304.925,500.104 " />
<polyline points="298.514,517.457 298.514,501.63 " />
<polyline points="291.798,517.457 291.798,502.242 " />
<polyline points="311.315,518.287 311.315,495.085 " />
<polyline points="317.703,519.117 317.703,488.284 " />
<polyline points="324.093,519.947 324.093,480.871 " />
<polyline points="330.481,519.947 330.481,472.933 " />
<polyline points="394.373,416.15 394.373,519.947 " />
<polyline points="387.983,519.947 387.983,416.762 " />
<polyline points="381.595,519.947 381.595,422.563 " />
<polyline points="375.205,519.947 375.205,427.75 " />
<polyline points="368.817,519.947 368.817,433.247 " />
<polyline points="362.427,519.947 362.427,439.962 " />
<polyline points="336.871,519.947 336.871,466.303 " />
<polyline points="343.26,519.947 343.26,460.392 " />
<polyline points="349.649,519.947 349.649,454.312 " />
<polyline points="356.039,519.947 356.039,446.985 " />
<polyline points="272.26,495.831 304.925,495.831 " />
<polyline points="272.26,489.395 312.557,489.395 " />
<polyline points="271.955,482.96 318.968,482.96 " />
<polyline points="272.565,476.524 325.99,476.524 " />
<polyline points="271.955,470.088 331.485,470.088 " />
<polyline points="272.565,463.654 338.201,463.654 " />
<polyline points="272.871,457.218 344.612,457.218 " />
<polyline points="273.176,450.782 351.023,450.782 " />
<polyline points="273.48,444.348 357.129,444.348 " />
<polyline points="273.48,437.912 362.929,437.912 " />
<polyline points="273.48,431.476 368.729,431.476 " />
<polyline points="273.786,425.042 376.667,425.042 " />
<polyline points="274.091,418.606 382.162,418.606 " />
<polyline points="274.702,412.17 381.246,412.17 " />
<polyline points="275.618,405.734 375.446,405.734 " />
<polyline points="275.923,399.3 367.508,399.3 " />
<polyline points="276.839,392.864 361.708,392.864 " />
<polyline points="277.45,386.428 355.297,386.428 " />
<polyline points="278.976,379.993 349.496,379.993 " />
<polyline points="279.891,373.558 342.169,373.558 " />
<polyline points="280.807,367.122 335.148,367.122 " />
<polyline points="281.723,360.687 329.347,360.687 " />
<polyline points="283.25,354.251 322.326,354.251 " />
<polyline points="283.25,347.815 316.525,347.815 " />
<polyline points="284.777,341.381 309.81,341.381 " />
<polyline points="284.471,334.945 303.399,334.945 " />
<polyline points="301.262,318.766 300.422,322.925 298.132,326.321 294.736,328.61 290.577,329.45 286.418,328.61 283.021,326.321 280.731,322.925 279.891,318.766 280.731,314.607 283.021,311.211 286.418,308.921 290.577,308.081 294.736,308.921 298.132,311.211 300.422,314.607 301.262,318.766 " />
<polyline points="284.471,512.01 283.631,516.169 281.341,519.565 277.945,521.855 273.785,522.694 269.626,521.855 266.23,519.565 263.94,516.169 263.1,512.01 263.94,507.851 266.23,504.455 269.626,502.165 273.785,501.326 277.945,502.165 281.341,504.455 283.631,507.851 284.471,512.01 " />
<polyline points="491.323,317.544 491.323,332.503 " />
<polyline points="484.934,316.018 484.934,339.22 " />
<polyline points="478.545,314.492 478.545,345.325 " />
<polyline points="472.156,312.661 472.156,351.736 " />
<polyline points="465.767,311.133 465.767,358.147 " />
<polyline points="401.876,412.488 401.876,308.691 " />
<polyline points="408.265,309.607 408.265,411.572 " />
<polyline points="414.654,308.997 414.654,406.381 " />
<polyline points="421.043,309.301 421.043,401.498 " />
<polyline points="427.432,309.607 427.432,396.307 " />
<polyline points="433.821,309.607 433.821,389.592 " />
<polyline points="459.378,310.915 459.378,364.558 " />
<polyline points="452.989,310.804 452.989,370.359 " />
<polyline points="446.599,310.609 446.599,376.244 " />
<polyline points="440.21,309.999 440.21,382.961 " />
<polyline points="491.323,517.457 491.323,500.104 " />
<polyline points="497.734,517.457 497.734,501.63 " />
<polyline points="504.451,517.457 504.451,502.242 " />
<polyline points="484.934,518.287 484.934,495.085 " />
<polyline points="478.545,519.117 478.545,488.284 " />
<polyline points="472.156,519.947 472.156,480.871 " />
<polyline points="465.767,519.947 465.767,472.933 " />
<polyline points="401.876,416.15 401.876,519.947 " />
<polyline points="408.265,519.947 408.265,416.762 " />
<polyline points="414.654,519.947 414.654,422.563 " />
<polyline points="421.043,519.947 421.043,427.75 " />
<polyline points="427.432,519.947 427.432,433.247 " />
<polyline points="433.821,519.947 433.821,439.962 " />
<polyline points="459.378,519.947 459.378,466.303 " />
<polyline points="452.989,519.947 452.989,460.392 " />
<polyline points="446.599,519.947 446.599,454.312 " />
<polyline points="440.21,519.947 440.21,446.985 " />
<polyline points="523.989,495.831 491.323,495.831 " />
<polyline points="523.989,489.395 483.691,489.395 " />
<polyline points="524.294,482.96 477.28,482.96 " />
<polyline points="523.684,476.524 470.259,476.524 " />
<polyline points="524.294,470.088 464.764,470.088 " />
<polyline points="523.684,463.654 458.048,463.654 " />
<polyline points="523.378,457.218 451.637,457.218 " />
<polyline points="523.073,450.782 445.226,450.782 " />
<polyline points="522.768,444.348 439.12,444.348 " />
<polyline points="522.768,437.912 433.32,437.912 " />
<polyline points="522.768,431.476 427.52,431.476 " />
<polyline points="522.462,425.042 419.582,425.042 " />
<polyline points="522.157,418.606 414.087,418.606 " />
<polyline points="521.546,412.17 415.003,412.17 " />
<polyline points="520.63,405.734 420.803,405.734 " />
<polyline points="520.325,399.3 428.74,399.3 " />
<polyline points="519.41,392.864 434.54,392.864 " />
<polyline points="518.799,386.428 440.951,386.428 " />
<polyline points="517.273,379.993 446.752,379.993 " />
<polyline points="516.357,373.558 454.079,373.558 " />
<polyline points="515.441,367.122 461.1,367.122 " />
<polyline points="514.525,360.687 466.901,360.687 " />
<polyline points="512.999,354.251 473.922,354.251 " />
<polyline points="512.999,347.815 479.723,347.815 " />
<polyline points="511.472,341.381 486.439,341.381 " />
<polyline points="511.778,334.945 492.85,334.945 " />
<polyline points="494.987,318.766 495.826,322.925 498.116,326.321 501.513,328.61 505.672,329.45 509.831,328.61 513.227,326.321 515.517,322.925 516.357,318.766 515.517,314.607 513.227,311.211 509.831,308.921 505.672,308.081 501.513,308.921 498.116,311.211 495.826,314.607 494.987,318.766 " />
<polyline points="511.778,512.01 512.618,516.169 514.907,519.565 518.304,521.855 522.463,522.694 526.622,521.855 530.019,519.565 532.309,516.169 533.148,512.01 532.309,507.851 530.019,504.455 526.622,502.165 522.463,501.326 518.304,502.165 514.907,504.455 512.618,507.851 511.778,512.01 " />
<polyline points="494.987,318.766 493.821,318.343 490.459,317.188 485.102,315.47 477.954,313.357 469.216,311.018 459.09,308.624 447.779,306.342 435.485,304.342 408.757,301.862 401.777,301.683 400.02,301.671 399.433,301.67 399.426,301.67 399.321,301.67 398.124,301.67 396.928,301.67 396.823,301.67 396.816,301.67 396.229,301.671 394.472,301.683 387.491,301.862 360.763,304.342 348.469,306.342 337.158,308.624 327.033,311.018 318.294,313.357 311.146,315.47 305.79,317.188 302.428,318.343 301.262,318.766 " />
<polyline points="301.262,317.544 302.355,316.638 305.528,314.163 310.625,310.481 317.49,305.953 325.964,300.942 335.891,295.81 347.113,290.92 359.475,286.634 372.819,283.314 386.988,281.321 394.333,280.936 396.193,280.912 396.816,280.91 396.823,280.91 396.928,280.91 398.124,280.91 399.321,280.91 399.426,280.91 399.433,280.91 400.055,280.912 401.915,280.936 409.26,281.321 423.429,283.314 436.773,286.634 449.135,290.92 460.358,295.81 470.285,300.942 478.759,305.953 485.623,310.481 490.72,314.163 493.894,316.638 494.987,317.544 " />
<polyline points="299.124,311.439 300.27,310.518 303.586,308.002 308.893,304.258 316.012,299.655 324.764,294.56 334.967,289.343 346.444,284.372 359.013,280.014 372.496,276.639 386.713,274.613 394.041,274.222 395.892,274.197 396.511,274.195 396.52,274.195 396.649,274.195 398.124,274.195 399.599,274.195 399.729,274.195 399.738,274.195 400.357,274.197 402.208,274.222 409.535,274.613 423.752,276.639 437.235,280.014 449.805,284.372 461.281,289.343 471.485,294.56 480.236,299.655 487.355,304.258 492.663,308.002 495.979,310.518 497.124,311.439 " />
</g>
</svg>
