<?xml version="1.0" standalone="no"?>
<svg viewBox="0 0 800 800" version="1.1" xmlns="http://www.w3.org/2000/svg" xmlns:xlink="http://www.w3.org/1999/xlink" stroke-linecap="round" stroke-linejoin="round" fill-rule="evenodd" xml:space="preserve" >
<defs >
<clipPath id="clipId0" >
<path d="M0,800 800,800 800,0 0,0 z" />
</clipPath>
</defs>
<g stroke-width="0.1" clip-path="url(#clipId0)" fill="none" stroke="rgb(0,0,0)" />
<g stroke-width="0.25" clip-path="url(#clipId0)" fill="none" stroke="rgb(0,0,0)" >
<polyline points="373.441,363.764 374.228,366.642 376.184,368.443 376.211,370.118 375.719,371.82 375.183,374.644 374.496,378.832 371.987,399.73 371.57,408.831 371.038,419.985 370.592,431.223 370.475,436.192 370.457,438.394 370.454,438.688 370.225,440.159 369.18,442.461 366.696,444.098 363.093,443.962 360.865,442.66 359.767,440.56 359.318,437.944 358.98,433.136 358.687,424.997 358.584,413.636 359.234,399.216 362.082,383.546 363.931,376.37 365.784,370.252 367.432,365.657 368.665,363.048 " />
<polyline points="374.486,361.347 373.581,363.405 371.397,364.257 369.212,363.405 368.307,361.347 369.212,359.289 371.397,358.436 373.581,359.289 374.486,361.347 " />
<polyline points="368.324,438.819 367.372,441.117 365.074,442.069 362.777,441.117 361.825,438.819 362.777,436.521 365.074,435.57 367.372,436.521 368.324,438.819 " />
<polyline points="417.681,353.377 431.384,354.489 443.307,356.989 452.118,359.623 454.94,360.598 456.485,361.137 458.41,361.525 458.634,361.376 457.731,360.791 455.168,359.249 451.167,357.069 445.948,354.57 432.744,349.892 425.2,348.35 417.323,347.765 416.304,347.765 408.427,348.35 400.884,349.892 387.679,354.57 382.461,357.069 378.46,359.249 375.897,360.791 374.993,361.376 375.217,361.525 377.143,361.137 378.687,360.598 381.51,359.623 390.321,356.989 402.243,354.489 415.946,353.377 417.681,353.377 " />
<polyline points="459.708,359.705 459.112,359.35 457.414,358.382 451.278,355.171 442.418,351.205 431.955,347.616 421.006,345.538 418.325,345.388 417.442,345.377 417.439,345.377 417.388,345.377 416.814,345.377 416.239,345.377 416.189,345.377 416.185,345.377 415.303,345.388 412.621,345.538 401.673,347.616 391.209,351.205 382.35,355.171 376.213,358.382 374.516,359.35 373.919,359.705 " />
<polyline points="460.186,363.764 459.4,366.642 457.444,368.443 457.417,370.118 457.908,371.82 458.444,374.644 459.131,378.832 461.64,399.73 462.057,408.831 462.589,419.985 463.036,431.223 463.152,436.192 463.171,438.394 463.174,438.688 463.403,440.159 464.448,442.461 466.931,444.098 470.535,443.962 472.762,442.66 473.861,440.56 474.309,437.944 474.648,433.136 474.941,424.997 475.044,413.636 474.394,399.216 471.546,383.546 469.697,376.37 467.844,370.252 466.196,365.657 464.962,363.048 " />
<polyline points="459.141,361.347 460.046,363.405 462.231,364.257 464.415,363.405 465.32,361.347 464.415,359.289 462.231,358.436 460.046,359.289 459.141,361.347 " />
<polyline points="465.303,438.819 466.255,441.117 468.553,442.069 470.851,441.117 471.803,438.819 470.851,436.521 468.553,435.57 466.255,436.521 465.303,438.819 " />
<polyline points="403.993,394.074 403.993,358.941 " />
<polyline points="401.417,391.455 401.417,359.085 " />
<polyline points="398.841,388.674 398.841,359.12 " />
<polyline points="396.265,385.975 396.265,359.299 " />
<polyline points="393.69,383.216 393.69,359.48 " />
<polyline points="391.114,380.74 391.114,359.591 " />
<polyline points="388.538,378.068 388.538,359.728 " />
<polyline points="385.962,375.43 385.962,359.884 " />
<polyline points="383.386,372.683 383.386,360.021 " />
<polyline points="380.811,370.085 380.811,360.869 " />
<polyline points="378.235,367.385 378.235,361.651 " />
<polyline points="375.659,366.633 375.659,362.332 " />
<polyline points="406.568,358.72 406.568,396.71 " />
<polyline points="406.198,397.644 373.094,397.644 " />
<polyline points="403.579,395.075 373.238,395.075 " />
<polyline points="401.003,392.505 373.477,392.505 " />
<polyline points="398.912,389.936 373.757,389.936 " />
<polyline points="396.152,387.366 374.141,387.366 " />
<polyline points="393.677,384.797 374.456,384.797 " />
<polyline points="391.309,382.227 374.897,382.227 " />
<polyline points="388.774,379.657 375.358,379.657 " />
<polyline points="386.229,377.087 375.595,377.087 " />
<polyline points="383.732,374.518 376.038,374.518 " />
<polyline points="381.541,371.948 376.516,371.948 " />
<polyline points="378.758,369.378 376.994,369.378 " />
<polyline points="372.772,400.214 408.428,400.214 " />
<polyline points="409.144,358.822 409.144,399.41 " />
<polyline points="411.72,358.785 411.72,399.906 " />
<polyline points="414.295,358.785 414.295,400.109 " />
<polyline points="416.871,358.869 416.871,400.109 " />
<polyline points="429.75,394.074 429.75,358.941 " />
<polyline points="432.326,391.455 432.326,359.085 " />
<polyline points="434.902,388.674 434.902,359.12 " />
<polyline points="437.477,385.975 437.477,359.299 " />
<polyline points="440.053,383.216 440.053,359.48 " />
<polyline points="442.629,380.74 442.629,359.591 " />
<polyline points="445.205,378.068 445.205,359.728 " />
<polyline points="447.78,375.43 447.78,359.884 " />
<polyline points="450.356,372.683 450.356,360.021 " />
<polyline points="452.932,370.085 452.932,360.869 " />
<polyline points="455.507,367.385 455.507,361.651 " />
<polyline points="458.083,366.633 458.083,362.332 " />
<polyline points="427.174,358.72 427.174,396.71 " />
<polyline points="424.598,358.822 424.598,399.41 " />
<polyline points="422.023,358.785 422.023,399.906 " />
<polyline points="419.447,358.785 419.447,400.109 " />
<polyline points="416.876,441.187 416.876,401.074 " />
<polyline points="404.032,406.596 404.032,441.116 " />
<polyline points="401.463,409.174 401.463,440.972 " />
<polyline points="398.894,411.751 398.894,440.936 " />
<polyline points="396.325,414.327 396.325,440.859 " />
<polyline points="393.756,416.905 393.756,440.779 " />
<polyline points="391.187,419.482 391.187,440.668 " />
<polyline points="388.618,422.059 388.618,440.531 " />
<polyline points="386.049,424.636 386.049,440.274 " />
<polyline points="383.48,427.213 383.48,440.137 " />
<polyline points="380.912,429.801 380.912,439.999 " />
<polyline points="378.342,432.368 378.342,439.826 " />
<polyline points="375.774,434.864 375.774,439.672 " />
<polyline points="373.205,435.11 373.205,439.368 " />
<polyline points="406.601,441.133 406.601,404.158 " />
<polyline points="404.003,405.354 372.628,405.354 " />
<polyline points="401.426,407.923 372.572,407.923 " />
<polyline points="398.849,410.493 372.405,410.493 " />
<polyline points="396.272,413.063 372.278,413.063 " />
<polyline points="393.695,415.632 372.053,415.632 " />
<polyline points="391.117,418.202 371.962,418.202 " />
<polyline points="388.54,420.771 371.896,420.771 " />
<polyline points="385.964,423.342 371.746,423.342 " />
<polyline points="383.386,425.911 371.478,425.911 " />
<polyline points="380.798,428.481 371.413,428.481 " />
<polyline points="378.232,431.05 371.383,431.05 " />
<polyline points="375.938,433.62 371.232,433.62 " />
<polyline points="372.715,402.784 406.441,402.784 " />
<polyline points="427.336,397.644 460.44,397.644 " />
<polyline points="429.955,395.075 460.296,395.075 " />
<polyline points="432.531,392.505 460.057,392.505 " />
<polyline points="434.622,389.936 459.777,389.936 " />
<polyline points="437.382,387.366 459.393,387.366 " />
<polyline points="439.857,384.797 459.078,384.797 " />
<polyline points="442.225,382.227 458.637,382.227 " />
<polyline points="444.76,379.657 458.176,379.657 " />
<polyline points="447.305,377.087 457.939,377.087 " />
<polyline points="449.802,374.518 457.496,374.518 " />
<polyline points="451.993,371.948 457.018,371.948 " />
<polyline points="454.776,369.378 456.54,369.378 " />
<polyline points="460.762,400.214 425.106,400.214 " />
<polyline points="429.531,405.354 460.906,405.354 " />
<polyline points="432.108,407.923 460.962,407.923 " />
<polyline points="434.685,410.493 461.129,410.493 " />
<polyline points="437.262,413.063 461.256,413.063 " />
<polyline points="439.839,415.632 461.481,415.632 " />
<polyline points="442.417,418.202 461.572,418.202 " />
<polyline points="444.994,420.771 461.638,420.771 " />
<polyline points="447.57,423.342 461.788,423.342 " />
<polyline points="450.148,425.911 462.056,425.911 " />
<polyline points="452.736,428.481 462.121,428.481 " />
<polyline points="455.302,431.05 462.151,431.05 " />
<polyline points="457.596,433.62 462.302,433.62 " />
<polyline points="460.819,402.784 427.093,402.784 " />
<polyline points="409.17,441.235 409.17,401.458 " />
<polyline points="411.739,441.271 411.739,400.962 " />
<polyline points="414.308,441.271 414.308,400.951 " />
<polyline points="429.722,406.596 429.722,441.116 " />
<polyline points="432.29,409.174 432.29,440.972 " />
<polyline points="434.859,411.751 434.859,440.936 " />
<polyline points="437.428,414.327 437.428,440.859 " />
<polyline points="439.997,416.905 439.997,440.779 " />
<polyline points="442.566,419.482 442.566,440.668 " />
<polyline points="445.135,422.059 445.135,440.531 " />
<polyline points="447.704,424.636 447.704,440.274 " />
<polyline points="450.273,427.213 450.273,440.137 " />
<polyline points="452.842,429.801 452.842,439.999 " />
<polyline points="455.411,432.368 455.411,439.826 " />
<polyline points="457.98,434.864 457.98,439.672 " />
<polyline points="460.549,435.11 460.549,439.368 " />
<polyline points="427.152,441.133 427.152,404.158 " />
<polyline points="424.583,441.235 424.583,401.458 " />
<polyline points="422.015,441.271 422.015,400.962 " />
<polyline points="419.446,441.271 419.446,400.951 " />
</g>
</svg>
