<?xml version="1.0" encoding="UTF-8" standalone="no"?>
<svg
   xmlns:dc="http://purl.org/dc/elements/1.1/"
   xmlns:cc="http://creativecommons.org/ns#"
   xmlns:rdf="http://www.w3.org/1999/02/22-rdf-syntax-ns#"
   xmlns:svg="http://www.w3.org/2000/svg"
   xmlns="http://www.w3.org/2000/svg"
   xmlns:sodipodi="http://sodipodi.sourceforge.net/DTD/sodipodi-0.dtd"
   xmlns:inkscape="http://www.inkscape.org/namespaces/inkscape"
   viewBox="0 0 217.78321 175.40821"
   version="1.1"
   xml:space="preserve"
   id="svg2"
   inkscape:version="0.48.5 r10040"
   width="100%"
   height="100%"
   sodipodi:docname="ch58-Model.svg"
   style="fill-rule:evenodd;stroke-linecap:round;stroke-linejoin:round"><metadata
     id="metadata49"><rdf:RDF><cc:Work
         rdf:about=""><dc:format>image/svg+xml</dc:format><dc:type
           rdf:resource="http://purl.org/dc/dcmitype/StillImage" /></cc:Work></rdf:RDF></metadata><sodipodi:namedview
     pagecolor="#ffffff"
     bordercolor="#666666"
     borderopacity="1"
     objecttolerance="10"
     gridtolerance="10"
     guidetolerance="10"
     inkscape:pageopacity="0"
     inkscape:pageshadow="2"
     inkscape:window-width="1366"
     inkscape:window-height="702"
     id="namedview47"
     showgrid="false"
     fit-margin-top="0"
     fit-margin-left="0"
     fit-margin-right="0"
     fit-margin-bottom="0"
     inkscape:zoom="0.295"
     inkscape:cx="77.71973"
     inkscape:cy="35.09473"
     inkscape:window-x="0"
     inkscape:window-y="27"
     inkscape:window-maximized="1"
     inkscape:current-layer="svg2" /><defs
     id="defs4"><clipPath
       id="clipId0"><path
         d="M 0,800 800,800 800,0 0,0 z"
         id="path7"
         inkscape:connector-curvature="0" /></clipPath></defs><g
     clip-path="url(#clipId0)"
     id="g9"
     style="fill:none;stroke:#000000;stroke-width:0.1"
     transform="translate(-322.28027,-259.68652)" /><g
     clip-path="url(#clipId0)"
     id="g11"
     style="fill:none;stroke:#000000;stroke-width:0.25"
     transform="translate(-322.28027,-259.68652)"><circle
       cx="515.12402"
       cy="421.354"
       r="7.4057002"
       id="circle13"
       sodipodi:cx="515.12402"
       sodipodi:cy="421.354"
       sodipodi:rx="7.4057002"
       sodipodi:ry="7.4057002"
       d="m 522.52972,421.354 c 0,4.09006 -3.31564,7.4057 -7.4057,7.4057 -4.09005,0 -7.4057,-3.31564 -7.4057,-7.4057 0,-4.09005 3.31565,-7.4057 7.4057,-7.4057 4.09006,0 7.4057,3.31565 7.4057,7.4057 z" /><polyline
       points="431.175,276.469 447.762,277.944 463.946,281.888 479.252,288.44 492.971,297.86 498.465,303.947 499.434,312.29 501.543,329.163 506.077,362.989 510.247,395.659 511.122,403.468 511.524,407.303 510.791,409.119 509.23,410.436 495.271,419.482 480.311,426.633 464.246,431.266 447.795,433.979 431.175,434.955 414.556,433.979 398.105,431.266 382.04,426.633 367.08,419.482 353.121,410.436 351.559,409.119 350.827,407.303 351.229,403.468 352.104,395.659 356.274,362.989 360.808,329.163 362.917,312.29 363.886,303.947 369.38,297.86 383.099,288.44 398.405,281.888 414.589,277.944 431.175,276.469 "
       id="polyline15" /><polyline
       points="508.708,425.053 507.722,421.59 508.494,418.054 501.666,417.794 498.033,417.824 494.912,419.691 488.531,423.125 485.239,424.648 484.405,425.008 485.044,425.062 486.865,425.062 494.146,425.059 508.708,425.053 "
       id="polyline17" /><polyline
       points="504.207,304.9 498.751,299.468 497.296,298.206 496.684,297.82 496.804,298.774 497.742,302.366 500.083,317.643 504.18,348.966 508.302,379.841 510.139,394.735 510.96,401.981 511.342,405.545 511.525,407.312 510.917,409.019 510.983,412.689 511.237,414.597 512.627,414.382 516.463,414.07 517.385,414.302 517.63,413.803 517.394,411.892 515.51,396.608 511.742,366.038 504.207,304.9 "
       id="polyline19" /><polyline
       points="353.642,425.053 354.629,421.59 353.857,418.054 360.685,417.794 364.318,417.824 367.439,419.691 373.82,423.125 377.112,424.648 377.946,425.008 377.306,425.062 375.486,425.062 368.205,425.059 353.642,425.053 "
       id="polyline21" /><polyline
       points="358.144,304.9 363.599,299.468 365.055,298.206 365.666,297.82 365.547,298.774 364.609,302.366 362.268,317.643 358.171,348.966 354.049,379.841 352.212,394.735 351.39,401.981 351.009,405.545 350.826,407.312 351.434,409.019 351.368,412.689 351.114,414.597 349.724,414.382 345.887,414.07 344.966,414.302 344.721,413.803 344.957,411.892 346.841,396.608 350.608,366.038 358.144,304.9 "
       id="polyline23" /><polyline
       points="485.362,289.49 475.107,283.661 469.626,281.763 463.727,281.763 474.398,286.006 479.67,288.668 482.413,289.481 485.362,289.49 "
       id="polyline25" /><polyline
       points="376.988,289.49 387.244,283.661 392.724,281.763 398.624,281.763 387.953,286.006 382.68,288.668 379.938,289.481 376.988,289.49 "
       id="polyline27" /><polyline
       points="507.339,283.64 505.834,281.028 503.548,279.067 500.71,278.038 497.698,278.073 495.002,279.336 494.102,280.317 492.863,279.456 494.701,277.058 495.365,274.203 496.561,271.476 499.123,269.949 502.106,270.155 504.451,272.038 507.339,283.64 "
       id="polyline29" /><polyline
       points="494.256,280.426 496.107,278.552 498.711,277.941 503.838,279.245 507.214,283.325 508.019,288.58 508.018,291.257 508.016,291.928 507.594,291.592 506.633,290.658 502.678,287.043 494.256,280.426 "
       id="polyline31" /><polyline
       points="355.011,283.64 356.516,281.028 358.803,279.067 361.641,278.038 364.653,278.073 367.349,279.336 368.249,280.317 369.487,279.456 367.649,277.058 366.986,274.203 365.79,271.476 363.227,269.949 360.245,270.155 357.9,272.038 355.011,283.64 "
       id="polyline33" /><polyline
       points="368.094,280.426 366.244,278.552 363.64,277.941 358.512,279.245 355.137,283.325 354.332,288.58 354.333,291.257 354.335,291.928 354.757,291.592 355.718,290.658 359.673,287.043 368.094,280.426 "
       id="polyline35" /><polyline
       points="508.015,292.008 498.45,283.551 495.906,281.622 493.779,283.852 493.232,286.841 494.91,289.539 504.133,298.366 511.986,308.372 513.7,314.536 513.694,317.752 512.429,320.547 511.791,320.126 512.098,320.632 512.91,322.006 514.465,324.796 517.287,330.527 521.741,342.503 524.539,354.969 525.299,361.311 525.422,362.903 526.632,363.593 529.791,364.099 536.134,363.58 539.236,362.798 539.943,361.655 539.819,360.063 537.985,347.424 534.685,335.083 529.964,323.213 523.888,311.977 516.537,301.525 508.015,292.008 "
       id="polyline37" /><polyline
       points="354.336,292.008 363.901,283.551 366.444,281.622 368.572,283.852 369.119,286.841 367.441,289.539 358.218,298.366 350.364,308.372 348.651,314.536 348.657,317.752 349.921,320.547 350.559,320.126 350.253,320.632 349.44,322.006 347.886,324.796 345.064,330.527 340.609,342.503 337.812,354.969 337.052,361.311 336.929,362.903 335.719,363.593 332.56,364.099 326.216,363.58 323.115,362.798 322.408,361.655 322.532,360.063 324.366,347.424 327.666,335.083 332.386,323.213 338.463,311.977 345.814,301.525 354.336,292.008 "
       id="polyline39" /><polyline
       points="369.518,279.435 366.755,281.393 368.608,283.895 369.032,287.076 367.151,289.876 357.362,299.233 352.896,304.324 349.611,310.222 348.579,316.942 349.429,320.192 350.699,319.886 351.308,318.308 353.442,311.881 357.054,306.176 366.787,296.783 377.838,288.95 389.731,282.477 402.414,277.737 415.628,274.727 429.107,273.439 442.625,274.144 455.943,276.639 468.821,280.839 480.972,286.81 492.28,294.26 502.535,303.096 506.913,308.259 509.823,314.352 512.296,320.541 513.702,317.692 513.671,314.28 511.702,307.796 507.775,302.293 498.12,292.805 493.643,287.753 493.323,284.517 495.485,281.917 494.834,280.839 493.451,279.861 490.647,277.962 484.91,274.363 472.777,268.338 459.997,263.838 446.754,260.987 433.245,259.844 419.707,260.457 406.357,262.788 393.418,266.797 381.061,272.359 369.518,279.435 "
       id="polyline41" /><polyline
       points="369.518,279.435 383.619,271.057 398.839,264.899 414.804,261.108 431.175,259.819 "
       id="polyline43" /><circle
       cx="347.22699"
       cy="421.354"
       r="7.4057002"
       id="circle45"
       sodipodi:cx="347.22699"
       sodipodi:cy="421.354"
       sodipodi:rx="7.4057002"
       sodipodi:ry="7.4057002"
       d="m 354.63269,421.354 c 0,4.09006 -3.31564,7.4057 -7.4057,7.4057 -4.09006,0 -7.4057,-3.31564 -7.4057,-7.4057 0,-4.09005 3.31564,-7.4057 7.4057,-7.4057 4.09006,0 7.4057,3.31565 7.4057,7.4057 z" /></g></svg>