<?xml version="1.0" encoding="UTF-8" standalone="no"?>
<svg
   xmlns:dc="http://purl.org/dc/elements/1.1/"
   xmlns:cc="http://creativecommons.org/ns#"
   xmlns:rdf="http://www.w3.org/1999/02/22-rdf-syntax-ns#"
   xmlns:svg="http://www.w3.org/2000/svg"
   xmlns="http://www.w3.org/2000/svg"
   xmlns:sodipodi="http://sodipodi.sourceforge.net/DTD/sodipodi-0.dtd"
   xmlns:inkscape="http://www.inkscape.org/namespaces/inkscape"
   viewBox="0 0 123.655 131.001"
   version="1.1"
   xml:space="preserve"
   id="svg2"
   inkscape:version="0.48.5 r10040"
   width="100%"
   height="100%"
   sodipodi:docname="ow149 single-Model.svg"
   style="fill-rule:evenodd;stroke-linecap:round;stroke-linejoin:round"><metadata
     id="metadata141"><rdf:RDF><cc:Work
         rdf:about=""><dc:format>image/svg+xml</dc:format><dc:type
           rdf:resource="http://purl.org/dc/dcmitype/StillImage" /></cc:Work></rdf:RDF></metadata><sodipodi:namedview
     pagecolor="#ffffff"
     bordercolor="#666666"
     borderopacity="1"
     objecttolerance="10"
     gridtolerance="10"
     guidetolerance="10"
     inkscape:pageopacity="0"
     inkscape:pageshadow="2"
     inkscape:window-width="640"
     inkscape:window-height="480"
     id="namedview139"
     showgrid="false"
     fit-margin-top="0"
     fit-margin-left="0"
     fit-margin-right="0"
     fit-margin-bottom="0"
     inkscape:zoom="0.295"
     inkscape:cx="34.21"
     inkscape:cy="41.908"
     inkscape:window-x="0"
     inkscape:window-y="27"
     inkscape:window-maximized="0"
     inkscape:current-layer="svg2" /><defs
     id="defs4"><clipPath
       id="clipId0"><path
         d="M 0,800 800,800 800,0 0,0 z"
         id="path7"
         inkscape:connector-curvature="0" /></clipPath></defs><g
     clip-path="url(#clipId0)"
     id="g9"
     style="fill:none;stroke:#000000;stroke-width:0.1"
     transform="translate(-365.79,-310.907)" /><g
     clip-path="url(#clipId0)"
     id="g11"
     style="fill:none;stroke:#000000;stroke-width:0.18000001"
     transform="translate(-365.79,-310.907)"><polyline
       points="381.291,314.56 380.475,316.53 378.506,317.345 376.537,316.53 375.721,314.56 376.537,312.591 378.506,311.776 380.475,312.591 381.291,314.56 "
       id="polyline13" /><polyline
       points="379.96,314.56 378.506,316.015 377.051,314.56 378.506,313.106 379.96,314.56 "
       id="polyline15" /><polyline
       points="378.935,314.56 378.076,314.56 378.935,314.56 "
       id="polyline17" /><polyline
       points="375.825,315.178 375.838,317.35 375.866,322.126 375.895,326.903 375.907,329.075 375.851,329.823 375.702,331.796 375.252,337.783 374.801,343.77 374.653,345.743 374.596,346.491 374.48,347.404 374.174,349.811 373.246,357.115 372.318,364.418 372.012,366.825 371.896,367.738 371.756,368.814 371.387,371.651 370.268,380.261 369.149,388.871 368.78,391.708 368.64,392.784 368.529,393.636 368.237,395.88 367.35,402.689 366.462,409.498 366.17,411.742 366.059,412.593 365.88,416.233 366.508,417.863 367.554,418.747 369.321,418.652 370.666,417.359 370.667,415.654 369.827,414.271 368.65,413.947 "
       id="polyline19" /><polyline
       points="370.624,417.457 373.419,392.977 374.332,384.111 376.546,364.23 378.407,346.887 380.206,332.555 380.252,328.827 381.078,315.629 "
       id="polyline21" /><polyline
       points="375.907,329.075 375.817,329.223 375.636,330.378 375.498,333.598 375.537,339.947 "
       id="polyline23" /><polyline
       points="375.435,338.214 375.593,336.65 375.94,333.208 376.288,329.766 376.445,328.201 377.65,328.725 380.047,328.568 "
       id="polyline25" /><polyline
       points="381.078,338.601 381.078,338.601 "
       id="polyline27" /><polyline
       points="381.078,315.741 381.078,315.741 "
       id="polyline29" /><polyline
       points="379.242,340.234 379.703,340.132 380.817,339.079 "
       id="polyline31" /><polyline
       points="379.172,340.741 379.717,340.636 380.914,339.58 "
       id="polyline33" /><polyline
       points="381.569,337.257 381.569,337.257 "
       id="polyline35" /><polyline
       points="372.882,410.991 373.419,392.977 "
       id="polyline37" /><polyline
       points="373.891,411.327 374.958,377.393 "
       id="polyline39" /><polyline
       points="374.631,411.393 377.296,357.239 "
       id="polyline41" /><polyline
       points="371.404,411.596 372.748,410.855 "
       id="polyline43" /><polyline
       points="371.404,411.49 374.967,411.393 374.765,416.77 372.211,416.77 "
       id="polyline45" /><polyline
       points="370.419,417.831 372.625,416.331 373.374,413.853 373.235,412.965 371.404,411.767 "
       id="polyline47" /><polyline
       points="373.42,413.544 374.136,413.447 "
       id="polyline49" /><polyline
       points="373.353,415.224 374.254,414.891 "
       id="polyline51" /><polyline
       points="374.254,411.327 374.424,416.914 373.489,435.72 "
       id="polyline53" /><polyline
       points="372.412,435.92 373.375,416.77 "
       id="polyline55" /><polyline
       points="372.611,416.77 371.607,436.392 "
       id="polyline57" /><polyline
       points="376.601,438.824 375.724,440.941 373.607,441.818 371.49,440.941 370.613,438.824 371.49,436.707 373.607,435.83 375.724,436.707 376.601,438.824 "
       id="polyline59" /><polyline
       points="375.171,438.824 373.607,440.387 372.043,438.824 373.607,437.26 375.171,438.824 "
       id="polyline61" /><polyline
       points="374.069,438.824 373.146,438.824 374.069,438.824 "
       id="polyline63" /><polyline
       points="375.851,441.061 427.617,441.061 "
       id="polyline65" /><polyline
       points="427.617,440.155 376.445,440.155 "
       id="polyline67" /><polyline
       points="376.601,438.824 427.514,438.824 "
       id="polyline69" /><polyline
       points="379.008,341.658 381.452,340.241 379.34,361.379 "
       id="polyline71" /><polyline
       points="428.011,310.997 417.895,311.056 409.366,311.225 402.288,311.492 396.524,311.844 391.938,312.269 388.394,312.753 383.89,313.851 381.922,315.037 381.402,316.21 381.282,317.514 381.041,320.768 380.607,330.697 380.687,335.479 381.146,338.876 382.083,339.965 384.271,340.01 388.575,340.094 394.645,340.203 402.132,340.323 419.958,340.545 439.258,340.652 457.238,340.539 464.859,340.366 471.101,340.097 473.191,339.952 473.456,339.795 473.876,338.956 474.341,335.6 474.42,330.813 473.976,320.807 473.731,317.52 473.61,316.21 473.09,315.037 471.122,313.851 466.617,312.753 463.073,312.269 458.488,311.844 452.724,311.492 445.645,311.225 437.116,311.056 427.001,310.997 "
       id="polyline73" /><polyline
       points="375.865,428.043 375.632,433.302 375.538,435.971 375.697,436.696 377.412,437.505 382.297,437.895 386.423,437.977 391.936,438.006 399.035,438.001 407.916,437.98 410.438,437.973 410.837,437.973 411.11,437.972 412.411,437.971 417.074,437.965 422.673,437.959 427.025,437.954 428.053,437.953 428.144,437.953 428.162,437.953 429.251,437.953 436.44,437.958 448.702,437.983 458.394,438.005 465.817,437.998 471.27,437.934 475.054,437.788 477.469,437.532 479.389,436.586 479.476,435.43 479.391,433.193 479.237,429.665 478.746,419.453 478.053,406.218 476.266,376.374 475.274,362.615 474.284,351.53 473.806,347.435 473.348,344.543 472.916,343.032 472.261,342.797 470.296,342.662 467.043,342.485 457.367,342.051 444.612,341.587 430.157,341.185 415.381,340.937 401.664,340.936 390.385,341.275 386.091,341.6 382.923,342.045 381.055,342.62 380.593,343.327 380.332,346.84 379.872,353.446 379.269,362.453 378.582,373.165 377.866,384.89 376.579,408.603 376.122,419.204 375.865,428.043 "
       id="polyline75" /><polyline
       points="473.944,314.56 474.76,316.53 476.729,317.345 478.698,316.53 479.514,314.56 478.698,312.591 476.729,311.776 474.76,312.591 473.944,314.56 "
       id="polyline77" /><polyline
       points="475.274,314.56 476.729,316.015 478.184,314.56 476.729,313.106 475.274,314.56 "
       id="polyline79" /><polyline
       points="476.3,314.56 477.159,314.56 476.3,314.56 "
       id="polyline81" /><polyline
       points="479.41,315.178 479.397,317.35 479.369,322.126 479.34,326.903 479.328,329.075 479.384,329.823 479.532,331.796 479.983,337.783 480.434,343.77 480.582,345.743 480.639,346.491 480.755,347.404 481.061,349.811 481.989,357.115 482.917,364.418 483.223,366.825 483.339,367.738 483.479,368.814 483.848,371.651 484.967,380.261 486.086,388.871 486.455,391.708 486.595,392.784 486.706,393.636 486.998,395.88 487.885,402.689 488.772,409.498 489.065,411.742 489.176,412.593 489.355,416.233 488.727,417.863 487.681,418.747 485.914,418.652 484.569,417.359 484.568,415.654 485.408,414.271 486.585,413.947 "
       id="polyline83" /><polyline
       points="484.61,417.457 481.816,392.977 480.903,384.111 478.689,364.23 476.828,346.887 475.029,332.555 474.983,328.827 474.157,315.629 "
       id="polyline85" /><polyline
       points="479.328,329.075 479.418,329.223 479.599,330.378 479.737,333.598 479.698,339.947 "
       id="polyline87" /><polyline
       points="479.799,338.214 479.642,336.65 479.294,333.208 478.947,329.766 478.79,328.201 477.585,328.725 475.188,328.568 "
       id="polyline89" /><polyline
       points="474.157,315.741 474.157,315.741 "
       id="polyline91" /><polyline
       points="474.02,329.075 474.02,329.075 "
       id="polyline93" /><polyline
       points="473.783,339.59 473.783,339.59 "
       id="polyline95" /><polyline
       points="475.993,340.234 475.401,340.043 474.157,338.901 "
       id="polyline97" /><polyline
       points="476.063,340.741 475.294,340.582 473.873,339.473 "
       id="polyline99" /><polyline
       points="473.666,337.257 473.666,337.257 "
       id="polyline101" /><polyline
       points="482.353,410.991 481.816,392.977 "
       id="polyline103" /><polyline
       points="481.344,411.327 480.277,377.393 "
       id="polyline105" /><polyline
       points="480.604,411.393 477.939,357.239 "
       id="polyline107" /><polyline
       points="483.831,411.596 482.487,410.855 "
       id="polyline109" /><polyline
       points="483.831,411.49 480.268,411.393 480.47,416.77 483.024,416.77 "
       id="polyline111" /><polyline
       points="484.816,417.831 482.609,416.331 481.86,413.853 482,412.965 483.831,411.767 "
       id="polyline113" /><polyline
       points="481.815,413.544 481.099,413.447 "
       id="polyline115" /><polyline
       points="481.881,415.224 480.981,414.891 "
       id="polyline117" /><polyline
       points="480.981,411.327 480.811,416.914 481.746,435.72 "
       id="polyline119" /><polyline
       points="482.823,435.92 481.86,416.77 "
       id="polyline121" /><polyline
       points="482.623,416.77 483.628,436.392 "
       id="polyline123" /><polyline
       points="478.634,438.824 479.511,440.941 481.628,441.818 483.745,440.941 484.622,438.824 483.745,436.707 481.628,435.83 479.511,436.707 478.634,438.824 "
       id="polyline125" /><polyline
       points="480.064,438.824 481.628,440.387 483.191,438.824 481.628,437.26 480.064,438.824 "
       id="polyline127" /><polyline
       points="481.166,438.824 482.089,438.824 481.166,438.824 "
       id="polyline129" /><polyline
       points="479.384,441.061 427.617,441.061 "
       id="polyline131" /><polyline
       points="427.617,440.155 478.79,440.155 "
       id="polyline133" /><polyline
       points="478.634,438.824 427.721,438.824 "
       id="polyline135" /><polyline
       points="476.167,341.624 473.783,340.241 475.895,361.379 "
       id="polyline137" /></g></svg>