<?xml version="1.0" encoding="UTF-8" standalone="no"?>
<svg
   xmlns:dc="http://purl.org/dc/elements/1.1/"
   xmlns:cc="http://creativecommons.org/ns#"
   xmlns:rdf="http://www.w3.org/1999/02/22-rdf-syntax-ns#"
   xmlns:svg="http://www.w3.org/2000/svg"
   xmlns="http://www.w3.org/2000/svg"
   xmlns:sodipodi="http://sodipodi.sourceforge.net/DTD/sodipodi-0.dtd"
   xmlns:inkscape="http://www.inkscape.org/namespaces/inkscape"
   viewBox="0 0 272.97 154.207"
   version="1.1"
   xml:space="preserve"
   id="svg2"
   inkscape:version="0.48.5 r10040"
   width="100%"
   height="100%"
   sodipodi:docname="ow149-Model.svg"
   style="fill-rule:evenodd;stroke-linecap:round;stroke-linejoin:round"><metadata
     id="metadata579"><rdf:RDF><cc:Work
         rdf:about=""><dc:format>image/svg+xml</dc:format><dc:type
           rdf:resource="http://purl.org/dc/dcmitype/StillImage" /></cc:Work></rdf:RDF></metadata><sodipodi:namedview
     pagecolor="#ffffff"
     bordercolor="#666666"
     borderopacity="1"
     objecttolerance="10"
     gridtolerance="10"
     guidetolerance="10"
     inkscape:pageopacity="0"
     inkscape:pageshadow="2"
     inkscape:window-width="640"
     inkscape:window-height="480"
     id="namedview577"
     showgrid="false"
     fit-margin-top="0"
     fit-margin-left="0"
     fit-margin-right="0"
     fit-margin-bottom="0"
     inkscape:zoom="0.295"
     inkscape:cx="181.085"
     inkscape:cy="63.379"
     inkscape:window-x="0"
     inkscape:window-y="27"
     inkscape:window-maximized="0"
     inkscape:current-layer="svg2" /><defs
     id="defs4"><clipPath
       id="clipId0"><path
         d="M 0,800 800,800 800,0 0,0 z"
         id="path7"
         inkscape:connector-curvature="0" /></clipPath></defs><g
     clip-path="url(#clipId0)"
     id="g9"
     style="fill:none;stroke:#000000;stroke-width:0.1"
     transform="translate(-218.915,-309.172)" /><g
     clip-path="url(#clipId0)"
     id="g11"
     style="fill:none;stroke:#000000;stroke-width:0.25"
     transform="translate(-218.915,-309.172)"><polyline
       points="474.486,344.659 474.564,344.737 474.953,345.048 475.42,345.36 475.809,345.515 476.12,345.593 "
       id="polyline13" /><polyline
       points="234.68,345.593 234.991,345.515 235.38,345.36 235.847,345.048 236.237,344.737 236.314,344.659 "
       id="polyline15" /><polyline
       points="481.334,427.993 478.221,364.734 "
       id="polyline17" /><polyline
       points="232.579,364.734 229.467,427.993 "
       id="polyline19" /><polyline
       points="350.928,344.582 351.006,344.659 351.317,344.971 351.706,345.281 352.173,345.515 352.64,345.593 353.106,345.67 353.651,345.67 354.119,345.593 354.585,345.437 355.052,345.204 355.441,344.892 "
       id="polyline21" /><polyline
       points="355.441,344.892 355.752,345.204 356.219,345.437 356.686,345.593 357.153,345.67 357.697,345.67 358.164,345.593 358.631,345.515 359.098,345.281 359.487,344.971 359.72,344.815 "
       id="polyline23" /><polyline
       points="484.135,427.993 483.434,427.527 "
       id="polyline25" /><polyline
       points="484.68,428.616 485.069,428.616 485.224,428.616 "
       id="polyline27" /><polyline
       points="226.665,427.916 227.366,427.527 "
       id="polyline29" /><polyline
       points="226.121,428.538 225.732,428.538 225.576,428.616 "
       id="polyline31" /><polyline
       points="473.164,342.87 473.164,342.87 "
       id="polyline33" /><polyline
       points="480.478,342.87 480.478,343.18 "
       id="polyline35" /><polyline
       points="480.478,342.87 480.478,342.87 "
       id="polyline37" /><polyline
       points="480.322,341.702 480.322,341.936 480.4,342.402 480.478,342.947 480.4,343.259 "
       id="polyline39" /><polyline
       points="473.708,332.832 473.708,332.832 "
       id="polyline41" /><polyline
       points="473.708,331.276 473.708,331.431 473.708,331.509 "
       id="polyline43" /><polyline
       points="473.708,331.509 473.708,332.832 "
       id="polyline45" /><polyline
       points="473.708,319.215 473.708,319.215 "
       id="polyline47" /><polyline
       points="473.708,317.659 473.708,317.815 473.708,317.893 "
       id="polyline49" /><polyline
       points="473.708,317.893 473.708,319.215 "
       id="polyline51" /><polyline
       points="473.708,342.714 473.786,343.025 473.864,343.492 474.019,343.958 474.253,344.426 474.486,344.659 "
       id="polyline53" /><polyline
       points="473.708,325.985 473.708,325.985 "
       id="polyline55" /><polyline
       points="473.708,324.506 473.708,324.662 473.708,324.74 "
       id="polyline57" /><polyline
       points="473.708,324.74 473.708,325.985 "
       id="polyline59" /><polyline
       points="473.708,339.601 473.708,339.601 "
       id="polyline61" /><polyline
       points="473.708,338.045 473.708,338.279 473.708,338.357 "
       id="polyline63" /><polyline
       points="473.708,338.357 473.708,339.601 "
       id="polyline65" /><polyline
       points="230.323,342.87 230.323,342.87 "
       id="polyline67" /><polyline
       points="230.401,343.259 230.323,342.87 "
       id="polyline69" /><polyline
       points="237.637,342.87 237.637,342.87 "
       id="polyline71" /><polyline
       points="230.401,343.18 230.323,342.947 230.401,342.402 230.478,341.936 230.556,341.702 "
       id="polyline73" /><polyline
       points="237.092,339.601 237.092,338.357 "
       id="polyline75" /><polyline
       points="237.092,338.357 237.092,338.201 237.092,338.123 "
       id="polyline77" /><polyline
       points="237.092,339.601 237.092,339.601 "
       id="polyline79" /><polyline
       points="237.092,332.832 237.092,331.509 "
       id="polyline81" /><polyline
       points="237.092,331.509 237.092,331.431 237.092,331.276 "
       id="polyline83" /><polyline
       points="237.092,332.832 237.092,332.832 "
       id="polyline85" /><polyline
       points="237.092,325.985 237.092,324.74 "
       id="polyline87" /><polyline
       points="237.092,324.74 237.092,324.584 237.092,324.506 "
       id="polyline89" /><polyline
       points="237.092,325.985 237.092,325.985 "
       id="polyline91" /><polyline
       points="237.092,319.215 237.092,317.893 "
       id="polyline93" /><polyline
       points="237.092,317.893 237.092,317.815 237.092,317.659 "
       id="polyline95" /><polyline
       points="237.092,319.215 237.092,319.215 "
       id="polyline97" /><polyline
       points="236.314,344.659 236.547,344.426 236.781,343.958 236.936,343.492 237.015,343.025 237.092,342.714 "
       id="polyline99" /><polyline
       points="483.434,427.604 483.279,427.682 483.123,427.76 482.89,427.838 482.579,427.916 "
       id="polyline101" /><polyline
       points="482.579,427.916 482.423,427.916 482.267,427.916 482.034,427.916 481.8,427.916 481.567,427.993 481.334,427.993 "
       id="polyline103" /><polyline
       points="476.276,347.305 475.887,347.227 475.031,346.838 "
       id="polyline105" /><polyline
       points="482.734,456.161 481.645,434.14 "
       id="polyline107" /><polyline
       points="481.178,434.218 480.867,427.993 "
       id="polyline109" /><polyline
       points="481.334,427.993 480.867,427.993 "
       id="polyline111" /><polyline
       points="474.564,346.604 474.642,346.604 474.72,346.682 474.798,346.76 474.953,346.838 475.031,346.838 "
       id="polyline113" /><polyline
       points="475.031,346.838 480.4,456.783 "
       id="polyline115" /><polyline
       points="228.222,427.916 227.911,427.838 227.677,427.76 227.522,427.682 227.366,427.604 "
       id="polyline117" /><polyline
       points="229.467,427.993 229.234,427.993 229,427.916 228.766,427.916 228.533,427.916 228.377,427.916 228.222,427.916 "
       id="polyline119" /><polyline
       points="229.155,434.14 229,434.14 "
       id="polyline121" /><polyline
       points="235.769,346.838 234.914,347.227 234.525,347.305 "
       id="polyline123" /><polyline
       points="229.933,427.993 229.467,427.993 "
       id="polyline125" /><polyline
       points="229.933,427.993 229.623,434.218 "
       id="polyline127" /><polyline
       points="229.623,434.218 229.155,434.14 "
       id="polyline129" /><polyline
       points="229.155,434.14 228.067,456.161 "
       id="polyline131" /><polyline
       points="235.769,346.838 235.925,346.76 236.081,346.682 236.158,346.604 236.237,346.604 "
       id="polyline133" /><polyline
       points="230.401,456.783 235.769,346.838 "
       id="polyline135" /><polyline
       points="355.441,345.749 355.441,346.371 355.441,346.838 355.441,347.071 "
       id="polyline137" /><polyline
       points="355.441,345.67 355.441,345.515 "
       id="polyline139" /><polyline
       points="349.683,342.87 349.683,342.87 "
       id="polyline141" /><polyline
       points="355.441,345.515 355.441,345.281 355.441,345.048 355.441,344.971 355.441,344.892 "
       id="polyline143" /><polyline
       points="355.441,344.892 355.441,318.204 "
       id="polyline145" /><polyline
       points="350.228,332.832 350.228,332.832 "
       id="polyline147" /><polyline
       points="350.228,331.276 350.228,331.431 350.228,331.509 "
       id="polyline149" /><polyline
       points="350.228,331.509 350.228,332.832 "
       id="polyline151" /><polyline
       points="350.228,319.215 350.228,319.215 "
       id="polyline153" /><polyline
       points="350.228,317.659 350.228,317.815 350.228,317.893 "
       id="polyline155" /><polyline
       points="350.228,317.893 350.228,319.215 "
       id="polyline157" /><polyline
       points="350.228,342.714 350.228,342.947 350.306,343.414 350.461,343.881 350.695,344.27 350.928,344.582 "
       id="polyline159" /><polyline
       points="350.228,325.985 350.228,325.985 "
       id="polyline161" /><polyline
       points="350.228,324.506 350.228,324.662 350.228,324.74 "
       id="polyline163" /><polyline
       points="350.228,324.74 350.228,325.985 "
       id="polyline165" /><polyline
       points="350.228,339.601 350.228,339.601 "
       id="polyline167" /><polyline
       points="350.228,338.045 350.228,338.279 350.228,338.357 "
       id="polyline169" /><polyline
       points="350.228,338.357 350.228,339.601 "
       id="polyline171" /><polyline
       points="355.441,318.204 355.441,317.504 355.441,316.725 355.441,316.025 355.441,315.48 355.441,314.78 355.441,314.002 355.441,313.768 "
       id="polyline173" /><polyline
       points="355.441,345.515 355.441,345.67 "
       id="polyline175" /><polyline
       points="355.441,344.892 355.441,344.971 355.441,345.048 355.441,345.281 355.441,345.437 355.441,345.515 "
       id="polyline177" /><polyline
       points="355.441,318.204 355.441,344.892 "
       id="polyline179" /><polyline
       points="360.577,339.601 360.577,338.357 "
       id="polyline181" /><polyline
       points="360.577,338.357 360.577,338.201 360.577,338.123 "
       id="polyline183" /><polyline
       points="360.577,339.601 360.577,339.601 "
       id="polyline185" /><polyline
       points="360.577,332.832 360.577,331.509 "
       id="polyline187" /><polyline
       points="360.577,331.509 360.577,331.431 360.577,331.276 "
       id="polyline189" /><polyline
       points="360.577,332.832 360.577,332.832 "
       id="polyline191" /><polyline
       points="360.577,325.985 360.577,324.74 "
       id="polyline193" /><polyline
       points="360.577,324.74 360.577,324.584 360.577,324.506 "
       id="polyline195" /><polyline
       points="360.577,325.985 360.577,325.985 "
       id="polyline197" /><polyline
       points="360.577,319.215 360.577,317.893 "
       id="polyline199" /><polyline
       points="360.577,317.893 360.577,317.815 360.577,317.659 "
       id="polyline201" /><polyline
       points="360.577,319.215 360.577,319.215 "
       id="polyline203" /><polyline
       points="359.72,344.815 359.798,344.659 360.109,344.27 360.343,343.881 360.498,343.414 360.577,342.947 360.577,342.714 "
       id="polyline205" /><polyline
       points="355.441,313.768 355.441,314.547 355.441,315.247 355.441,316.025 355.441,316.492 355.441,317.27 355.441,317.97 355.441,318.204 "
       id="polyline207" /><polyline
       points="355.441,347.071 355.441,346.838 355.441,346.371 355.441,345.749 "
       id="polyline209" /><polyline
       points="361.121,342.87 361.121,342.87 "
       id="polyline211" /><polyline
       points="360.188,346.449 360.188,346.293 "
       id="polyline213" /><polyline
       points="361.121,343.725 361.121,344.037 361.043,344.659 360.81,345.204 360.498,345.749 360.498,345.826 "
       id="polyline215" /><polyline
       points="360.498,345.826 360.343,345.982 360.265,346.138 360.188,346.215 360.188,346.293 "
       id="polyline217" /><polyline
       points="473.164,343.725 473.164,344.114 473.319,344.737 473.553,345.281 473.786,345.826 "
       id="polyline219" /><polyline
       points="473.786,345.826 473.942,345.982 474.097,346.138 474.097,346.215 474.175,346.293 "
       id="polyline221" /><polyline
       points="237.637,343.725 237.637,344.037 237.481,344.659 237.325,345.204 237.015,345.749 237.015,345.826 "
       id="polyline223" /><polyline
       points="349.683,343.725 349.683,344.114 349.839,344.737 349.994,345.281 350.306,345.826 "
       id="polyline225" /><polyline
       points="350.617,346.449 350.617,346.293 "
       id="polyline227" /><polyline
       points="237.015,345.826 236.859,345.982 236.703,346.138 236.703,346.215 236.626,346.293 "
       id="polyline229" /><polyline
       points="350.306,345.826 350.461,345.982 350.539,346.138 350.617,346.215 350.617,346.293 "
       id="polyline231" /><polyline
       points="222.386,430.872 222.542,430.872 223.009,431.028 223.475,431.184 223.864,431.417 224.254,431.729 224.565,432.039 224.798,432.428 224.954,432.896 225.109,433.362 225.109,433.829 225.032,434.296 224.954,434.763 224.72,435.152 224.409,435.541 224.098,435.93 223.709,436.163 223.32,436.397 222.853,436.552 222.386,436.631 222.075,436.631 "
       id="polyline233" /><polyline
       points="231.568,331.898 231.568,331.743 231.568,331.665 231.645,331.587 231.801,331.665 232.035,331.82 232.501,332.132 232.735,332.21 "
       id="polyline235" /><polyline
       points="234.525,332.443 235.147,332.287 235.536,332.132 235.769,332.054 235.925,332.054 235.925,332.21 235.925,332.365 235.925,332.91 235.925,333.532 235.925,334.388 235.925,334.777 235.925,334.855 235.925,334.933 "
       id="polyline237" /><polyline
       points="232.735,332.21 233.202,332.365 233.746,332.443 234.525,332.443 "
       id="polyline239" /><polyline
       points="231.49,332.521 231.49,332.443 "
       id="polyline241" /><polyline
       points="235.847,332.988 235.847,335.166 "
       id="polyline243" /><polyline
       points="222.386,430.872 222.542,430.872 223.086,431.028 223.553,431.261 224.02,431.573 224.409,431.962 224.72,432.428 224.954,432.973 225.032,433.518 225.032,434.063 224.954,434.607 224.72,435.152 224.409,435.619 223.942,436.008 223.475,436.319 223.009,436.475 222.464,436.631 221.997,436.631 "
       id="polyline245" /><polyline
       points="488.726,436.631 488.414,436.631 487.948,436.552 487.48,436.397 487.091,436.163 486.702,435.93 486.392,435.541 486.08,435.23 485.924,434.763 485.768,434.296 485.691,433.829 485.691,433.362 485.847,432.896 486.002,432.428 486.236,432.039 486.547,431.729 486.936,431.417 487.325,431.184 487.792,431.028 488.259,430.872 488.414,430.872 "
       id="polyline247" /><polyline
       points="478.066,332.21 478.611,331.898 479,331.743 479.155,331.587 479.233,331.587 479.31,331.665 479.233,331.82 479.233,331.898 "
       id="polyline249" /><polyline
       points="474.875,334.777 474.875,334.155 474.875,333.377 474.875,332.832 474.875,332.521 474.875,332.287 474.875,332.132 474.953,332.054 475.187,332.132 475.42,332.21 476.042,332.365 476.276,332.443 "
       id="polyline251" /><polyline
       points="476.276,332.443 476.743,332.443 477.288,332.443 478.066,332.21 "
       id="polyline253" /><polyline
       points="474.953,335.166 474.953,332.988 "
       id="polyline255" /><polyline
       points="479.31,332.443 479.31,332.521 "
       id="polyline257" /><polyline
       points="488.803,436.631 488.337,436.631 487.792,436.475 487.325,436.319 486.858,436.008 486.392,435.619 486.08,435.152 485.847,434.607 485.768,434.063 485.768,433.518 485.847,432.973 486.08,432.428 486.392,431.962 486.781,431.573 487.247,431.261 487.714,431.028 488.259,430.872 488.414,430.872 "
       id="polyline259" /><polyline
       points="488.959,436.631 488.881,436.631 "
       id="polyline261" /><polyline
       points="481.178,434.218 481.178,434.218 "
       id="polyline263" /><polyline
       points="481.178,434.218 481.334,434.218 "
       id="polyline265" /><polyline
       points="480.945,427.993 481.178,434.218 "
       id="polyline267" /><polyline
       points="481.956,434.218 481.8,434.218 481.723,434.218 481.645,434.218 481.567,434.218 481.334,434.218 "
       id="polyline269" /><polyline
       points="481.334,434.218 481.022,427.993 "
       id="polyline271" /><polyline
       points="480.945,427.993 480.867,427.993 "
       id="polyline273" /><polyline
       points="481.022,427.993 480.945,427.993 "
       id="polyline275" /><polyline
       points="481.022,427.993 481.178,427.993 481.334,427.993 481.489,427.993 481.567,427.993 481.645,427.993 "
       id="polyline277" /><polyline
       points="481.723,428.071 481.645,427.993 "
       id="polyline279" /><polyline
       points="481.956,434.218 482.034,434.218 "
       id="polyline281" /><polyline
       points="482.034,434.218 482.034,434.14 "
       id="polyline283" /><polyline
       points="481.723,428.071 484.135,427.993 "
       id="polyline285" /><polyline
       points="484.135,427.993 484.291,428.071 484.446,428.305 484.524,428.46 484.68,428.616 "
       id="polyline287" /><polyline
       points="484.68,428.616 484.291,428.616 483.979,428.771 483.357,429.239 482.968,429.861 482.812,430.25 482.812,430.483 482.812,430.562 482.812,430.639 "
       id="polyline289" /><polyline
       points="482.812,430.639 482.89,431.495 482.89,431.962 482.89,432.195 482.89,432.273 482.89,432.351 482.89,432.428 "
       id="polyline291" /><polyline
       points="482.89,432.428 482.968,432.818 483.045,433.207 483.512,433.751 483.901,433.985 "
       id="polyline293" /><polyline
       points="229.623,434.218 229.467,434.14 "
       id="polyline295" /><polyline
       points="229.234,434.14 229.467,434.14 "
       id="polyline297" /><polyline
       points="228.845,434.218 228.922,434.14 229,434.14 "
       id="polyline299" /><polyline
       points="229.467,434.14 229.778,427.993 "
       id="polyline301" /><polyline
       points="228.845,434.218 228.845,434.218 "
       id="polyline303" /><polyline
       points="228.845,434.218 228.766,434.14 "
       id="polyline305" /><polyline
       points="226.665,427.916 226.51,428.071 226.355,428.227 226.276,428.382 226.121,428.538 "
       id="polyline307" /><polyline
       points="229,428.149 229,428.149 "
       id="polyline309" /><polyline
       points="226.121,428.538 226.51,428.616 226.899,428.771 227.522,429.16 227.911,429.861 227.988,430.25 227.988,430.406 227.988,430.562 227.988,430.639 "
       id="polyline311" /><polyline
       points="227.911,432.351 227.911,432.818 227.755,433.129 227.288,433.751 226.899,433.985 "
       id="polyline313" /><polyline
       points="227.988,430.639 227.988,431.495 227.911,432.351 "
       id="polyline315" /><polyline
       points="360.343,457.328 360.343,346.449 "
       id="polyline317" /><polyline
       points="350.461,457.328 350.461,346.449 "
       id="polyline319" /><polyline
       points="360.188,346.449 359.72,346.916 359.176,347.305 358.631,347.538 358.009,347.616 357.464,347.694 356.842,347.616 356.219,347.46 355.441,346.993 "
       id="polyline321" /><polyline
       points="355.441,346.993 354.897,347.305 354.352,347.538 353.729,347.694 353.106,347.694 352.484,347.616 351.939,347.382 351.395,347.149 350.928,346.76 350.617,346.449 "
       id="polyline323" /><polyline
       points="231.412,446.823 231.49,446.823 231.568,446.823 231.645,446.823 231.723,446.823 231.801,446.823 231.957,446.823 232.035,446.823 "
       id="polyline325" /><polyline
       points="349.372,446.823 349.45,446.823 349.605,446.823 349.683,446.823 349.839,446.823 349.916,446.823 349.994,446.823 "
       id="polyline327" /><polyline
       points="360.81,446.823 360.887,446.823 360.966,446.823 361.121,446.823 361.199,446.823 361.355,446.823 361.432,446.823 "
       id="polyline329" /><polyline
       points="478.766,446.823 478.766,446.823 "
       id="polyline331" /><polyline
       points="478.766,446.823 478.921,446.823 479,446.823 479.155,446.823 479.233,446.823 479.31,446.823 479.389,446.823 "
       id="polyline333" /><polyline
       points="236.47,356.953 236.314,356.953 236.158,356.953 236.081,356.953 236.003,356.953 235.925,356.953 235.847,356.953 235.769,356.953 "
       id="polyline335" /><polyline
       points="349.994,356.953 349.916,356.953 349.839,356.953 349.683,356.953 349.605,356.953 349.45,356.953 349.372,356.953 "
       id="polyline337" /><polyline
       points="474.331,356.953 474.331,356.953 "
       id="polyline339" /><polyline
       points="361.432,356.953 361.355,356.953 361.199,356.953 361.121,356.953 360.966,356.953 360.887,356.953 360.81,356.953 "
       id="polyline341" /><polyline
       points="475.031,356.953 474.953,356.953 474.875,356.953 474.798,356.953 474.72,356.953 474.642,356.953 474.486,356.953 474.331,356.953 "
       id="polyline343" /><polyline
       points="349.994,446.823 349.916,446.823 349.839,446.823 349.683,446.823 349.605,446.823 349.45,446.823 349.372,446.823 "
       id="polyline345" /><polyline
       points="349.372,356.953 349.45,356.953 349.605,356.953 349.683,356.953 349.839,356.953 349.916,356.953 349.994,356.953 "
       id="polyline347" /><polyline
       points="360.81,356.953 360.887,356.953 360.966,356.953 361.121,356.953 361.199,356.953 361.355,356.953 361.432,356.953 "
       id="polyline349" /><polyline
       points="361.432,446.823 361.355,446.823 361.199,446.823 361.121,446.823 360.966,446.823 360.887,446.823 360.81,446.823 "
       id="polyline351" /><polyline
       points="235.769,356.953 235.847,356.953 235.925,356.953 236.003,356.953 236.081,356.953 236.158,356.953 236.314,356.953 236.47,356.953 "
       id="polyline353" /><polyline
       points="232.035,446.823 231.879,446.823 231.801,446.823 231.645,446.823 231.568,446.823 231.49,446.823 231.412,446.823 "
       id="polyline355" /><polyline
       points="474.331,356.953 474.486,356.953 474.642,356.953 474.72,356.953 474.798,356.953 474.875,356.953 474.953,356.953 475.031,356.953 "
       id="polyline357" /><polyline
       points="474.331,356.953 474.331,356.953 "
       id="polyline359" /><polyline
       points="479.389,446.823 479.31,446.823 479.233,446.823 479.155,446.823 479.077,446.823 479,446.823 478.844,446.823 478.766,446.823 "
       id="polyline361" /><polyline
       points="478.766,446.823 478.766,446.823 "
       id="polyline363" /><polyline
       points="473.164,342.87 473.164,343.025 473.164,343.18 473.164,343.336 473.164,343.414 473.164,343.569 473.164,343.725 "
       id="polyline365" /><polyline
       points="480.478,343.725 480.478,343.414 480.478,342.87 "
       id="polyline367" /><polyline
       points="473.164,342.791 473.164,342.791 "
       id="polyline369" /><polyline
       points="480.478,342.791 480.478,342.791 "
       id="polyline371" /><polyline
       points="473.708,315.947 473.708,317.659 "
       id="polyline373" /><polyline
       points="473.708,319.215 473.708,324.506 "
       id="polyline375" /><polyline
       points="473.708,326.062 473.708,331.276 "
       id="polyline377" /><polyline
       points="473.708,332.832 473.708,338.045 "
       id="polyline379" /><polyline
       points="473.708,339.601 473.708,342.714 "
       id="polyline381" /><polyline
       points="479.933,338.279 479.933,315.947 "
       id="polyline383" /><polyline
       points="230.323,342.87 230.323,343.414 230.323,343.881 230.323,344.348 230.323,344.659 230.323,344.971 230.323,345.126 230.323,345.204 230.323,345.281 "
       id="polyline385" /><polyline
       points="237.637,343.725 237.637,343.569 237.637,343.414 237.637,343.336 237.637,343.18 237.637,343.025 237.637,342.87 "
       id="polyline387" /><polyline
       points="230.323,342.791 230.323,342.791 "
       id="polyline389" /><polyline
       points="237.637,342.791 237.637,342.791 "
       id="polyline391" /><polyline
       points="230.867,315.947 230.867,338.279 "
       id="polyline393" /><polyline
       points="237.092,342.714 237.092,339.601 "
       id="polyline395" /><polyline
       points="237.092,338.045 237.092,332.832 "
       id="polyline397" /><polyline
       points="237.092,331.276 237.092,326.062 "
       id="polyline399" /><polyline
       points="237.092,324.506 237.092,319.215 "
       id="polyline401" /><polyline
       points="237.092,317.659 237.092,315.947 "
       id="polyline403" /><polyline
       points="230.945,462.152 350.539,462.152 "
       id="polyline405" /><polyline
       points="360.265,462.152 479.855,462.152 "
       id="polyline407" /><polyline
       points="483.434,427.604 482.034,399.593 "
       id="polyline409" /><polyline
       points="484.835,456.939 483.746,434.14 "
       id="polyline411" /><polyline
       points="228.766,399.593 227.366,427.604 "
       id="polyline413" /><polyline
       points="227.054,434.14 225.965,456.939 "
       id="polyline415" /><polyline
       points="349.683,342.87 349.683,343.025 349.683,343.18 349.683,343.336 349.683,343.414 349.683,343.569 349.683,343.725 "
       id="polyline417" /><polyline
       points="349.683,342.791 349.683,342.791 "
       id="polyline419" /><polyline
       points="350.228,315.947 350.228,317.659 "
       id="polyline421" /><polyline
       points="350.228,319.215 350.228,324.506 "
       id="polyline423" /><polyline
       points="350.228,326.062 350.228,331.276 "
       id="polyline425" /><polyline
       points="350.228,332.832 350.228,338.045 "
       id="polyline427" /><polyline
       points="350.228,339.601 350.228,342.714 "
       id="polyline429" /><polyline
       points="361.121,342.791 361.121,342.791 "
       id="polyline431" /><polyline
       points="360.577,342.714 360.577,339.601 "
       id="polyline433" /><polyline
       points="360.577,338.045 360.577,332.832 "
       id="polyline435" /><polyline
       points="360.577,331.276 360.577,326.062 "
       id="polyline437" /><polyline
       points="360.577,324.506 360.577,319.215 "
       id="polyline439" /><polyline
       points="360.577,317.659 360.577,315.947 "
       id="polyline441" /><polyline
       points="361.121,343.725 361.121,343.569 361.121,343.414 361.121,343.336 361.121,343.18 361.121,343.025 361.121,342.87 "
       id="polyline443" /><polyline
       points="221.997,436.631 222.075,436.631 "
       id="polyline445" /><polyline
       points="231.568,331.898 231.49,332.21 231.49,332.676 "
       id="polyline447" /><polyline
       points="235.847,335.089 235.925,334.777 "
       id="polyline449" /><polyline
       points="225.187,433.596 225.265,433.207 225.265,432.818 225.343,432.428 225.343,432.195 225.343,431.962 225.343,431.729 225.421,431.184 225.421,430.717 225.421,430.327 225.498,429.861 225.498,429.316 225.576,428.694 225.654,427.682 225.732,426.515 225.887,425.426 225.965,424.258 226.121,423.091 226.276,421.924 226.665,419.045 226.977,416.011 227.443,412.509 227.755,409.086 228.144,405.817 228.533,401.616 229,397.492 229.467,393.29 229.933,389.011 230.323,385.743 230.634,382.397 231.023,379.051 231.412,375.55 231.801,372.048 232.19,368.469 232.501,364.967 232.89,361.388 233.279,358.043 233.357,357.031 233.513,356.019 233.591,355.086 233.746,353.996 233.824,352.752 233.98,351.35 234.213,349.794 234.446,348.005 234.602,346.06 234.914,344.037 235.069,342.325 235.303,340.535 235.458,338.823 235.692,336.956 235.847,335.166 "
       id="polyline451" /><polyline
       points="225.187,433.362 225.187,433.285 225.265,433.207 "
       id="polyline453" /><polyline
       points="231.49,332.521 231.256,334.388 231.101,336.256 230.945,337.968 230.79,339.601 230.634,341.158 230.478,342.481 230.323,343.803 230.245,344.892 230.089,345.904 230.012,346.993 229.856,348.083 229.778,349.172 229.467,351.818 229.155,354.463 228.845,357.186 228.533,359.755 228.222,362.089 227.832,365.045 227.443,367.925 227.054,370.959 226.665,374.227 226.199,377.573 225.732,381.152 225.265,384.964 224.798,388.933 224.331,392.435 223.864,395.858 223.475,399.126 223.009,402.238 222.62,405.273 222.231,407.997 221.919,410.72 221.53,413.521 221.141,416.556 220.908,418.501 220.675,420.601 220.441,422.625 220.207,424.492 220.13,425.426 219.974,426.359 219.818,427.215 219.741,428.071 219.585,429.005 219.429,429.705 219.352,430.017 219.352,430.327 219.273,430.562 219.273,430.872 219.196,431.261 219.118,431.806 219.118,432.195 219.04,432.818 219.04,433.207 219.118,433.518 219.118,433.829 219.196,434.218 219.352,434.53 219.507,434.919 219.818,435.308 220.051,435.697 220.286,435.852 220.441,436.008 220.519,436.008 220.519,436.086 220.596,436.086 220.596,436.163 220.675,436.163 220.752,436.241 220.83,436.241 220.985,436.319 221.141,436.397 221.374,436.475 221.686,436.552 221.997,436.631 "
       id="polyline455" /><polyline
       points="488.726,436.631 488.803,436.631 "
       id="polyline457" /><polyline
       points="479.31,332.676 479.31,332.21 479.233,331.898 "
       id="polyline459" /><polyline
       points="474.875,334.777 474.953,335.089 "
       id="polyline461" /><polyline
       points="485.535,433.207 485.613,433.285 485.613,433.362 "
       id="polyline463" /><polyline
       points="488.803,436.631 489.115,436.552 489.426,436.475 489.659,436.397 489.815,436.319 489.97,436.241 490.048,436.241 490.048,436.163 490.126,436.163 490.204,436.086 490.282,436.086 490.36,436.008 490.515,435.852 490.671,435.697 490.982,435.385 491.215,434.996 491.449,434.607 491.527,434.296 491.604,433.907 491.682,433.596 491.76,433.285 491.76,432.973 491.682,432.428 491.682,431.962 491.604,431.495 491.527,430.951 491.527,430.639 491.449,430.406 491.449,430.094 491.371,429.861 491.215,429.005 491.06,427.993 490.904,426.982 490.749,425.893 490.593,424.881 490.515,423.714 490.282,421.847 490.048,419.823 489.815,417.8 489.192,412.587 488.492,407.529 488.181,405.118 487.869,402.705 487.559,400.449 487.247,398.27 486.936,396.169 486.625,394.068 486.392,391.734 486.08,389.322 485.691,386.676 485.379,383.876 484.99,380.996 484.601,377.806 484.212,374.616 483.823,371.815 483.512,369.092 483.123,366.679 482.89,364.423 482.579,362.322 482.423,360.61 482.189,358.976 481.956,357.264 481.723,355.397 481.489,353.451 481.256,351.35 481.1,350.028 480.945,348.55 480.789,346.993 480.633,345.281 480.4,343.414 480.244,341.469 480.011,339.368 479.778,337.111 479.544,334.855 479.31,332.521 "
       id="polyline465" /><polyline
       points="474.953,335.166 475.187,337.267 475.342,339.368 475.653,341.391 475.887,343.414 476.042,345.36 476.276,347.227 476.51,348.939 476.743,350.728 476.899,352.363 477.054,353.763 477.209,355.008 477.365,356.175 477.677,359.287 477.987,362.322 478.299,365.201 478.688,368.547 479,371.97 479.389,375.55 479.778,379.207 480.244,383.175 480.711,387.299 481.022,390.489 481.411,393.835 481.8,397.103 482.112,400.216 482.423,403.172 482.734,405.973 482.968,408.696 483.279,411.264 483.59,413.987 483.901,416.867 484.291,419.901 484.68,423.014 484.835,424.492 484.99,425.893 485.146,427.215 485.224,428.46 485.302,429.16 485.302,429.783 485.379,430.327 485.379,430.717 485.379,430.951 485.379,431.028 485.379,431.106 485.379,431.417 485.458,431.806 485.458,432.039 485.458,432.273 485.535,432.662 485.535,433.129 485.613,433.596 "
       id="polyline467" /><polyline
       points="485.224,428.382 485.224,428.305 485.146,428.227 485.069,428.227 484.99,428.149 484.835,428.071 484.757,427.993 484.601,427.916 484.446,427.838 483.823,427.527 483.668,427.449 483.59,427.371 483.512,427.371 483.434,427.293 483.357,427.293 "
       id="polyline469" /><polyline
       points="482.034,434.218 482.423,434.218 482.812,434.218 483.123,434.14 483.279,434.14 483.357,434.14 483.434,434.14 483.59,434.14 483.668,434.14 483.746,434.14 483.823,434.14 483.979,434.14 484.135,434.14 "
       id="polyline471" /><polyline
       points="483.901,434.063 484.212,434.218 484.446,434.374 484.68,434.53 484.913,434.607 485.069,434.763 485.302,434.841 485.458,434.996 485.613,434.996 485.691,435.074 485.847,435.152 485.924,435.23 486.002,435.23 486.157,435.308 486.236,435.385 "
       id="polyline473" /><polyline
       points="227.443,427.293 227.366,427.293 227.288,427.371 227.21,427.371 227.133,427.449 226.977,427.527 226.899,427.604 226.744,427.604 226.588,427.682 225.965,428.071 225.81,428.149 225.732,428.227 225.654,428.227 225.576,428.305 "
       id="polyline475" /><polyline
       points="226.744,434.14 226.821,434.14 226.977,434.14 227.054,434.14 227.21,434.14 227.288,434.14 227.443,434.14 227.677,434.14 227.988,434.14 228.456,434.218 228.845,434.218 "
       id="polyline477" /><polyline
       points="224.565,435.308 224.643,435.308 224.72,435.308 224.798,435.23 224.876,435.152 224.954,435.152 225.343,434.919 225.498,434.841 225.732,434.763 225.887,434.607 226.043,434.53 226.199,434.452 226.432,434.296 226.665,434.218 226.899,434.063 "
       id="polyline479" /></g><g
     clip-path="url(#clipId0)"
     id="g481"
     style="fill:none;stroke:#2d2d2c;stroke-width:0.34999999"
     transform="translate(-218.915,-309.172)"><polyline
       points="234.414,315.949 233.552,315.949 234.414,315.949 "
       id="polyline483" /><polyline
       points="236.231,315.949 235.573,317.539 233.983,318.198 232.393,317.539 231.735,315.949 232.393,314.36 233.983,313.702 235.573,314.36 236.231,315.949 "
       id="polyline485" /><polyline
       points="237.104,315.949 236.19,318.157 233.983,319.071 231.775,318.157 230.861,315.949 231.775,313.742 233.983,312.828 236.19,313.742 237.104,315.949 "
       id="polyline487" /><polyline
       points="354.85,317.631 352.497,318.021 351.17,316.402 351.782,314.36 353.582,313.712 354.532,314.032 355.422,313.613 354.223,312.949 352.156,313.073 350.313,315.32 351.164,318.157 353.664,319.057 354.981,318.612 354.85,317.631 "
       id="polyline489" /><polyline
       points="353.372,316.38 353.372,315.518 353.372,316.38 "
       id="polyline491" /><polyline
       points="353.372,315.518 353.372,316.38 353.372,315.518 "
       id="polyline493" /><polyline
       points="357.473,312.828 356.105,313.152 355.582,313.761 356.669,313.854 357.927,313.747 359.545,315.074 359.338,317.206 357.473,318.198 355.869,317.81 355.504,318.213 356.358,318.859 358.103,319.007 360.35,317.164 360.062,314.204 357.473,312.828 "
       id="polyline495" /><polyline
       points="355.422,313.613 355.177,314.62 355.995,314.268 "
       id="polyline497" /><polyline
       points="355.995,317.631 355.422,316.863 354.85,317.631 355.422,318.286 355.995,317.631 "
       id="polyline499" /><polyline
       points="357.473,315.518 357.473,316.38 357.473,315.518 "
       id="polyline501" /><polyline
       points="357.473,316.38 357.473,315.518 357.473,316.38 "
       id="polyline503" /><polyline
       points="477.282,315.949 476.42,315.949 477.282,315.949 "
       id="polyline505" /><polyline
       points="479.099,315.949 478.441,317.539 476.851,318.198 475.261,317.539 474.603,315.949 475.261,314.36 476.851,313.702 478.441,314.36 479.099,315.949 "
       id="polyline507" /><polyline
       points="479.973,315.949 479.059,318.157 476.851,319.071 474.644,318.157 473.73,315.949 474.644,313.742 476.851,312.828 479.059,313.742 479.973,315.949 "
       id="polyline509" /></g><g
     clip-path="url(#clipId0)"
     id="g511"
     style="fill:none;stroke:#2d2d2c;stroke-width:0.40000001"
     transform="translate(-218.915,-309.172)"><polyline
       points="482.999,459.793 482.082,459.793 482.999,459.793 "
       id="polyline513" /><polyline
       points="484.929,459.793 484.23,461.482 482.541,462.181 480.852,461.482 480.153,459.793 480.852,458.104 482.541,457.405 484.23,458.104 484.929,459.793 "
       id="polyline515" /><polyline
       points="485.857,459.793 484.886,462.138 482.541,463.109 480.196,462.138 479.225,459.793 480.196,457.448 482.541,456.477 484.886,457.448 485.857,459.793 "
       id="polyline517" /><polyline
       points="228.717,459.793 227.8,459.793 228.717,459.793 "
       id="polyline519" /><polyline
       points="230.646,459.793 229.947,461.482 228.259,462.181 226.57,461.482 225.871,459.793 226.57,458.104 228.259,457.405 229.947,458.104 230.646,459.793 "
       id="polyline521" /><polyline
       points="231.575,459.793 230.604,462.138 228.259,463.109 225.913,462.138 224.943,459.793 225.913,457.448 228.259,456.477 230.604,457.448 231.575,459.793 "
       id="polyline523" /><polyline
       points="354.735,461.579 353.764,462.117 352.093,462.016 350.604,460.2 351.292,457.908 353.312,457.181 354.378,457.54 355.377,457.069 354.03,456.325 351.712,456.464 349.643,458.985 350.598,462.169 353.403,463.179 354.882,462.68 354.735,461.579 "
       id="polyline525" /><polyline
       points="353.075,460.176 353.075,459.208 353.075,460.176 "
       id="polyline527" /><polyline
       points="353.075,459.208 353.075,460.176 353.075,459.208 "
       id="polyline529" /><polyline
       points="357.678,456.189 356.142,456.553 355.556,457.237 356.776,457.34 358.187,457.221 360.003,458.71 359.771,461.102 357.678,462.214 355.879,461.78 355.468,462.232 356.427,462.957 358.385,463.123 360.907,461.055 360.584,457.733 357.678,456.189 "
       id="polyline531" /><polyline
       points="355.377,457.069 355.102,458.2 355.502,458.425 356.02,457.804 "
       id="polyline533" /><polyline
       points="356.019,461.579 355.377,460.717 354.735,461.579 355.377,462.314 356.019,461.579 "
       id="polyline535" /><polyline
       points="357.678,459.208 357.678,460.176 357.678,459.208 "
       id="polyline537" /><polyline
       points="357.678,460.176 357.678,459.208 357.678,460.176 "
       id="polyline539" /><polyline
       points="355.378,458.476 355.378,460.907 "
       id="polyline541" /></g><g
     clip-path="url(#clipId0)"
     id="g543"
     style="fill:none;stroke:#000000;stroke-width:0.25"
     transform="translate(-218.915,-309.172)"><polyline
       points="236.518,460.512 237.758,460.514 241.251,460.519 246.662,460.529 253.655,460.543 271.042,460.59 290.721,460.665 310.003,460.774 318.655,460.842 326.199,460.922 332.299,461.012 336.619,461.115 341.679,460.985 345.158,460.126 347.376,458.797 349.139,455.781 349.187,454.046 349.186,453.372 349.201,450.959 349.249,443.295 349.292,436.213 349.302,434.528 349.318,434.006 349.387,432.17 349.494,429.321 349.741,422.732 349.841,420.062 349.899,418.524 349.854,417.043 349.696,413.04 349.537,409.037 349.489,407.586 349.577,404.089 349.715,398.612 349.813,394.719 349.86,392.847 350.176,380.294 350.228,378.24 350.241,377.663 350.178,375.616 350.045,370.315 349.888,361.889 349.551,351.926 349.053,348.726 348.42,346.697 347.151,345.103 346.548,345.039 345.056,345.045 340.872,345.062 334.437,345.088 326.191,345.121 306.03,345.203 283.912,345.293 263.36,345.377 254.772,345.412 247.896,345.439 243.174,345.459 241.045,345.467 240.343,345.498 236.752,347.501 236.105,350.94 236.049,356.903 236.552,362.56 236.394,366.415 235.875,372.71 235.114,386.377 235.14,391.048 235.231,393.938 235.305,395.195 235.302,395.412 235.166,397.255 234.597,404.999 233.98,413.379 233.786,416.018 233.732,416.831 233.683,419.437 233.584,424.729 233.323,438.764 233.203,445.207 233.118,449.731 233.09,451.22 233.054,451.84 233.116,455.086 234.01,458.842 236.518,460.512 "
       id="polyline545" /><polyline
       points="352.014,318.538 351.912,316.259 350.733,314.258 347.87,312.438 342.623,311.364 335.02,311.161 328.542,310.78 323.227,310.265 304.662,309.297 284.201,309.324 279.467,309.432 276.042,309.533 269.484,309.68 264.535,309.711 258.154,309.768 252.718,310.009 248.37,310.343 242.678,310.865 238.344,311.258 236.183,313.744 236.062,317.932 "
       id="polyline547" /><polyline
       points="236.162,317.536 240.252,316.06 246.342,315.796 251.139,316.024 252.025,316.099 254.657,315.968 265.743,314.94 270.208,314.636 272.503,314.594 275.852,314.503 292.207,313.957 297.087,313.838 302.972,314.068 309.843,314.488 315.623,314.861 320.741,315.349 328.506,316.365 336.678,317.268 342.884,317.43 347.242,317.622 350.237,318.069 351.674,318.413 351.782,318.608 351.889,320.832 352.061,324.986 352.226,330.22 352.242,340.525 351.947,343.895 351.04,345.012 347.762,345.125 341.818,345.209 333.683,345.267 323.83,345.304 300.874,345.324 276.747,345.295 265.432,345.27 255.25,345.243 246.674,345.217 240.179,345.195 236.242,345.181 235.25,345.158 235.223,343.465 235.182,339.62 235.166,334.465 235.372,323.581 235.674,319.534 236.162,317.536 "
       id="polyline549" /><polyline
       points="474.095,460.512 472.856,460.514 469.363,460.519 463.952,460.529 456.959,460.543 439.572,460.59 419.893,460.665 400.61,460.774 391.958,460.842 384.414,460.922 378.314,461.012 373.994,461.115 368.935,460.985 365.456,460.126 363.238,458.797 361.475,455.781 361.427,454.046 361.427,453.372 361.413,450.959 361.365,443.295 361.322,436.213 361.311,434.528 361.296,434.006 361.227,432.17 361.12,429.321 360.873,422.732 360.773,420.062 360.715,418.524 360.76,417.043 360.918,413.04 361.077,409.037 361.124,407.586 361.036,404.089 360.899,398.612 360.801,394.719 360.754,392.847 360.438,380.294 360.386,378.24 360.373,377.663 360.436,375.616 360.569,370.315 360.726,361.889 361.063,351.926 361.561,348.726 362.194,346.697 363.463,345.103 364.066,345.039 365.558,345.045 369.742,345.062 376.177,345.088 384.423,345.121 404.584,345.203 426.702,345.293 447.254,345.377 455.842,345.412 462.718,345.439 467.44,345.459 469.568,345.467 470.271,345.498 473.862,347.501 474.509,350.94 474.565,356.903 474.062,362.56 474.22,366.415 474.739,372.71 475.5,386.377 475.475,391.048 475.383,393.938 475.309,395.195 475.312,395.412 475.448,397.255 476.017,404.999 476.634,413.379 476.828,416.018 476.882,416.831 476.931,419.437 477.029,424.729 477.291,438.764 477.411,445.207 477.496,449.731 477.524,451.22 477.56,451.84 477.498,455.086 476.604,458.842 474.095,460.512 "
       id="polyline551" /><polyline
       points="358.599,318.538 358.702,316.259 359.881,314.258 362.743,312.438 367.99,311.364 375.594,311.161 382.072,310.78 387.387,310.265 405.952,309.297 426.413,309.324 431.147,309.432 434.572,309.533 441.13,309.68 446.079,309.711 452.46,309.768 457.896,310.009 462.244,310.343 467.936,310.865 472.271,311.258 474.431,313.744 474.552,317.932 "
       id="polyline553" /><polyline
       points="474.452,317.536 470.362,316.06 464.273,315.796 459.475,316.024 458.59,316.099 455.957,315.968 444.871,314.94 440.405,314.636 438.111,314.594 434.762,314.503 418.407,313.957 413.527,313.838 407.642,314.068 400.77,314.488 394.99,314.861 389.872,315.349 382.108,316.365 373.935,317.268 367.73,317.43 363.372,317.622 360.377,318.069 358.94,318.413 358.832,318.608 358.725,320.832 358.553,324.986 358.388,330.22 358.372,340.525 358.666,343.895 359.574,345.012 362.852,345.125 368.796,345.209 376.931,345.267 386.784,345.304 409.74,345.324 433.867,345.295 445.181,345.27 455.364,345.243 463.94,345.217 470.434,345.195 474.372,345.181 475.364,345.158 475.391,343.465 475.432,339.62 475.448,334.465 475.242,323.581 474.94,319.534 474.452,317.536 "
       id="polyline555" /><polyline
       points="236.751,318.075 236.751,318.075 "
       id="polyline557" /></g><g
     clip-path="url(#clipId0)"
     id="g559"
     style="fill:none;stroke:#2d2d2c;stroke-width:0.30000001"
     transform="translate(-218.915,-309.172)"><polyline
       points="236.438,322.078 230.97,322.009 "
       id="polyline561" /><polyline
       points="236.402,324.125 230.81,324.024 "
       id="polyline563" /><polyline
       points="355.472,322.078 350.003,322.009 "
       id="polyline565" /><polyline
       points="355.436,324.125 349.844,324.024 "
       id="polyline567" /><polyline
       points="474.47,322.078 479.938,322.009 "
       id="polyline569" /><polyline
       points="474.505,324.125 480.098,324.024 "
       id="polyline571" /><polyline
       points="355.436,322.078 360.904,322.009 "
       id="polyline573" /><polyline
       points="355.471,324.125 361.064,324.024 "
       id="polyline575" /></g></svg>