<?xml version="1.0" encoding="UTF-8" standalone="no"?>
<svg
   xmlns:dc="http://purl.org/dc/elements/1.1/"
   xmlns:cc="http://creativecommons.org/ns#"
   xmlns:rdf="http://www.w3.org/1999/02/22-rdf-syntax-ns#"
   xmlns:svg="http://www.w3.org/2000/svg"
   xmlns="http://www.w3.org/2000/svg"
   xmlns:sodipodi="http://sodipodi.sourceforge.net/DTD/sodipodi-0.dtd"
   xmlns:inkscape="http://www.inkscape.org/namespaces/inkscape"
   viewBox="0 0 296.126 114.798"
   version="1.1"
   xml:space="preserve"
   id="svg2"
   inkscape:version="0.48.5 r10040"
   width="100%"
   height="100%"
   sodipodi:docname="ow150-Model.svg"
   style="fill-rule:evenodd;stroke-linecap:round;stroke-linejoin:round"><metadata
     id="metadata67"><rdf:RDF><cc:Work
         rdf:about=""><dc:format>image/svg+xml</dc:format><dc:type
           rdf:resource="http://purl.org/dc/dcmitype/StillImage" /></cc:Work></rdf:RDF></metadata><sodipodi:namedview
     pagecolor="#ffffff"
     bordercolor="#666666"
     borderopacity="1"
     objecttolerance="10"
     gridtolerance="10"
     guidetolerance="10"
     inkscape:pageopacity="0"
     inkscape:pageshadow="2"
     inkscape:window-width="640"
     inkscape:window-height="480"
     id="namedview65"
     showgrid="false"
     fit-margin-top="0"
     fit-margin-left="0"
     fit-margin-right="0"
     fit-margin-bottom="0"
     inkscape:zoom="0.295"
     inkscape:cx="111.017"
     inkscape:cy="48.343"
     inkscape:window-x="0"
     inkscape:window-y="27"
     inkscape:window-maximized="0"
     inkscape:current-layer="svg2" /><defs
     id="defs4"><clipPath
       id="clipId0"><path
         d="M 0,800 800,800 800,0 0,0 z"
         id="path7"
         inkscape:connector-curvature="0" /></clipPath></defs><g
     clip-path="url(#clipId0)"
     id="g9"
     style="fill:none;stroke:#000000;stroke-width:0.1"
     transform="translate(-288.983,-333.545)" /><g
     clip-path="url(#clipId0)"
     id="g11"
     style="fill:none;stroke:#000000;stroke-width:0.18000001"
     transform="translate(-288.983,-333.545)"><polyline
       points="290.886,337.917 293.258,335.597 "
       id="polyline13" /><polyline
       points="290.411,338.866 290.886,337.917 "
       id="polyline15" /><polyline
       points="293.258,335.597 295.047,334.887 296.028,334.732 296.534,334.709 296.908,334.708 299.018,334.708 302.983,334.708 308.655,334.708 315.889,334.708 324.538,334.708 334.455,334.708 345.495,334.708 370.357,334.708 397.951,334.708 456.652,334.708 485.418,334.708 512.231,334.708 535.921,334.708 546.229,334.708 555.318,334.708 563.039,334.708 569.248,334.708 573.798,334.708 576.543,334.708 579.939,335.228 582.274,336.876 583.704,339.358 583.984,340.816 584.003,341.486 584.003,343.778 584.003,348.461 584.003,355.121 584.003,363.345 584.003,372.719 584.003,413.432 584.003,422.346 584.003,429.926 584.003,435.759 584.003,439.43 583.599,442.819 582.054,445.223 579.636,446.76 578.196,447.108 577.434,447.161 576.73,447.161 574.195,447.161 569.839,447.161 563.807,447.161 556.246,447.161 547.302,447.161 537.122,447.161 525.853,447.161 500.63,447.161 472.805,447.161 443.548,447.161 385.424,447.161 358.9,447.161 335.629,447.161 325.579,447.161 316.782,447.161 309.384,447.161 303.531,447.161 299.37,447.161 297.046,447.161 296.079,447.142 294.612,446.864 292.116,445.442 290.459,443.12 289.936,440.26 289.936,437.682 289.936,432.759 289.936,425.904 289.936,417.532 289.936,397.891 289.936,377.146 289.936,358.608 289.936,351.202 289.936,345.589 289.936,342.183 289.936,341.285 289.948,340.921 290.03,340.209 290.411,338.866 "
       id="polyline17" /><polyline
       points="327.973,334.708 327.973,446.987 "
       id="polyline19" /><polyline
       points="364.276,334.708 364.276,446.987 "
       id="polyline21" /><polyline
       points="400.579,334.708 400.579,446.987 "
       id="polyline23" /><polyline
       points="436.882,334.708 436.882,446.987 "
       id="polyline25" /><polyline
       points="473.184,334.708 473.184,446.987 "
       id="polyline27" /><polyline
       points="509.488,334.708 509.488,446.987 "
       id="polyline29" /><polyline
       points="545.79,334.708 545.79,446.987 "
       id="polyline31" /><polyline
       points="583.793,373.233 289.937,373.233 "
       id="polyline33" /><polyline
       points="583.793,408.256 289.937,408.256 "
       id="polyline35" /><polyline
       points="290.538,338.93 289.073,337.215 289.773,334.45 292.518,333.744 294.217,335.143 "
       id="polyline37" /><polyline
       points="290.983,337.971 290.085,336.909 290.52,335.198 292.191,334.752 293.212,335.515 "
       id="polyline39" /><polyline
       points="291.741,336.771 291.492,336.17 292.086,336.344 "
       id="polyline41" /><polyline
       points="434.637,334.772 436.882,333.635 439.141,334.791 "
       id="polyline43" /><polyline
       points="579.834,335.234 581.548,333.768 584.313,334.468 585.019,337.213 583.621,338.913 "
       id="polyline45" /><polyline
       points="580.793,335.679 581.854,334.781 583.565,335.216 584.011,336.886 583.248,337.908 "
       id="polyline47" /><polyline
       points="581.992,336.437 582.593,336.187 582.42,336.782 "
       id="polyline49" /><polyline
       points="290.538,442.958 289.073,444.673 289.773,447.438 292.518,448.143 294.217,446.745 "
       id="polyline51" /><polyline
       points="290.983,443.917 290.085,444.978 290.52,446.69 292.191,447.136 293.212,446.372 "
       id="polyline53" /><polyline
       points="291.741,445.116 291.492,445.718 292.086,445.544 "
       id="polyline55" /><polyline
       points="434.637,447.116 436.882,448.253 439.141,447.097 "
       id="polyline57" /><polyline
       points="579.834,446.654 581.548,448.12 584.313,447.419 585.019,444.674 583.621,442.975 "
       id="polyline59" /><polyline
       points="580.793,446.209 581.854,447.107 583.565,446.672 584.011,445.002 583.248,443.98 "
       id="polyline61" /><polyline
       points="581.992,445.451 582.593,445.7 582.42,445.106 "
       id="polyline63" /></g></svg>