<?xml version="1.0" encoding="UTF-8" standalone="no"?>
<svg
   xmlns:dc="http://purl.org/dc/elements/1.1/"
   xmlns:cc="http://creativecommons.org/ns#"
   xmlns:rdf="http://www.w3.org/1999/02/22-rdf-syntax-ns#"
   xmlns:svg="http://www.w3.org/2000/svg"
   xmlns="http://www.w3.org/2000/svg"
   xmlns:sodipodi="http://sodipodi.sourceforge.net/DTD/sodipodi-0.dtd"
   xmlns:inkscape="http://www.inkscape.org/namespaces/inkscape"
   viewBox="0 0 93.215 94.23"
   version="1.1"
   xml:space="preserve"
   id="svg2"
   inkscape:version="0.48.5 r10040"
   width="100%"
   height="100%"
   sodipodi:docname="pp56-Model.svg"
   style="fill-rule:evenodd;stroke-linecap:round;stroke-linejoin:round"><metadata
     id="metadata71"><rdf:RDF><cc:Work
         rdf:about=""><dc:format>image/svg+xml</dc:format><dc:type
           rdf:resource="http://purl.org/dc/dcmitype/StillImage" /></cc:Work></rdf:RDF></metadata><sodipodi:namedview
     pagecolor="#ffffff"
     bordercolor="#666666"
     borderopacity="1"
     objecttolerance="10"
     gridtolerance="10"
     guidetolerance="10"
     inkscape:pageopacity="0"
     inkscape:pageshadow="2"
     inkscape:window-width="640"
     inkscape:window-height="480"
     id="namedview69"
     showgrid="false"
     fit-margin-top="0"
     fit-margin-left="0"
     fit-margin-right="0"
     fit-margin-bottom="0"
     inkscape:zoom="0.295"
     inkscape:cx="-11.433"
     inkscape:cy="-82.604"
     inkscape:window-x="0"
     inkscape:window-y="27"
     inkscape:window-maximized="0"
     inkscape:current-layer="svg2" /><defs
     id="defs4"><clipPath
       id="clipId0"><path
         d="M 0,800 800,800 800,0 0,0 z"
         id="path7"
         inkscape:connector-curvature="0" /></clipPath></defs><g
     clip-path="url(#clipId0)"
     id="g9"
     style="fill:none;stroke:#000000;stroke-width:0.1"
     transform="translate(-411.433,-223.166)" /><g
     clip-path="url(#clipId0)"
     id="g11"
     style="fill:none;stroke:#000000;stroke-width:0.25"
     transform="translate(-411.433,-223.166)"><polyline
       points="497.459,290.711 496.937,289.489 497.532,288.324 498.735,287.723 499.521,288.169 499.303,293.443 499.15,296.078 499.046,297.109 498.791,295.809 497.459,290.711 "
       id="polyline13" /><polyline
       points="418.622,290.711 419.144,289.489 418.549,288.324 417.346,287.723 416.56,288.169 416.779,293.443 416.931,296.078 417.035,297.109 417.29,295.809 418.622,290.711 "
       id="polyline15" /><polyline
       points="502.131,309.488 502.105,308.742 "
       id="polyline17" /><polyline
       points="502.094,308.75 498.531,309.255 500.256,308.807 502.13,309.474 "
       id="polyline19" /><polyline
       points="497.385,309.612 497.385,312.225 497.385,313.531 498.068,313.472 497.506,311.014 498.087,309.845 497.385,309.612 "
       id="polyline21" /><polyline
       points="498.241,313.668 497.692,314.069 498.273,314.96 500.195,315.821 502.18,315.128 503.135,313.279 503.189,312.193 503.155,311.574 503.129,312.069 502.085,313.903 500.14,314.53 498.241,313.668 "
       id="polyline23" /><path
       d="m 503.155,311.565 a 2.86356,2.86356 0 0 0 -1.025,-2.091"
       id="path25"
       inkscape:connector-curvature="0" /><polyline
       points="502.105,308.742 500.422,308.721 "
       id="polyline27" /><circle
       cx="500.293"
       cy="311.67001"
       r="2.86356"
       id="circle29"
       sodipodi:cx="500.293"
       sodipodi:cy="311.67001"
       sodipodi:rx="2.86356"
       sodipodi:ry="2.86356"
       d="m 503.15656,311.67001 c 0,1.5815 -1.28206,2.86356 -2.86356,2.86356 -1.5815,0 -2.86356,-1.28206 -2.86356,-2.86356 0,-1.5815 1.28206,-2.86356 2.86356,-2.86356 1.5815,0 2.86356,1.28206 2.86356,2.86356 z" /><polyline
       points="413.95,309.488 413.976,308.742 "
       id="polyline31" /><polyline
       points="413.987,308.75 417.55,309.255 415.825,308.807 413.951,309.474 "
       id="polyline33" /><polyline
       points="418.696,309.612 418.696,312.225 418.696,313.531 418.013,313.472 418.575,311.014 417.995,309.845 418.696,309.612 "
       id="polyline35" /><polyline
       points="417.84,313.668 418.389,314.069 417.808,314.96 415.886,315.821 413.901,315.128 412.946,313.279 412.892,312.193 412.926,311.574 412.953,312.069 413.996,313.903 415.942,314.53 417.84,313.668 "
       id="polyline37" /><path
       d="m 413.951,309.474 a 2.86356,2.86356 0 0 0 -1.025,2.091"
       id="path39"
       inkscape:connector-curvature="0" /><polyline
       points="467.797,228.765 458.714,227.79 449.612,228.531 448.486,228.728 448.284,229.703 448.284,231.988 448.284,236.557 448.284,245.696 466.506,245.753 467.648,245.753 467.797,244.758 467.797,242.474 467.797,237.904 467.797,228.765 "
       id="polyline41" /><polyline
       points="458.041,226.024 467.361,226.961 476.424,229.336 484.793,233.551 488.403,236.541 491.191,240.287 491.006,240.783 490.16,239.972 488.455,238.364 484.74,235.491 476.392,231.182 467.362,228.685 458.041,227.774 448.719,228.685 439.689,231.182 431.341,235.491 427.626,238.364 425.921,239.972 425.075,240.783 424.89,240.287 427.678,236.541 431.288,233.551 439.657,229.336 448.72,226.961 458.041,226.024 "
       id="polyline43" /><polyline
       points="458.041,226.024 472.039,227.973 478.751,230.255 484.957,233.665 490.122,238.504 491.054,239.997 491.409,240.813 490.954,240.739 493.386,243.315 496.63,249.542 498.033,256.498 499.385,270.587 499.601,284.747 498.954,298.888 498.31,305.937 498.115,307.696 499.497,308.551 502.93,308.43 504.523,280.173 503.975,266.019 502.206,251.983 500.118,245.143 496.327,239.21 491.075,234.429 485.214,230.444 472.088,225.08 458.041,223.291 443.993,225.08 430.867,230.444 425.006,234.429 419.755,239.21 415.963,245.143 413.875,251.983 412.106,266.019 411.558,280.173 413.151,308.43 416.584,308.551 417.966,307.696 417.772,305.937 417.127,298.888 416.48,284.747 416.696,270.587 418.048,256.498 419.451,249.542 422.695,243.315 425.127,240.739 424.672,240.813 425.027,239.997 425.959,238.504 431.124,233.665 437.33,230.255 444.042,227.973 458.041,226.024 "
       id="polyline45" /><polyline
       points="497.817,241.04 499.455,243.734 500.13,245.171 500.435,245.907 500.665,245.698 500.408,242.584 497.817,241.04 "
       id="polyline47" /><polyline
       points="418.264,241.04 416.626,243.734 415.951,245.171 415.646,245.907 415.416,245.698 415.673,242.584 418.264,241.04 "
       id="polyline49" /><polyline
       points="415.539,246.181 413.525,253.812 412.506,261.555 411.589,277.179 413.139,308.413 "
       id="polyline51" /><polyline
       points="458.041,223.291 446.883,224.413 436.14,227.777 426.416,233.359 418.264,241.04 "
       id="polyline53" /><polyline
       points="413.976,308.742 415.659,308.721 "
       id="polyline55" /><polyline
       points="413.139,308.413 413.976,308.742 "
       id="polyline57" /><polyline
       points="423.337,242.578 425.203,240.668 "
       id="polyline59" /><polyline
       points="419.887,248.149 421.317,245.158 "
       id="polyline61" /><circle
       cx="415.78799"
       cy="311.67001"
       r="2.86356"
       id="circle63"
       sodipodi:cx="415.78799"
       sodipodi:cy="311.67001"
       sodipodi:rx="2.86356"
       sodipodi:ry="2.86356"
       d="m 418.65155,311.67001 c 0,1.5815 -1.28206,2.86356 -2.86356,2.86356 -1.5815,0 -2.86356,-1.28206 -2.86356,-2.86356 0,-1.5815 1.28206,-2.86356 2.86356,-2.86356 1.5815,0 2.86356,1.28206 2.86356,2.86356 z" /><polyline
       points="458.041,246.182 477.171,246.174 486.737,246.17 491.52,246.169 493.911,246.168 495.107,246.167 494.875,245.333 494.151,244.435 492.971,244.431 490.609,244.422 485.887,244.406 476.442,244.372 471.72,244.355 469.359,244.347 468.178,244.343 467.662,245.753 458.041,245.753 448.419,245.753 447.903,244.343 446.722,244.347 444.361,244.355 439.639,244.372 430.194,244.406 425.472,244.422 423.11,244.431 421.93,244.435 421.206,245.333 420.974,246.167 422.17,246.168 424.562,246.169 429.344,246.17 438.91,246.174 458.041,246.182 "
       id="polyline65" /><polyline
       points="458.041,317.271 470.348,316.921 481.015,315.871 490.043,314.121 497.429,311.67 496.194,248.149 495.349,246.167 458.041,246.182 420.733,246.167 419.887,248.149 418.652,311.67 426.039,314.121 435.066,315.871 445.733,316.921 458.041,317.271 "
       id="polyline67" /></g></svg>