<?xml version="1.0" encoding="UTF-8" standalone="no"?>
<svg
   xmlns:dc="http://purl.org/dc/elements/1.1/"
   xmlns:cc="http://creativecommons.org/ns#"
   xmlns:rdf="http://www.w3.org/1999/02/22-rdf-syntax-ns#"
   xmlns:svg="http://www.w3.org/2000/svg"
   xmlns="http://www.w3.org/2000/svg"
   xmlns:sodipodi="http://sodipodi.sourceforge.net/DTD/sodipodi-0.dtd"
   xmlns:inkscape="http://www.inkscape.org/namespaces/inkscape"
   viewBox="0 0 93.215 92.78"
   version="1.1"
   xml:space="preserve"
   id="svg2"
   inkscape:version="0.48.5 r10040"
   width="100%"
   height="100%"
   sodipodi:docname="pp66-Model.svg"
   style="fill-rule:evenodd;stroke-linecap:round;stroke-linejoin:round"><metadata
     id="metadata75"><rdf:RDF><cc:Work
         rdf:about=""><dc:format>image/svg+xml</dc:format><dc:type
           rdf:resource="http://purl.org/dc/dcmitype/StillImage" /></cc:Work></rdf:RDF></metadata><sodipodi:namedview
     pagecolor="#ffffff"
     bordercolor="#666666"
     borderopacity="1"
     objecttolerance="10"
     gridtolerance="10"
     guidetolerance="10"
     inkscape:pageopacity="0"
     inkscape:pageshadow="2"
     inkscape:window-width="640"
     inkscape:window-height="480"
     id="namedview73"
     showgrid="false"
     fit-margin-top="0"
     fit-margin-left="0"
     fit-margin-right="0"
     fit-margin-bottom="0"
     inkscape:zoom="0.295"
     inkscape:cx="51.877"
     inkscape:cy="59.097"
     inkscape:window-x="0"
     inkscape:window-y="27"
     inkscape:window-maximized="0"
     inkscape:current-layer="svg2" /><defs
     id="defs4"><clipPath
       id="clipId0"><path
         d="M 0,800 800,800 800,0 0,0 z"
         id="path7"
         inkscape:connector-curvature="0" /></clipPath></defs><g
     clip-path="url(#clipId0)"
     id="g9"
     style="fill:none;stroke:#000000;stroke-width:0.1"
     transform="translate(-348.123,-366.317)" /><g
     clip-path="url(#clipId0)"
     id="g11"
     style="fill:none;stroke:#000000;stroke-width:0.25"
     transform="translate(-348.123,-366.317)"><polyline
       points="431.537,388.44 432.8,391.063 430.608,392.199 426.611,396.447 418.617,404.943 402.63,421.935 400.631,424.059 399.632,425.121 398.185,425.146 392.352,425.146 389.567,424.842 387.568,422.718 383.571,418.47 367.584,401.478 359.59,392.982 357.401,391.3 356.672,391.3 356.797,390.705 357.392,389.377 358.228,388.31 359.686,388.31 362.602,388.31 374.268,388.31 380.1,388.31 383.017,388.31 384.475,388.31 385.339,388.904 431.537,388.44 "
       id="polyline13" /><polyline
       points="356.577,391.3 358.007,388.31 "
       id="polyline15" /><circle
       cx="352.478"
       cy="454.82101"
       r="2.86356"
       id="circle17"
       sodipodi:cx="352.478"
       sodipodi:cy="454.82101"
       sodipodi:rx="2.86356"
       sodipodi:ry="2.86356"
       d="m 355.34156,454.82101 c 0,1.5815 -1.28206,2.86356 -2.86356,2.86356 -1.5815,0 -2.86356,-1.28206 -2.86356,-2.86356 0,-1.5815 1.28206,-2.86356 2.86356,-2.86356 1.5815,0 2.86356,1.28206 2.86356,2.86356 z" /><polyline
       points="360.027,385.729 361.893,383.819 "
       id="polyline19" /><polyline
       points="349.829,451.565 350.666,451.893 "
       id="polyline21" /><polyline
       points="350.666,451.893 352.349,451.872 "
       id="polyline23" /><polyline
       points="394.73,366.442 383.573,367.564 372.83,370.928 363.106,376.511 354.954,384.192 "
       id="polyline25" /><polyline
       points="352.229,389.332 350.215,396.964 349.196,404.706 348.279,420.33 349.829,451.565 "
       id="polyline27" /><polyline
       points="354.954,384.192 353.316,386.886 352.641,388.322 352.336,389.058 352.106,388.849 352.363,385.735 354.954,384.192 "
       id="polyline29" /><polyline
       points="434.507,384.192 436.145,386.886 436.82,388.322 437.125,389.058 437.355,388.849 437.098,385.735 434.507,384.192 "
       id="polyline31" /><polyline
       points="394.73,369.175 408.729,371.125 415.441,373.406 421.647,376.816 426.812,381.655 427.744,383.149 428.099,383.964 427.644,383.89 430.076,386.466 433.32,392.694 434.723,399.649 436.075,413.739 436.291,427.898 435.644,442.039 434.999,449.089 434.805,450.847 436.187,451.703 439.62,451.581 441.213,423.324 440.665,409.17 438.896,395.134 436.808,388.295 433.017,382.362 427.765,377.58 421.904,373.595 408.778,368.232 394.73,366.442 380.683,368.232 367.557,373.595 361.696,377.58 356.444,382.362 352.653,388.295 350.565,395.134 348.796,409.17 348.248,423.324 349.841,451.581 353.274,451.703 354.656,450.847 354.461,449.089 353.817,442.039 353.17,427.898 353.386,413.739 354.738,399.649 356.141,392.694 359.385,386.466 361.817,383.89 361.362,383.964 361.717,383.149 362.649,381.655 367.814,376.816 374.02,373.406 380.732,371.125 394.73,369.175 "
       id="polyline33" /><polyline
       points="394.73,369.175 404.051,370.113 413.114,372.487 421.483,376.702 425.093,379.693 427.881,383.439 427.696,383.934 426.85,383.123 425.145,381.515 421.43,378.642 413.082,374.333 404.052,371.837 394.73,370.925 385.409,371.837 376.379,374.333 368.031,378.642 364.316,381.515 362.611,383.123 361.765,383.934 361.58,383.439 364.368,379.693 367.978,376.702 376.347,372.487 385.41,370.113 394.73,369.175 "
       id="polyline35" /><polyline
       points="404.487,371.917 395.404,370.941 386.302,371.683 385.176,371.879 384.974,372.854 384.974,375.139 384.974,379.708 384.974,388.847 403.196,388.904 404.338,388.904 404.487,387.91 404.487,385.625 404.487,381.055 404.487,371.917 "
       id="polyline37" /><polyline
       points="358.007,391.3 385.406,420.42 388.831,424.06 389.687,424.97 389.091,425.807 387.203,427.445 379.654,433.997 364.556,447.101 360.781,450.377 358.894,452.015 356.463,452.062 353.977,451.947 352.735,451.89 352.585,451.84 353.198,451.721 354.389,451.328 354.583,450.201 354.319,447.716 353.871,442.738 354.211,437.788 355.773,433.044 354.571,431.049 353.324,430.793 353.205,429.632 353.635,409.639 354.729,399.709 355.626,394.792 356.24,392.346 356.737,391.3 358.007,391.3 "
       id="polyline39" /><path
       d="m 350.641,452.625 a 2.86356,2.86356 0 0 0 -1.025,2.092"
       id="path41"
       inkscape:connector-curvature="0" /><polyline
       points="354.53,456.819 355.079,457.22 354.498,458.111 352.576,458.972 350.591,458.279 349.636,456.431 349.582,455.344 349.616,454.725 349.642,455.22 350.686,457.055 352.631,457.681 354.53,456.819 "
       id="polyline43" /><polyline
       points="355.386,452.764 355.386,455.376 355.386,456.682 354.703,456.624 355.265,454.165 354.684,452.996 355.386,452.764 "
       id="polyline45" /><polyline
       points="350.677,451.901 354.24,452.406 352.515,451.958 350.641,452.625 "
       id="polyline47" /><polyline
       points="350.64,452.639 350.666,451.893 "
       id="polyline49" /><circle
       cx="436.983"
       cy="454.82101"
       r="2.86356"
       id="circle51"
       sodipodi:cx="436.983"
       sodipodi:cy="454.82101"
       sodipodi:rx="2.86356"
       sodipodi:ry="2.86356"
       d="m 439.84656,454.82101 c 0,1.5815 -1.28206,2.86356 -2.86356,2.86356 -1.5815,0 -2.86356,-1.28206 -2.86356,-2.86356 0,-1.5815 1.28206,-2.86356 2.86356,-2.86356 1.5815,0 2.86356,1.28206 2.86356,2.86356 z" /><polyline
       points="438.795,451.893 437.112,451.872 "
       id="polyline53" /><polyline
       points="431.454,391.3 404.055,420.42 400.63,424.06 399.774,424.97 400.37,425.807 402.258,427.445 409.807,433.997 424.905,447.101 428.68,450.377 430.567,452.015 432.998,452.062 435.483,451.947 436.726,451.89 436.876,451.84 436.263,451.721 435.072,451.328 434.878,450.201 435.142,447.716 435.59,442.738 435.25,437.788 433.688,433.044 434.89,431.049 436.137,430.793 436.256,429.632 435.826,409.639 434.732,399.709 433.835,394.792 433.22,392.346 432.724,391.3 431.454,391.3 "
       id="polyline55" /><path
       d="m 439.845,454.717 a 2.86356,2.86356 0 0 0 -1.025,-2.092"
       id="path57"
       inkscape:connector-curvature="0" /><polyline
       points="434.931,456.819 434.382,457.22 434.963,458.111 436.885,458.972 438.87,458.279 439.825,456.431 439.879,455.344 439.845,454.725 439.818,455.22 438.775,457.055 436.829,457.681 434.931,456.819 "
       id="polyline59" /><polyline
       points="434.075,452.764 434.075,455.376 434.075,456.682 434.758,456.624 434.196,454.165 434.776,452.996 434.075,452.764 "
       id="polyline61" /><polyline
       points="438.784,451.901 435.221,452.406 436.946,451.958 438.82,452.625 "
       id="polyline63" /><polyline
       points="438.821,452.639 438.795,451.893 "
       id="polyline65" /><polyline
       points="394.73,458.146 418.186,457.722 429.906,457.238 432.835,457.103 434.076,456.821 434.077,455.355 434.079,452.422 431.56,452.128 413.642,437.326 404.783,429.637 400.354,425.793 394.73,425.146 389.107,425.793 384.678,429.637 375.819,437.326 357.901,452.128 355.382,452.422 355.384,455.355 355.385,456.821 356.626,457.103 359.555,457.238 371.275,457.722 394.73,458.146 "
       id="polyline67" /><polyline
       points="355.312,433.862 355.834,432.64 355.239,431.475 354.036,430.875 353.25,431.32 353.468,436.594 353.621,439.229 353.725,440.26 353.98,438.96 355.312,433.862 "
       id="polyline69" /><polyline
       points="434.149,433.862 433.627,432.64 434.222,431.475 435.425,430.875 436.211,431.32 435.992,436.594 435.84,439.229 435.736,440.26 435.481,438.96 434.149,433.862 "
       id="polyline71" /></g></svg>