<?xml version="1.0" encoding="UTF-8" standalone="no"?>
<svg
   xmlns:dc="http://purl.org/dc/elements/1.1/"
   xmlns:cc="http://creativecommons.org/ns#"
   xmlns:rdf="http://www.w3.org/1999/02/22-rdf-syntax-ns#"
   xmlns:svg="http://www.w3.org/2000/svg"
   xmlns="http://www.w3.org/2000/svg"
   xmlns:sodipodi="http://sodipodi.sourceforge.net/DTD/sodipodi-0.dtd"
   xmlns:inkscape="http://www.inkscape.org/namespaces/inkscape"
   viewBox="0 0 357.84571 283.93848"
   version="1.1"
   xml:space="preserve"
   id="svg2"
   inkscape:version="0.48.5 r10040"
   width="100%"
   height="100%"
   sodipodi:docname="ch53-Model.svg"
   style="fill-rule:evenodd;stroke-linecap:round;stroke-linejoin:round"><metadata
     id="metadata37"><rdf:RDF><cc:Work
         rdf:about=""><dc:format>image/svg+xml</dc:format><dc:type
           rdf:resource="http://purl.org/dc/dcmitype/StillImage" /></cc:Work></rdf:RDF></metadata><sodipodi:namedview
     pagecolor="#ffffff"
     bordercolor="#666666"
     borderopacity="1"
     objecttolerance="10"
     gridtolerance="10"
     guidetolerance="10"
     inkscape:pageopacity="0"
     inkscape:pageshadow="2"
     inkscape:window-width="640"
     inkscape:window-height="480"
     id="namedview35"
     showgrid="false"
     fit-margin-top="0"
     fit-margin-left="0"
     fit-margin-right="0"
     fit-margin-bottom="0"
     inkscape:zoom="0.295"
     inkscape:cx="395.22709"
     inkscape:cy="52.863535"
     inkscape:window-x="0"
     inkscape:window-y="27"
     inkscape:window-maximized="0"
     inkscape:current-layer="svg2" /><defs
     id="defs4"><clipPath
       id="clipId0"><path
         d="M 0,800 800,800 800,0 0,0 z"
         id="path7"
         inkscape:connector-curvature="0" /></clipPath></defs><g
     clip-path="url(#clipId0)"
     id="g9"
     style="fill:none;stroke:#000000;stroke-width:0.1"
     transform="translate(-234.68652,-244.34277)" /><g
     clip-path="url(#clipId0)"
     id="g11"
     style="fill:none;stroke:#000000;stroke-width:0.25"
     transform="translate(-234.68652,-244.34277)"><polyline
       points="259.539,278.923 367.552,386.935 259.119,495.789 "
       id="polyline13" /><polyline
       points="238.945,281.024 238.903,281.681 238.783,283.585 238.596,286.631 238.354,290.716 237.748,301.591 237.054,315.382 236.359,331.26 235.754,348.4 235.163,383.152 235.951,418.89 236.758,437.039 237.684,454.076 238.61,469.023 239.418,480.908 239.741,485.397 239.989,488.754 240.149,490.857 240.206,491.586 "
       id="polyline15" /><polyline
       points="260.022,267.511 259.032,272.419 256.329,276.427 252.322,279.129 247.414,280.12 242.506,279.129 238.499,276.427 235.796,272.419 234.805,267.511 235.796,262.603 238.499,258.596 242.506,255.894 247.414,254.903 252.322,255.894 256.329,258.596 259.032,262.603 260.022,267.511 "
       id="polyline17" /><polyline
       points="260.022,506.716 259.032,511.624 256.329,515.632 252.322,518.334 247.414,519.324 242.506,518.334 238.499,515.632 235.796,511.624 234.805,506.716 235.796,501.808 238.499,497.8 242.506,495.098 247.414,494.107 252.322,495.098 256.329,497.8 259.032,501.808 260.022,506.716 "
       id="polyline19" /><polyline
       points="569.351,260.01 568.77,259.911 567.075,259.626 560.632,258.575 550.598,257.012 537.547,255.09 522.055,252.963 504.698,250.784 466.691,246.889 428.129,244.634 418.942,244.47 416.693,244.46 415.947,244.459 415.935,244.459 415.747,244.459 413.604,244.459 411.462,244.459 411.274,244.459 411.261,244.459 410.515,244.46 408.267,244.47 399.079,244.634 360.518,246.889 322.51,250.784 305.153,252.963 289.662,255.09 276.611,257.012 266.576,258.575 260.133,259.626 258.439,259.911 257.858,260.01 "
       id="polyline21" /><polyline
       points="567.67,278.923 459.657,386.935 568.09,495.789 "
       id="polyline23" /><polyline
       points="459.657,386.935 415.948,386.935 411.26,386.935 367.552,386.935 "
       id="polyline25" /><polyline
       points="569.351,513.02 567.387,513.394 561.751,514.416 552.829,515.937 541.004,517.807 526.66,519.877 510.183,521.996 491.956,524.016 472.364,525.786 430.622,527.98 419.934,528.139 417.259,528.15 416.368,528.15 416.367,528.15 416.352,528.15 416.13,528.15 413.604,528.15 411.078,528.15 410.856,528.15 410.842,528.15 410.841,528.15 409.949,528.15 407.274,528.139 396.586,527.98 354.845,525.786 335.253,524.016 317.026,521.996 300.548,519.877 286.205,517.807 274.38,515.937 265.457,514.416 259.822,513.394 257.858,513.02 "
       id="polyline27" /><polyline
       points="588.263,281.024 588.306,281.681 588.426,283.585 588.612,286.631 588.854,290.716 589.46,301.591 590.155,315.382 590.849,331.26 591.455,348.4 592.046,383.152 591.258,418.89 590.45,437.039 589.524,454.076 588.598,469.023 587.79,480.908 587.468,485.397 587.219,488.754 587.059,490.857 587.002,491.586 "
       id="polyline29" /><polyline
       points="567.186,267.511 568.177,272.419 570.879,276.427 574.887,279.129 579.794,280.12 584.702,279.129 588.71,276.427 591.412,272.419 592.403,267.511 591.412,262.603 588.71,258.596 584.702,255.894 579.794,254.903 574.887,255.894 570.879,258.596 568.177,262.603 567.186,267.511 "
       id="polyline31" /><polyline
       points="567.186,506.716 568.177,511.624 570.879,515.632 574.887,518.334 579.794,519.324 584.702,518.334 588.71,515.632 591.412,511.624 592.403,506.716 591.412,501.808 588.71,497.8 584.702,495.098 579.794,494.107 574.887,495.098 570.879,497.8 568.177,501.808 567.186,506.716 "
       id="polyline33" /></g></svg>